<?xml version="1.0" encoding="iso-8859-1"?>
<!-- Generator: Adobe Illustrator 18.0.0, SVG Export Plug-In . SVG Version: 6.00 Build 0)  -->
<!DOCTYPE svg PUBLIC "-//W3C//DTD SVG 1.1//EN" "http://www.w3.org/Graphics/SVG/1.1/DTD/svg11.dtd">
<svg version="1.1" id="Capa_1" xmlns="http://www.w3.org/2000/svg" xmlns:xlink="http://www.w3.org/1999/xlink" x="0px" y="0px"
	 viewBox="0 0 60 60" style="enable-background:new 0 0 60 60;" xml:space="preserve">
<g>
	<path d="M59.894,20.817c-0.004-0.047-0.006-0.094-0.011-0.141c-0.067-0.667-0.168-1.324-0.292-1.974
		c-0.02-0.108-0.036-0.216-0.058-0.324c-0.12-0.587-0.269-1.163-0.433-1.733c-0.058-0.202-0.116-0.404-0.179-0.605
		c-0.152-0.477-0.322-0.946-0.504-1.409c-0.112-0.286-0.229-0.57-0.352-0.851c-0.167-0.381-0.346-0.756-0.533-1.127
		c-0.161-0.319-0.329-0.633-0.505-0.944c-0.191-0.337-0.39-0.669-0.597-0.996c-0.189-0.297-0.383-0.59-0.586-0.88
		c-0.24-0.342-0.488-0.676-0.746-1.004c-0.194-0.246-0.391-0.49-0.595-0.729c-0.305-0.358-0.621-0.705-0.947-1.044
		c-0.101-0.105-0.189-0.219-0.292-0.322c-0.015-0.015-0.037-0.021-0.053-0.035C49.05,2.562,43.319,0,37,0
		c-9.782,0-18.432,6.136-21.68,15.32C6.136,18.568,0,27.218,0,37c0,6.319,2.562,12.05,6.701,16.211
		c0.014,0.016,0.02,0.037,0.035,0.053c0.103,0.103,0.217,0.191,0.322,0.292c0.338,0.326,0.686,0.642,1.044,0.947
		c0.24,0.204,0.483,0.402,0.729,0.595c0.328,0.257,0.662,0.506,1.004,0.746c0.289,0.203,0.582,0.398,0.88,0.586
		c0.327,0.207,0.658,0.406,0.996,0.597c0.311,0.176,0.625,0.344,0.944,0.505c0.37,0.187,0.745,0.366,1.127,0.533
		c0.282,0.123,0.565,0.24,0.851,0.352c0.463,0.182,0.932,0.352,1.409,0.504c0.201,0.063,0.402,0.121,0.605,0.179
		c0.57,0.164,1.146,0.313,1.733,0.433c0.107,0.022,0.216,0.038,0.324,0.058c0.649,0.123,1.306,0.224,1.974,0.292
		c0.047,0.005,0.094,0.006,0.141,0.011C21.536,59.962,22.264,60,23,60c9.782,0,18.432-6.136,21.68-15.32
		C53.864,41.432,60,32.782,60,23C60,22.264,59.962,21.536,59.894,20.817z M14.654,17.736c-0.003,0.452,0.282,0.866,0.739,0.98
		c0.082,0.02,0.163,0.029,0.243,0.029c0.448,0,0.856-0.304,0.97-0.758c0.077-0.312,0.16-0.619,0.25-0.925
		c0.036-0.123,0.042-0.246,0.032-0.367c0.065-0.086,0.135-0.17,0.169-0.275C19.901,7.795,27.916,2,37,2
		c5.43,0,10.37,2.09,14.101,5.484l-12.56,12.56c-0.011-0.01-0.021-0.02-0.031-0.03c-0.408-0.373-1.039-0.345-1.413,0.062
		c-0.363,0.396-0.34,1.001,0.036,1.378L7.484,51.101C4.09,47.37,2,42.43,2,37C2,28.553,7.015,21.036,14.654,17.736z"/>
	<path d="M28.917,16.846c0.306,0.089,0.608,0.186,0.907,0.289c0.108,0.037,0.218,0.055,0.326,0.055c0.415,0,0.803-0.26,0.945-0.674
		c0.18-0.522-0.098-1.092-0.619-1.271c-0.33-0.113-0.662-0.22-0.999-0.318c-0.531-0.156-1.086,0.149-1.24,0.68
		S28.387,16.691,28.917,16.846z"/>
	<path d="M24.225,16.035c0.32,0.019,0.638,0.044,0.953,0.077c0.034,0.003,0.069,0.005,0.104,0.005c0.506,0,0.94-0.383,0.994-0.897
		c0.057-0.549-0.343-1.04-0.893-1.098c-0.345-0.035-0.691-0.063-1.041-0.083c-0.579-0.035-1.025,0.388-1.057,0.939
		C23.253,15.53,23.674,16.003,24.225,16.035z"/>
	<path d="M33.303,18.696c0.277,0.156,0.551,0.318,0.819,0.487c0.165,0.104,0.349,0.152,0.53,0.152c0.333,0,0.658-0.166,0.849-0.469
		c0.293-0.469,0.151-1.086-0.316-1.379c-0.296-0.185-0.595-0.362-0.899-0.534c-0.483-0.274-1.092-0.102-1.362,0.38
		C32.651,17.815,32.821,18.425,33.303,18.696z"/>
	<path d="M19.301,16.313c0.057,0,0.114-0.005,0.172-0.015c0.311-0.054,0.625-0.101,0.941-0.14c0.548-0.067,0.938-0.566,0.869-1.115
		c-0.067-0.548-0.564-0.951-1.115-0.869c-0.348,0.043-0.693,0.094-1.037,0.153c-0.544,0.094-0.908,0.611-0.814,1.156
		C18.4,15.971,18.823,16.313,19.301,16.313z"/>
	<path d="M15.141,25.691c-0.545,0.092-0.912,0.608-0.82,1.152c0.059,0.347,0.124,0.689,0.199,1.03
		c0.103,0.468,0.516,0.786,0.976,0.786c0.071,0,0.143-0.008,0.215-0.023c0.54-0.118,0.881-0.651,0.763-1.19
		c-0.067-0.31-0.127-0.621-0.18-0.935C16.2,25.968,15.682,25.604,15.141,25.691z"/>
	<path d="M18.941,37.245c0.197,0.25,0.489,0.38,0.785,0.38c0.217,0,0.436-0.07,0.619-0.216c0.434-0.343,0.507-0.972,0.164-1.404
		c-0.197-0.25-0.389-0.504-0.573-0.762c-0.322-0.449-0.949-0.553-1.396-0.229c-0.449,0.322-0.552,0.947-0.229,1.396
		C18.516,36.692,18.725,36.972,18.941,37.245z"/>
	<path d="M14.99,23.693c0.004,0,0.008,0,0.012,0c0.547,0,0.993-0.44,1-0.988c0.004-0.319,0.016-0.637,0.034-0.952
		c0.033-0.551-0.388-1.024-0.939-1.057c-0.543-0.03-1.024,0.389-1.057,0.939c-0.021,0.347-0.034,0.695-0.038,1.046
		C13.995,23.234,14.438,23.687,14.99,23.693z"/>
	<path d="M15.767,31.856c0.135,0.322,0.276,0.641,0.425,0.954c0.17,0.362,0.529,0.574,0.905,0.574c0.143,0,0.287-0.03,0.425-0.096
		c0.5-0.234,0.714-0.83,0.479-1.33c-0.135-0.288-0.265-0.579-0.388-0.874c-0.213-0.51-0.8-0.749-1.309-0.537
		C15.794,30.761,15.554,31.347,15.767,31.856z"/>
</g>
<g>
</g>
<g>
</g>
<g>
</g>
<g>
</g>
<g>
</g>
<g>
</g>
<g>
</g>
<g>
</g>
<g>
</g>
<g>
</g>
<g>
</g>
<g>
</g>
<g>
</g>
<g>
</g>
<g>
</g>
</svg>
