<?xml version="1.0" encoding="iso-8859-1"?>
<!-- Generator: Adobe Illustrator 18.0.0, SVG Export Plug-In . SVG Version: 6.00 Build 0)  -->
<!DOCTYPE svg PUBLIC "-//W3C//DTD SVG 1.1//EN" "http://www.w3.org/Graphics/SVG/1.1/DTD/svg11.dtd">
<svg version="1.1" id="Capa_1" xmlns="http://www.w3.org/2000/svg" xmlns:xlink="http://www.w3.org/1999/xlink" x="0px" y="0px"
	 viewBox="0 0 60 60" style="enable-background:new 0 0 60 60;" xml:space="preserve">
<path d="M44,16V0H0v44h16v16h44V16H44z M3,40c-0.552,0-1-0.448-1-1c0-0.552,0.448-1,1-1s1,0.448,1,1C4,39.552,3.552,40,3,40z M3,34
	c-0.552,0-1-0.448-1-1c0-0.552,0.448-1,1-1s1,0.448,1,1C4,33.552,3.552,34,3,34z M3,28c-0.552,0-1-0.448-1-1c0-0.552,0.448-1,1-1
	s1,0.448,1,1C4,27.552,3.552,28,3,28z M3,22c-0.552,0-1-0.448-1-1c0-0.552,0.448-1,1-1s1,0.448,1,1C4,21.552,3.552,22,3,22z M3,16
	c-0.552,0-1-0.448-1-1c0-0.552,0.448-1,1-1s1,0.448,1,1C4,15.552,3.552,16,3,16z M3,10c-0.552,0-1-0.448-1-1c0-0.552,0.448-1,1-1
	s1,0.448,1,1C4,9.552,3.552,10,3,10z M3,4C2.448,4,2,3.552,2,3c0-0.552,0.448-1,1-1s1,0.448,1,1C4,3.552,3.552,4,3,4z M6,43
	c-0.552,0-1-0.448-1-1c0-0.552,0.448-1,1-1s1,0.448,1,1C7,42.552,6.552,43,6,43z M6,37c-0.552,0-1-0.448-1-1c0-0.552,0.448-1,1-1
	s1,0.448,1,1C7,36.552,6.552,37,6,37z M6,31c-0.552,0-1-0.448-1-1c0-0.552,0.448-1,1-1s1,0.448,1,1C7,30.552,6.552,31,6,31z M6,25
	c-0.552,0-1-0.448-1-1c0-0.552,0.448-1,1-1s1,0.448,1,1C7,24.552,6.552,25,6,25z M6,19c-0.552,0-1-0.448-1-1c0-0.552,0.448-1,1-1
	s1,0.448,1,1C7,18.552,6.552,19,6,19z M6,13c-0.552,0-1-0.448-1-1c0-0.552,0.448-1,1-1s1,0.448,1,1C7,12.552,6.552,13,6,13z M6,7
	C5.448,7,5,6.552,5,6c0-0.552,0.448-1,1-1s1,0.448,1,1C7,6.552,6.552,7,6,7z M9,40c-0.552,0-1-0.448-1-1c0-0.552,0.448-1,1-1
	s1,0.448,1,1C10,39.552,9.552,40,9,40z M9,34c-0.552,0-1-0.448-1-1c0-0.552,0.448-1,1-1s1,0.448,1,1C10,33.552,9.552,34,9,34z M9,28
	c-0.552,0-1-0.448-1-1c0-0.552,0.448-1,1-1s1,0.448,1,1C10,27.552,9.552,28,9,28z M9,22c-0.552,0-1-0.448-1-1c0-0.552,0.448-1,1-1
	s1,0.448,1,1C10,21.552,9.552,22,9,22z M9,16c-0.552,0-1-0.448-1-1c0-0.552,0.448-1,1-1s1,0.448,1,1C10,15.552,9.552,16,9,16z M9,10
	c-0.552,0-1-0.448-1-1c0-0.552,0.448-1,1-1s1,0.448,1,1C10,9.552,9.552,10,9,10z M9,4C8.448,4,8,3.552,8,3c0-0.552,0.448-1,1-1
	s1,0.448,1,1C10,3.552,9.552,4,9,4z M12,43c-0.552,0-1-0.448-1-1c0-0.552,0.448-1,1-1s1,0.448,1,1C13,42.552,12.552,43,12,43z
	 M12,37c-0.552,0-1-0.448-1-1c0-0.552,0.448-1,1-1s1,0.448,1,1C13,36.552,12.552,37,12,37z M12,31c-0.552,0-1-0.448-1-1
	c0-0.552,0.448-1,1-1s1,0.448,1,1C13,30.552,12.552,31,12,31z M12,25c-0.552,0-1-0.448-1-1c0-0.552,0.448-1,1-1s1,0.448,1,1
	C13,24.552,12.552,25,12,25z M12,19c-0.552,0-1-0.448-1-1c0-0.552,0.448-1,1-1s1,0.448,1,1C13,18.552,12.552,19,12,19z M12,13
	c-0.552,0-1-0.448-1-1c0-0.552,0.448-1,1-1s1,0.448,1,1C13,12.552,12.552,13,12,13z M12,7c-0.552,0-1-0.448-1-1c0-0.552,0.448-1,1-1
	s1,0.448,1,1C13,6.552,12.552,7,12,7z M15,40c-0.552,0-1-0.448-1-1c0-0.552,0.448-1,1-1s1,0.448,1,1C16,39.552,15.552,40,15,40z
	 M15,34c-0.552,0-1-0.448-1-1c0-0.552,0.448-1,1-1s1,0.448,1,1C16,33.552,15.552,34,15,34z M15,28c-0.552,0-1-0.448-1-1
	c0-0.552,0.448-1,1-1s1,0.448,1,1C16,27.552,15.552,28,15,28z M15,22c-0.552,0-1-0.448-1-1c0-0.552,0.448-1,1-1s1,0.448,1,1
	C16,21.552,15.552,22,15,22z M15,16c-0.552,0-1-0.448-1-1c0-0.552,0.448-1,1-1s1,0.448,1,1C16,15.552,15.552,16,15,16z M15,10
	c-0.552,0-1-0.448-1-1c0-0.552,0.448-1,1-1s1,0.448,1,1C16,9.552,15.552,10,15,10z M15,4c-0.552,0-1-0.448-1-1c0-0.552,0.448-1,1-1
	s1,0.448,1,1C16,3.552,15.552,4,15,4z M18,55c-0.552,0-1-0.448-1-1c0-0.552,0.448-1,1-1s1,0.448,1,1C19,54.552,18.552,55,18,55z
	 M18,49c-0.552,0-1-0.448-1-1c0-0.552,0.448-1,1-1s1,0.448,1,1C19,48.552,18.552,49,18,49z M18,43c-0.552,0-1-0.448-1-1
	c0-0.552,0.448-1,1-1s1,0.448,1,1C19,42.552,18.552,43,18,43z M18,37c-0.552,0-1-0.448-1-1c0-0.552,0.448-1,1-1s1,0.448,1,1
	C19,36.552,18.552,37,18,37z M18,31c-0.552,0-1-0.448-1-1c0-0.552,0.448-1,1-1s1,0.448,1,1C19,30.552,18.552,31,18,31z M18,25
	c-0.552,0-1-0.448-1-1c0-0.552,0.448-1,1-1s1,0.448,1,1C19,24.552,18.552,25,18,25z M18,19c-0.552,0-1-0.448-1-1
	c0-0.552,0.448-1,1-1s1,0.448,1,1C19,18.552,18.552,19,18,19z M18,13c-0.552,0-1-0.448-1-1c0-0.552,0.448-1,1-1s1,0.448,1,1
	C19,12.552,18.552,13,18,13z M18,7c-0.552,0-1-0.448-1-1c0-0.552,0.448-1,1-1s1,0.448,1,1C19,6.552,18.552,7,18,7z M21,58
	c-0.552,0-1-0.448-1-1c0-0.552,0.448-1,1-1s1,0.448,1,1C22,57.552,21.552,58,21,58z M21,52c-0.552,0-1-0.448-1-1
	c0-0.552,0.448-1,1-1s1,0.448,1,1C22,51.552,21.552,52,21,52z M21,46c-0.552,0-1-0.448-1-1c0-0.552,0.448-1,1-1s1,0.448,1,1
	C22,45.552,21.552,46,21,46z M21,40c-0.552,0-1-0.448-1-1c0-0.552,0.448-1,1-1s1,0.448,1,1C22,39.552,21.552,40,21,40z M21,34
	c-0.552,0-1-0.448-1-1c0-0.552,0.448-1,1-1s1,0.448,1,1C22,33.552,21.552,34,21,34z M21,28c-0.552,0-1-0.448-1-1
	c0-0.552,0.448-1,1-1s1,0.448,1,1C22,27.552,21.552,28,21,28z M21,22c-0.552,0-1-0.448-1-1c0-0.552,0.448-1,1-1s1,0.448,1,1
	C22,21.552,21.552,22,21,22z M21,16c-0.552,0-1-0.448-1-1c0-0.552,0.448-1,1-1s1,0.448,1,1C22,15.552,21.552,16,21,16z M21,10
	c-0.552,0-1-0.448-1-1c0-0.552,0.448-1,1-1s1,0.448,1,1C22,9.552,21.552,10,21,10z M21,4c-0.552,0-1-0.448-1-1c0-0.552,0.448-1,1-1
	s1,0.448,1,1C22,3.552,21.552,4,21,4z M24,55c-0.552,0-1-0.448-1-1c0-0.552,0.448-1,1-1s1,0.448,1,1C25,54.552,24.552,55,24,55z
	 M24,49c-0.552,0-1-0.448-1-1c0-0.552,0.448-1,1-1s1,0.448,1,1C25,48.552,24.552,49,24,49z M24,43c-0.552,0-1-0.448-1-1
	c0-0.552,0.448-1,1-1s1,0.448,1,1C25,42.552,24.552,43,24,43z M24,37c-0.552,0-1-0.448-1-1c0-0.552,0.448-1,1-1s1,0.448,1,1
	C25,36.552,24.552,37,24,37z M24,31c-0.552,0-1-0.448-1-1c0-0.552,0.448-1,1-1s1,0.448,1,1C25,30.552,24.552,31,24,31z M24,25
	c-0.552,0-1-0.448-1-1c0-0.552,0.448-1,1-1s1,0.448,1,1C25,24.552,24.552,25,24,25z M24,19c-0.552,0-1-0.448-1-1
	c0-0.552,0.448-1,1-1s1,0.448,1,1C25,18.552,24.552,19,24,19z M24,13c-0.552,0-1-0.448-1-1c0-0.552,0.448-1,1-1s1,0.448,1,1
	C25,12.552,24.552,13,24,13z M24,7c-0.552,0-1-0.448-1-1c0-0.552,0.448-1,1-1s1,0.448,1,1C25,6.552,24.552,7,24,7z M27,58
	c-0.552,0-1-0.448-1-1c0-0.552,0.448-1,1-1s1,0.448,1,1C28,57.552,27.552,58,27,58z M27,52c-0.552,0-1-0.448-1-1
	c0-0.552,0.448-1,1-1s1,0.448,1,1C28,51.552,27.552,52,27,52z M27,46c-0.552,0-1-0.448-1-1c0-0.552,0.448-1,1-1s1,0.448,1,1
	C28,45.552,27.552,46,27,46z M27,40c-0.552,0-1-0.448-1-1c0-0.552,0.448-1,1-1s1,0.448,1,1C28,39.552,27.552,40,27,40z M27,34
	c-0.552,0-1-0.448-1-1c0-0.552,0.448-1,1-1s1,0.448,1,1C28,33.552,27.552,34,27,34z M27,28c-0.552,0-1-0.448-1-1
	c0-0.552,0.448-1,1-1s1,0.448,1,1C28,27.552,27.552,28,27,28z M27,22c-0.552,0-1-0.448-1-1c0-0.552,0.448-1,1-1s1,0.448,1,1
	C28,21.552,27.552,22,27,22z M27,16c-0.552,0-1-0.448-1-1c0-0.552,0.448-1,1-1s1,0.448,1,1C28,15.552,27.552,16,27,16z M27,10
	c-0.552,0-1-0.448-1-1c0-0.552,0.448-1,1-1s1,0.448,1,1C28,9.552,27.552,10,27,10z M27,4c-0.552,0-1-0.448-1-1c0-0.552,0.448-1,1-1
	s1,0.448,1,1C28,3.552,27.552,4,27,4z M30,55c-0.552,0-1-0.448-1-1c0-0.552,0.448-1,1-1s1,0.448,1,1C31,54.552,30.552,55,30,55z
	 M30,49c-0.552,0-1-0.448-1-1c0-0.552,0.448-1,1-1s1,0.448,1,1C31,48.552,30.552,49,30,49z M30,43c-0.552,0-1-0.448-1-1
	c0-0.552,0.448-1,1-1s1,0.448,1,1C31,42.552,30.552,43,30,43z M30,37c-0.552,0-1-0.448-1-1c0-0.552,0.448-1,1-1s1,0.448,1,1
	C31,36.552,30.552,37,30,37z M30,31c-0.552,0-1-0.448-1-1c0-0.552,0.448-1,1-1s1,0.448,1,1C31,30.552,30.552,31,30,31z M30,25
	c-0.552,0-1-0.448-1-1c0-0.552,0.448-1,1-1s1,0.448,1,1C31,24.552,30.552,25,30,25z M30,19c-0.552,0-1-0.448-1-1
	c0-0.552,0.448-1,1-1s1,0.448,1,1C31,18.552,30.552,19,30,19z M30,13c-0.552,0-1-0.448-1-1c0-0.552,0.448-1,1-1s1,0.448,1,1
	C31,12.552,30.552,13,30,13z M30,7c-0.552,0-1-0.448-1-1c0-0.552,0.448-1,1-1s1,0.448,1,1C31,6.552,30.552,7,30,7z M33,58
	c-0.552,0-1-0.448-1-1c0-0.552,0.448-1,1-1s1,0.448,1,1C34,57.552,33.552,58,33,58z M33,52c-0.552,0-1-0.448-1-1
	c0-0.552,0.448-1,1-1s1,0.448,1,1C34,51.552,33.552,52,33,52z M33,46c-0.552,0-1-0.448-1-1c0-0.552,0.448-1,1-1s1,0.448,1,1
	C34,45.552,33.552,46,33,46z M33,40c-0.552,0-1-0.448-1-1c0-0.552,0.448-1,1-1s1,0.448,1,1C34,39.552,33.552,40,33,40z M33,34
	c-0.552,0-1-0.448-1-1c0-0.552,0.448-1,1-1s1,0.448,1,1C34,33.552,33.552,34,33,34z M33,28c-0.552,0-1-0.448-1-1
	c0-0.552,0.448-1,1-1s1,0.448,1,1C34,27.552,33.552,28,33,28z M33,22c-0.552,0-1-0.448-1-1c0-0.552,0.448-1,1-1s1,0.448,1,1
	C34,21.552,33.552,22,33,22z M33,16c-0.552,0-1-0.448-1-1c0-0.552,0.448-1,1-1s1,0.448,1,1C34,15.552,33.552,16,33,16z M33,10
	c-0.552,0-1-0.448-1-1c0-0.552,0.448-1,1-1s1,0.448,1,1C34,9.552,33.552,10,33,10z M33,4c-0.552,0-1-0.448-1-1c0-0.552,0.448-1,1-1
	s1,0.448,1,1C34,3.552,33.552,4,33,4z M36,55c-0.552,0-1-0.448-1-1c0-0.552,0.448-1,1-1s1,0.448,1,1C37,54.552,36.552,55,36,55z
	 M36,49c-0.552,0-1-0.448-1-1c0-0.552,0.448-1,1-1s1,0.448,1,1C37,48.552,36.552,49,36,49z M36,43c-0.552,0-1-0.448-1-1
	c0-0.552,0.448-1,1-1s1,0.448,1,1C37,42.552,36.552,43,36,43z M36,37c-0.552,0-1-0.448-1-1c0-0.552,0.448-1,1-1s1,0.448,1,1
	C37,36.552,36.552,37,36,37z M36,31c-0.552,0-1-0.448-1-1c0-0.552,0.448-1,1-1s1,0.448,1,1C37,30.552,36.552,31,36,31z M36,25
	c-0.552,0-1-0.448-1-1c0-0.552,0.448-1,1-1s1,0.448,1,1C37,24.552,36.552,25,36,25z M36,19c-0.552,0-1-0.448-1-1
	c0-0.552,0.448-1,1-1s1,0.448,1,1C37,18.552,36.552,19,36,19z M36,13c-0.552,0-1-0.448-1-1c0-0.552,0.448-1,1-1s1,0.448,1,1
	C37,12.552,36.552,13,36,13z M36,7c-0.552,0-1-0.448-1-1c0-0.552,0.448-1,1-1s1,0.448,1,1C37,6.552,36.552,7,36,7z M39,58
	c-0.552,0-1-0.448-1-1c0-0.552,0.448-1,1-1s1,0.448,1,1C40,57.552,39.552,58,39,58z M39,52c-0.552,0-1-0.448-1-1
	c0-0.552,0.448-1,1-1s1,0.448,1,1C40,51.552,39.552,52,39,52z M39,46c-0.552,0-1-0.448-1-1c0-0.552,0.448-1,1-1s1,0.448,1,1
	C40,45.552,39.552,46,39,46z M39,40c-0.552,0-1-0.448-1-1c0-0.552,0.448-1,1-1s1,0.448,1,1C40,39.552,39.552,40,39,40z M39,34
	c-0.552,0-1-0.448-1-1c0-0.552,0.448-1,1-1s1,0.448,1,1C40,33.552,39.552,34,39,34z M39,28c-0.552,0-1-0.448-1-1
	c0-0.552,0.448-1,1-1s1,0.448,1,1C40,27.552,39.552,28,39,28z M39,22c-0.552,0-1-0.448-1-1c0-0.552,0.448-1,1-1s1,0.448,1,1
	C40,21.552,39.552,22,39,22z M39,16c-0.552,0-1-0.448-1-1c0-0.552,0.448-1,1-1s1,0.448,1,1C40,15.552,39.552,16,39,16z M39,10
	c-0.552,0-1-0.448-1-1c0-0.552,0.448-1,1-1s1,0.448,1,1C40,9.552,39.552,10,39,10z M39,4c-0.552,0-1-0.448-1-1c0-0.552,0.448-1,1-1
	s1,0.448,1,1C40,3.552,39.552,4,39,4z M42,55c-0.552,0-1-0.448-1-1c0-0.552,0.448-1,1-1s1,0.448,1,1C43,54.552,42.552,55,42,55z
	 M42,49c-0.552,0-1-0.448-1-1c0-0.552,0.448-1,1-1s1,0.448,1,1C43,48.552,42.552,49,42,49z M42,43c-0.552,0-1-0.448-1-1
	c0-0.552,0.448-1,1-1s1,0.448,1,1C43,42.552,42.552,43,42,43z M42,37c-0.552,0-1-0.448-1-1c0-0.552,0.448-1,1-1s1,0.448,1,1
	C43,36.552,42.552,37,42,37z M42,31c-0.552,0-1-0.448-1-1c0-0.552,0.448-1,1-1s1,0.448,1,1C43,30.552,42.552,31,42,31z M42,25
	c-0.552,0-1-0.448-1-1c0-0.552,0.448-1,1-1s1,0.448,1,1C43,24.552,42.552,25,42,25z M42,19c-0.552,0-1-0.448-1-1
	c0-0.552,0.448-1,1-1s1,0.448,1,1C43,18.552,42.552,19,42,19z M42,13c-0.552,0-1-0.448-1-1c0-0.552,0.448-1,1-1s1,0.448,1,1
	C43,12.552,42.552,13,42,13z M42,7c-0.552,0-1-0.448-1-1c0-0.552,0.448-1,1-1s1,0.448,1,1C43,6.552,42.552,7,42,7z M45,58
	c-0.552,0-1-0.448-1-1c0-0.552,0.448-1,1-1s1,0.448,1,1C46,57.552,45.552,58,45,58z M45,52c-0.552,0-1-0.448-1-1
	c0-0.552,0.448-1,1-1s1,0.448,1,1C46,51.552,45.552,52,45,52z M45,46c-0.552,0-1-0.448-1-1c0-0.552,0.448-1,1-1s1,0.448,1,1
	C46,45.552,45.552,46,45,46z M45,40c-0.552,0-1-0.448-1-1c0-0.552,0.448-1,1-1s1,0.448,1,1C46,39.552,45.552,40,45,40z M45,34
	c-0.552,0-1-0.448-1-1c0-0.552,0.448-1,1-1s1,0.448,1,1C46,33.552,45.552,34,45,34z M45,28c-0.552,0-1-0.448-1-1
	c0-0.552,0.448-1,1-1s1,0.448,1,1C46,27.552,45.552,28,45,28z M45,22c-0.552,0-1-0.448-1-1c0-0.552,0.448-1,1-1s1,0.448,1,1
	C46,21.552,45.552,22,45,22z M48,55c-0.552,0-1-0.448-1-1c0-0.552,0.448-1,1-1s1,0.448,1,1C49,54.552,48.552,55,48,55z M48,49
	c-0.552,0-1-0.448-1-1c0-0.552,0.448-1,1-1s1,0.448,1,1C49,48.552,48.552,49,48,49z M48,43c-0.552,0-1-0.448-1-1
	c0-0.552,0.448-1,1-1s1,0.448,1,1C49,42.552,48.552,43,48,43z M48,37c-0.552,0-1-0.448-1-1c0-0.552,0.448-1,1-1s1,0.448,1,1
	C49,36.552,48.552,37,48,37z M48,31c-0.552,0-1-0.448-1-1c0-0.552,0.448-1,1-1s1,0.448,1,1C49,30.552,48.552,31,48,31z M48,25
	c-0.552,0-1-0.448-1-1c0-0.552,0.448-1,1-1s1,0.448,1,1C49,24.552,48.552,25,48,25z M48,19c-0.552,0-1-0.448-1-1
	c0-0.552,0.448-1,1-1s1,0.448,1,1C49,18.552,48.552,19,48,19z M51,58c-0.552,0-1-0.448-1-1c0-0.552,0.448-1,1-1s1,0.448,1,1
	C52,57.552,51.552,58,51,58z M51,52c-0.552,0-1-0.448-1-1c0-0.552,0.448-1,1-1s1,0.448,1,1C52,51.552,51.552,52,51,52z M51,46
	c-0.552,0-1-0.448-1-1c0-0.552,0.448-1,1-1s1,0.448,1,1C52,45.552,51.552,46,51,46z M51,40c-0.552,0-1-0.448-1-1
	c0-0.552,0.448-1,1-1s1,0.448,1,1C52,39.552,51.552,40,51,40z M51,34c-0.552,0-1-0.448-1-1c0-0.552,0.448-1,1-1s1,0.448,1,1
	C52,33.552,51.552,34,51,34z M51,28c-0.552,0-1-0.448-1-1c0-0.552,0.448-1,1-1s1,0.448,1,1C52,27.552,51.552,28,51,28z M51,22
	c-0.552,0-1-0.448-1-1c0-0.552,0.448-1,1-1s1,0.448,1,1C52,21.552,51.552,22,51,22z M54,55c-0.552,0-1-0.448-1-1
	c0-0.552,0.448-1,1-1s1,0.448,1,1C55,54.552,54.552,55,54,55z M54,49c-0.552,0-1-0.448-1-1c0-0.552,0.448-1,1-1s1,0.448,1,1
	C55,48.552,54.552,49,54,49z M54,43c-0.552,0-1-0.448-1-1c0-0.552,0.448-1,1-1s1,0.448,1,1C55,42.552,54.552,43,54,43z M54,37
	c-0.552,0-1-0.448-1-1c0-0.552,0.448-1,1-1s1,0.448,1,1C55,36.552,54.552,37,54,37z M54,31c-0.552,0-1-0.448-1-1
	c0-0.552,0.448-1,1-1s1,0.448,1,1C55,30.552,54.552,31,54,31z M54,25c-0.552,0-1-0.448-1-1c0-0.552,0.448-1,1-1s1,0.448,1,1
	C55,24.552,54.552,25,54,25z M54,19c-0.552,0-1-0.448-1-1c0-0.552,0.448-1,1-1s1,0.448,1,1C55,18.552,54.552,19,54,19z M57,58
	c-0.552,0-1-0.448-1-1c0-0.552,0.448-1,1-1s1,0.448,1,1C58,57.552,57.552,58,57,58z M57,52c-0.552,0-1-0.448-1-1
	c0-0.552,0.448-1,1-1s1,0.448,1,1C58,51.552,57.552,52,57,52z M57,46c-0.552,0-1-0.448-1-1c0-0.552,0.448-1,1-1s1,0.448,1,1
	C58,45.552,57.552,46,57,46z M57,40c-0.552,0-1-0.448-1-1c0-0.552,0.448-1,1-1s1,0.448,1,1C58,39.552,57.552,40,57,40z M57,34
	c-0.552,0-1-0.448-1-1c0-0.552,0.448-1,1-1s1,0.448,1,1C58,33.552,57.552,34,57,34z M57,28c-0.552,0-1-0.448-1-1
	c0-0.552,0.448-1,1-1s1,0.448,1,1C58,27.552,57.552,28,57,28z M57,22c-0.552,0-1-0.448-1-1c0-0.552,0.448-1,1-1s1,0.448,1,1
	C58,21.552,57.552,22,57,22z"/>
<g>
</g>
<g>
</g>
<g>
</g>
<g>
</g>
<g>
</g>
<g>
</g>
<g>
</g>
<g>
</g>
<g>
</g>
<g>
</g>
<g>
</g>
<g>
</g>
<g>
</g>
<g>
</g>
<g>
</g>
</svg>
