<?xml version="1.0" encoding="iso-8859-1"?>
<!-- Generator: Adobe Illustrator 18.0.0, SVG Export Plug-In . SVG Version: 6.00 Build 0)  -->
<!DOCTYPE svg PUBLIC "-//W3C//DTD SVG 1.1//EN" "http://www.w3.org/Graphics/SVG/1.1/DTD/svg11.dtd">
<svg version="1.1" id="Capa_1" xmlns="http://www.w3.org/2000/svg" xmlns:xlink="http://www.w3.org/1999/xlink" x="0px" y="0px"
	 viewBox="0 0 60 60" style="enable-background:new 0 0 60 60;" xml:space="preserve">
<path d="M60,26h-3.325C54.93,14.212,45.788,5.07,34,3.324V0h-8v3.324C14.212,5.07,5.07,14.212,3.325,26H0v8h3.325
	C5.07,45.788,14.212,54.93,26,56.676V60h8v-3.324C45.788,54.93,54.93,45.788,56.675,34H60V26z M34,54.676V52h-8v2.676
	C15.32,52.97,7.03,44.68,5.324,34H8v-8H5.324C7.03,15.32,15.32,7.03,26,5.324V8h8V5.324C44.68,7.03,52.97,15.32,54.676,26H52v8
	h2.676C52.97,44.68,44.68,52.97,34,54.676z"/>
<g>
</g>
<g>
</g>
<g>
</g>
<g>
</g>
<g>
</g>
<g>
</g>
<g>
</g>
<g>
</g>
<g>
</g>
<g>
</g>
<g>
</g>
<g>
</g>
<g>
</g>
<g>
</g>
<g>
</g>
</svg>
