<?xml version="1.0" encoding="iso-8859-1"?>
<!-- Generator: Adobe Illustrator 18.0.0, SVG Export Plug-In . SVG Version: 6.00 Build 0)  -->
<!DOCTYPE svg PUBLIC "-//W3C//DTD SVG 1.1//EN" "http://www.w3.org/Graphics/SVG/1.1/DTD/svg11.dtd">
<svg version="1.1" id="Capa_1" xmlns="http://www.w3.org/2000/svg" xmlns:xlink="http://www.w3.org/1999/xlink" x="0px" y="0px"
	 viewBox="0 0 59.977 59.977" style="enable-background:new 0 0 59.977 59.977;" xml:space="preserve">
<g>
	<path d="M35.888,2.008c0.322,0.019,0.642,0.044,0.958,0.075c0.033,0.003,0.066,0.005,0.099,0.005c0.509,0,0.944-0.386,0.994-0.903
		c0.054-0.549-0.349-1.038-0.897-1.092c-0.344-0.033-0.688-0.061-1.036-0.081C35.43-0.02,34.979,0.4,34.948,0.951
		C34.916,1.503,35.337,1.975,35.888,2.008z"/>
	<path d="M55.656,15.223c0.173,0.356,0.529,0.564,0.901,0.564c0.146,0,0.294-0.032,0.435-0.1c0.497-0.24,0.705-0.839,0.465-1.336
		c-0.151-0.313-0.311-0.622-0.474-0.928c-0.261-0.487-0.866-0.67-1.354-0.41c-0.487,0.261-0.671,0.866-0.41,1.354
		C55.371,14.65,55.517,14.934,55.656,15.223z"/>
	<path d="M30.96,2.221c0.048,0,0.097-0.003,0.146-0.011c0.313-0.046,0.631-0.085,0.95-0.117c0.549-0.057,0.948-0.548,0.893-1.098
		c-0.057-0.55-0.542-0.943-1.098-0.893c-0.347,0.036-0.691,0.079-1.034,0.129c-0.546,0.079-0.925,0.587-0.845,1.134
		C30.044,1.863,30.472,2.221,30.96,2.221z"/>
	<path d="M57.919,23.504c0.026,0.316,0.046,0.635,0.06,0.954c0.021,0.538,0.465,0.959,0.998,0.959c0.014,0,0.028,0,0.042-0.001
		c0.552-0.022,0.98-0.488,0.958-1.04c-0.014-0.349-0.035-0.696-0.065-1.042c-0.047-0.551-0.542-0.973-1.081-0.911
		C58.279,22.47,57.872,22.954,57.919,23.504z"/>
	<path d="M10.294,21.536c0.066,0.014,0.134,0.02,0.199,0.02c0.466,0,0.883-0.327,0.979-0.802c0.063-0.314,0.134-0.626,0.209-0.936
		c0.132-0.536-0.196-1.078-0.732-1.209c-0.534-0.135-1.078,0.196-1.209,0.732c-0.083,0.335-0.159,0.674-0.229,1.016
		C9.402,20.898,9.753,21.426,10.294,21.536z"/>
	<path d="M57.042,18.801c0.09,0.305,0.174,0.611,0.252,0.921c0.113,0.455,0.521,0.758,0.969,0.758c0.08,0,0.162-0.01,0.243-0.03
		c0.536-0.134,0.862-0.677,0.728-1.212c-0.084-0.339-0.176-0.675-0.275-1.007c-0.157-0.529-0.712-0.831-1.243-0.673
		C57.186,17.715,56.884,18.271,57.042,18.801z"/>
	<path d="M26.119,3.439c0.114,0,0.231-0.02,0.345-0.062c0.3-0.11,0.603-0.213,0.907-0.31c0.526-0.168,0.817-0.729,0.65-1.256
		c-0.168-0.526-0.732-0.818-1.256-0.65c-0.334,0.106-0.664,0.219-0.991,0.339c-0.519,0.19-0.784,0.765-0.594,1.283
		C25.329,3.189,25.712,3.439,26.119,3.439z"/>
	<path d="M11.588,16.711c0.13,0.056,0.264,0.082,0.396,0.082c0.387,0,0.755-0.226,0.918-0.604c0.127-0.294,0.259-0.584,0.396-0.871
		c0.239-0.497,0.029-1.095-0.469-1.334c-0.5-0.241-1.096-0.028-1.334,0.469c-0.149,0.311-0.293,0.626-0.43,0.943
		C10.848,15.904,11.081,16.492,11.588,16.711z"/>
	<path d="M14.41,12.437c0.315,0,0.626-0.148,0.82-0.427c0.184-0.262,0.371-0.52,0.565-0.772c0.335-0.439,0.251-1.066-0.188-1.402
		c-0.439-0.335-1.065-0.25-1.402,0.188c-0.21,0.276-0.415,0.556-0.614,0.841c-0.316,0.452-0.207,1.076,0.246,1.393
		C14.013,12.379,14.212,12.437,14.41,12.437z"/>
	<path d="M21.629,5.618c0.18,0,0.361-0.048,0.525-0.149c0.272-0.169,0.548-0.332,0.827-0.489c0.481-0.271,0.651-0.881,0.38-1.362
		c-0.271-0.48-0.88-0.652-1.362-0.38c-0.303,0.171-0.602,0.348-0.897,0.53c-0.47,0.291-0.614,0.907-0.324,1.377
		C20.967,5.45,21.294,5.618,21.629,5.618z"/>
	<path d="M17.672,8.661c0.247,0,0.494-0.091,0.688-0.274c0.232-0.22,0.47-0.434,0.71-0.644c0.416-0.363,0.46-0.994,0.097-1.411
		c-0.364-0.417-0.996-0.459-1.411-0.097c-0.262,0.228-0.519,0.461-0.771,0.7c-0.401,0.38-0.418,1.013-0.038,1.413
		C17.143,8.556,17.407,8.661,17.672,8.661z"/>
	<path d="M51.979,41.176c-0.214,0.238-0.433,0.472-0.655,0.7c-0.386,0.396-0.378,1.028,0.018,1.414
		c0.194,0.189,0.446,0.284,0.698,0.284c0.26,0,0.52-0.101,0.716-0.302c0.242-0.248,0.479-0.501,0.712-0.761
		c0.369-0.411,0.335-1.043-0.076-1.412C52.982,40.73,52.348,40.765,51.979,41.176z"/>
	<path d="M54.724,9.933c-0.211-0.276-0.429-0.547-0.651-0.813c-0.354-0.422-0.983-0.479-1.409-0.126
		c-0.424,0.354-0.479,0.985-0.126,1.409c0.205,0.245,0.405,0.494,0.601,0.747c0.196,0.257,0.493,0.392,0.794,0.392
		c0.212,0,0.427-0.067,0.607-0.207C54.978,10.999,55.061,10.371,54.724,9.933z"/>
	<path d="M51.156,6.158c-0.264-0.228-0.531-0.449-0.804-0.664c-0.434-0.344-1.063-0.27-1.404,0.164
		c-0.343,0.434-0.27,1.063,0.164,1.404c0.249,0.197,0.495,0.401,0.735,0.609c0.189,0.163,0.422,0.243,0.654,0.243
		c0.28,0,0.559-0.117,0.757-0.346C51.62,7.151,51.573,6.519,51.156,6.158z"/>
	<path d="M48.434,44.393c-0.258,0.19-0.519,0.374-0.783,0.553c-0.458,0.31-0.578,0.931-0.27,1.389c0.193,0.286,0.509,0.44,0.83,0.44
		c0.192,0,0.387-0.056,0.559-0.171c0.288-0.194,0.572-0.396,0.852-0.602c0.444-0.328,0.539-0.954,0.211-1.398
		S48.878,44.065,48.434,44.393z"/>
	<path d="M58.945,27.416c-0.552-0.067-1.047,0.325-1.113,0.873c-0.038,0.319-0.082,0.637-0.133,0.952
		c-0.088,0.545,0.283,1.058,0.829,1.146c0.054,0.009,0.106,0.013,0.159,0.013c0.482,0,0.907-0.35,0.986-0.842
		c0.055-0.341,0.103-0.684,0.145-1.028C59.884,27.98,59.493,27.482,58.945,27.416z"/>
	<path d="M56.17,36.953c-0.476-0.278-1.089-0.12-1.368,0.358c-0.161,0.275-0.328,0.548-0.5,0.816
		c-0.298,0.465-0.163,1.084,0.302,1.382c0.167,0.107,0.354,0.158,0.539,0.158c0.329,0,0.652-0.162,0.843-0.46
		c0.188-0.292,0.368-0.588,0.543-0.887C56.807,37.845,56.646,37.232,56.17,36.953z"/>
	<path d="M58.049,32.328c-0.527-0.173-1.092,0.107-1.268,0.629c-0.102,0.304-0.209,0.604-0.323,0.901
		c-0.198,0.516,0.06,1.094,0.575,1.292c0.118,0.045,0.239,0.066,0.358,0.066c0.402,0,0.781-0.244,0.934-0.642
		c0.124-0.324,0.241-0.65,0.353-0.979C58.854,33.071,58.572,32.505,58.049,32.328z"/>
	<path d="M42.132,1.129c-0.331-0.104-0.664-0.2-1.001-0.291c-0.53-0.143-1.082,0.173-1.226,0.706s0.173,1.082,0.706,1.226
		c0.31,0.083,0.617,0.172,0.921,0.268c0.1,0.031,0.201,0.046,0.3,0.046c0.426,0,0.82-0.273,0.954-0.7
		C42.951,1.855,42.658,1.294,42.132,1.129z"/>
	<path d="M39.779,48.373c-0.312,0.07-0.626,0.137-0.942,0.196c-0.543,0.102-0.9,0.624-0.798,1.167c0.09,0.48,0.51,0.815,0.981,0.815
		c0.061,0,0.123-0.006,0.186-0.018c0.34-0.063,0.678-0.134,1.015-0.21c0.538-0.122,0.876-0.657,0.755-1.196
		C40.854,48.59,40.316,48.254,39.779,48.373z"/>
	<path d="M46.902,3.181c-0.303-0.169-0.609-0.332-0.92-0.488c-0.491-0.248-1.095-0.05-1.343,0.444
		c-0.248,0.493-0.05,1.094,0.444,1.343c0.283,0.143,0.564,0.292,0.842,0.447c0.155,0.086,0.322,0.127,0.487,0.127
		c0.351,0,0.69-0.185,0.874-0.512C47.557,4.06,47.384,3.451,46.902,3.181z"/>
	<path d="M44.311,46.828c-0.29,0.134-0.583,0.262-0.88,0.384c-0.511,0.209-0.755,0.793-0.545,1.305
		c0.158,0.387,0.531,0.62,0.925,0.62c0.127,0,0.255-0.023,0.38-0.075c0.322-0.132,0.643-0.271,0.958-0.417
		c0.501-0.231,0.721-0.825,0.489-1.327C45.407,46.816,44.815,46.595,44.311,46.828z"/>
	<path d="M12,35.968c-6.617,0-12,5.383-12,12s5.383,12,12,12s12-5.383,12-12S18.617,35.968,12,35.968z M6,54.968
		c-0.552,0-1-0.448-1-1c0-0.552,0.448-1,1-1s1,0.448,1,1C7,54.52,6.552,54.968,6,54.968z M6,48.968c-0.552,0-1-0.448-1-1
		c0-0.552,0.448-1,1-1s1,0.448,1,1C7,48.52,6.552,48.968,6,48.968z M6,42.968c-0.552,0-1-0.448-1-1c0-0.552,0.448-1,1-1s1,0.448,1,1
		C7,42.52,6.552,42.968,6,42.968z M9,51.968c-0.552,0-1-0.448-1-1c0-0.552,0.448-1,1-1s1,0.448,1,1C10,51.52,9.552,51.968,9,51.968z
		 M9,45.968c-0.552,0-1-0.448-1-1c0-0.552,0.448-1,1-1s1,0.448,1,1C10,45.52,9.552,45.968,9,45.968z M12,54.968
		c-0.552,0-1-0.448-1-1c0-0.552,0.448-1,1-1s1,0.448,1,1C13,54.52,12.552,54.968,12,54.968z M12,48.968c-0.552,0-1-0.448-1-1
		c0-0.552,0.448-1,1-1s1,0.448,1,1C13,48.52,12.552,48.968,12,48.968z M12,42.968c-0.552,0-1-0.448-1-1c0-0.552,0.448-1,1-1
		s1,0.448,1,1C13,42.52,12.552,42.968,12,42.968z M15,51.968c-0.552,0-1-0.448-1-1c0-0.552,0.448-1,1-1s1,0.448,1,1
		C16,51.52,15.552,51.968,15,51.968z M15,45.968c-0.552,0-1-0.448-1-1c0-0.552,0.448-1,1-1s1,0.448,1,1
		C16,45.52,15.552,45.968,15,45.968z M18,54.968c-0.552,0-1-0.448-1-1c0-0.552,0.448-1,1-1s1,0.448,1,1
		C19,54.52,18.552,54.968,18,54.968z M18,48.968c-0.552,0-1-0.448-1-1c0-0.552,0.448-1,1-1s1,0.448,1,1
		C19,48.52,18.552,48.968,18,48.968z M18,42.968c-0.552,0-1-0.448-1-1c0-0.552,0.448-1,1-1s1,0.448,1,1
		C19,42.52,18.552,42.968,18,42.968z"/>
	<path d="M40,37.968c0-9.925-8.075-18-18-18c-4.239,0-8.129,1.483-11.205,3.944c-0.175-0.224-0.434-0.379-0.74-0.39
		c-0.541-0.028-1.016,0.409-1.036,0.962C9.006,24.81,9,25.137,9,25.52c0,0.012,0.007,0.022,0.007,0.035
		c-2.755,2.887-4.573,6.675-4.93,10.882C6.333,34.883,9.06,33.968,12,33.968c7.72,0,14,6.28,14,14c0,2.94-0.915,5.667-2.469,7.922
		c4.204-0.357,7.991-2.173,10.877-4.924c0.031,0,0.062,0.002,0.092,0.002c0.19,0,0.382-0.002,0.571-0.006
		c0.552-0.012,0.99-0.469,0.979-1.021c-0.004-0.203-0.083-0.379-0.19-0.535C38.436,46.294,40,42.315,40,37.968z"/>
</g>
<g>
</g>
<g>
</g>
<g>
</g>
<g>
</g>
<g>
</g>
<g>
</g>
<g>
</g>
<g>
</g>
<g>
</g>
<g>
</g>
<g>
</g>
<g>
</g>
<g>
</g>
<g>
</g>
<g>
</g>
</svg>
