<?xml version="1.0" encoding="iso-8859-1"?>
<!-- Generator: Adobe Illustrator 18.0.0, SVG Export Plug-In . SVG Version: 6.00 Build 0)  -->
<!DOCTYPE svg PUBLIC "-//W3C//DTD SVG 1.1//EN" "http://www.w3.org/Graphics/SVG/1.1/DTD/svg11.dtd">
<svg version="1.1" id="Capa_1" xmlns="http://www.w3.org/2000/svg" xmlns:xlink="http://www.w3.org/1999/xlink" x="0px" y="0px"
	 viewBox="0 0 60 60" style="enable-background:new 0 0 60 60;" xml:space="preserve">
<g>
	<path d="M59,0H1C0.447,0,0,0.448,0,1v58c0,0.552,0.447,1,1,1h58c0.553,0,1-0.448,1-1V1C60,0.448,59.553,0,59,0z M16,54
		c-5.514,0-10-4.486-10-10s4.486-10,10-10s10,4.486,10,10S21.514,54,16,54z M26,25c0,0.552-0.447,1-1,1H7c-0.553,0-1-0.448-1-1V7
		c0-0.552,0.447-1,1-1h18c0.553,0,1,0.448,1,1V25z M53.954,42.409l-3.12,9.892C50.702,52.717,50.316,53,49.88,53H38.486
		c-0.425,0-0.804-0.269-0.944-0.67l-3.486-9.971c-0.133-0.382-0.023-0.807,0.278-1.076l9-8.029c0.382-0.34,0.956-0.339,1.335,0.003
		l9,8.108C53.96,41.627,54.071,42.035,53.954,42.409z M53.02,26c-0.005,0-0.013,0-0.02,0H35c-0.347,0-0.668-0.18-0.851-0.474
		c-0.183-0.295-0.199-0.663-0.044-0.973l9-18c0.34-0.678,1.449-0.678,1.789,0l8.92,17.839c0.129,0.168,0.205,0.379,0.205,0.608
		C54.02,25.552,53.572,26,53.02,26z"/>
</g>
<g>
</g>
<g>
</g>
<g>
</g>
<g>
</g>
<g>
</g>
<g>
</g>
<g>
</g>
<g>
</g>
<g>
</g>
<g>
</g>
<g>
</g>
<g>
</g>
<g>
</g>
<g>
</g>
<g>
</g>
</svg>
