<?xml version="1.0" encoding="iso-8859-1"?>
<!-- Generator: Adobe Illustrator 18.0.0, SVG Export Plug-In . SVG Version: 6.00 Build 0)  -->
<!DOCTYPE svg PUBLIC "-//W3C//DTD SVG 1.1//EN" "http://www.w3.org/Graphics/SVG/1.1/DTD/svg11.dtd">
<svg version="1.1" id="Capa_1" xmlns="http://www.w3.org/2000/svg" xmlns:xlink="http://www.w3.org/1999/xlink" x="0px" y="0px"
	 viewBox="0 0 60 60" style="enable-background:new 0 0 60 60;" xml:space="preserve">
<g>
	<path d="M46,0v14h14V0H46z"/>
	<path d="M53,46h-7v7v7h14V46H53z M58,52.586L52.586,58h-3.172L58,49.414V52.586z M50.586,48L48,50.586V48H50.586z M48,53.414
		L53.414,48h3.172L48,56.586V53.414z M55.414,58L58,55.414V58H55.414z"/>
	<path d="M0,0v14h7h7V7V0H0z"/>
	<path d="M0,46v14h14V46H0z"/>
	<circle cx="15" cy="7" r="1"/>
	<circle cx="25" cy="53" r="1"/>
	<circle cx="17" cy="53" r="1"/>
	<circle cx="23" cy="7" r="1"/>
	<circle cx="19" cy="7" r="1"/>
	<circle cx="21" cy="53" r="1"/>
	<circle cx="7" cy="43" r="1"/>
	<circle cx="7" cy="31" r="1"/>
	<circle cx="7" cy="35" r="1"/>
	<circle cx="7" cy="19" r="1"/>
	<circle cx="7" cy="15" r="1"/>
	<circle cx="7" cy="23" r="1"/>
	<circle cx="7" cy="39" r="1"/>
	<circle cx="7" cy="27" r="1"/>
	<circle cx="53" cy="17" r="1"/>
	<circle cx="53" cy="25" r="1"/>
	<circle cx="53" cy="21" r="1"/>
	<circle cx="53" cy="45" r="1"/>
	<circle cx="53" cy="29" r="1"/>
	<circle cx="53" cy="37" r="1"/>
	<circle cx="53" cy="41" r="1"/>
	<circle cx="53" cy="33" r="1"/>
	<circle cx="45" cy="53" r="1"/>
	<path d="M37,52c-0.561,0-1,0.45-1,1c0,0.55,0.439,1,1,1c0.55,0,1-0.45,1-1C38,52.45,37.55,52,37,52z"/>
	<circle cx="35" cy="7" r="1"/>
	<circle cx="31" cy="7" r="1"/>
	<circle cx="43" cy="7" r="1"/>
	<circle cx="29" cy="53" r="1"/>
	<circle cx="33" cy="53" r="1"/>
	<circle cx="41" cy="53" r="1"/>
	<circle cx="39" cy="7" r="1"/>
	<circle cx="27" cy="7" r="1"/>
</g>
<g>
</g>
<g>
</g>
<g>
</g>
<g>
</g>
<g>
</g>
<g>
</g>
<g>
</g>
<g>
</g>
<g>
</g>
<g>
</g>
<g>
</g>
<g>
</g>
<g>
</g>
<g>
</g>
<g>
</g>
</svg>
