<?xml version="1.0" encoding="iso-8859-1"?>
<!-- Generator: Adobe Illustrator 18.0.0, SVG Export Plug-In . SVG Version: 6.00 Build 0)  -->
<!DOCTYPE svg PUBLIC "-//W3C//DTD SVG 1.1//EN" "http://www.w3.org/Graphics/SVG/1.1/DTD/svg11.dtd">
<svg version="1.1" id="Capa_1" xmlns="http://www.w3.org/2000/svg" xmlns:xlink="http://www.w3.org/1999/xlink" x="0px" y="0px"
	 viewBox="0 0 60 60" style="enable-background:new 0 0 60 60;" xml:space="preserve">
<g>
	<path d="M21.465,43.536c1.211,0,2.351-0.473,3.207-1.329c1.768-1.769,1.768-4.646,0-6.414l-2.5-2.5
		c-0.391-0.391-1.023-0.391-1.414,0l-2.5,2.5c-1.769,1.769-1.769,4.646,0,6.414C19.113,43.063,20.253,43.536,21.465,43.536z"/>
	<path d="M30,0C17.08,0,4,2.404,4,7v5v3v6.053V53c0,4.596,13.08,7,26,7s26-2.404,26-7V21.053V15v-3V7C56,2.404,42.92,0,30,0z
		 M6.01,9.928c0.334,0.216,0.708,0.426,1.125,0.629c0.031,0.015,0.066,0.03,0.098,0.045c0.18,0.086,0.364,0.171,0.558,0.255
		c0.029,0.012,0.062,0.024,0.092,0.037c0.202,0.085,0.409,0.169,0.627,0.252c0.022,0.008,0.046,0.016,0.068,0.024
		c0.23,0.086,0.465,0.171,0.712,0.254c0.021,0.007,0.044,0.014,0.065,0.021c0.251,0.083,0.508,0.166,0.776,0.246
		c0.104,0.031,0.215,0.061,0.321,0.091c0.262,0.076,0.53,0.15,0.808,0.223c0.189,0.05,0.389,0.101,0.631,0.161
		c0.037,0.009,0.071,0.019,0.109,0.028v2.938C7.29,13.926,6,12.58,6,12V9.922C6.003,9.924,6.006,9.925,6.01,9.928
		C6.009,9.927,6.009,9.927,6.01,9.928z M6,15v-0.086c1.335,0.871,3.337,1.632,6,2.276v7.222c0,1.635,1.054,3.059,2.562,3.463
		c0.84,0.227,1.718,0.13,2.438-0.213v0.207c0,1.979,1.347,3.684,3.2,4.051c0.266,0.053,0.534,0.08,0.801,0.08
		C23.206,32,25,30.205,25,28v-5.537c0.186,0.108,0.385,0.195,0.588,0.272c0.04,0.015,0.081,0.028,0.122,0.042
		c0.186,0.064,0.378,0.115,0.576,0.151c0.023,0.004,0.045,0.01,0.068,0.014C26.564,22.976,26.779,23,26.999,23c0,0,0,0,0.001,0
		c0.014,0,0.028-0.004,0.041-0.004c0.252-0.002,0.505-0.025,0.758-0.076c1.815-0.359,3.134-2.001,3.191-3.926
		C40.545,18.904,49.996,17.5,54,14.871V15v6.053C54,35.911,43.641,48,30.908,48h-1.816C16.359,48,6,35.911,6,21.053V15z M54,9.877
		V12c0,1.708-7.894,4.861-23,4.995v-3c0.53-0.005,1.06-0.016,1.589-0.029c0.129-0.003,0.258-0.007,0.387-0.01
		c0.525-0.015,1.049-0.033,1.571-0.056c0.031-0.001,0.061-0.003,0.091-0.005c0.497-0.022,0.991-0.049,1.483-0.079
		c0.126-0.007,0.251-0.015,0.376-0.023c0.513-0.033,1.024-0.068,1.529-0.109c0.047-0.004,0.094-0.008,0.141-0.012
		c0.465-0.038,0.926-0.081,1.383-0.125c0.123-0.012,0.245-0.024,0.367-0.036c0.49-0.05,0.975-0.104,1.453-0.161
		c0.061-0.008,0.121-0.016,0.181-0.023c0.431-0.053,0.856-0.11,1.276-0.17c0.112-0.016,0.223-0.031,0.334-0.048
		c0.461-0.068,0.915-0.138,1.36-0.214c0.068-0.012,0.135-0.024,0.203-0.036c0.392-0.068,0.777-0.139,1.156-0.213
		c0.099-0.019,0.199-0.038,0.298-0.058c0.422-0.085,0.836-0.173,1.239-0.266c0.07-0.016,0.137-0.033,0.207-0.049
		c0.348-0.082,0.688-0.167,1.02-0.254c0.087-0.023,0.176-0.046,0.262-0.069c0.374-0.102,0.737-0.207,1.088-0.316
		c0.067-0.021,0.13-0.042,0.196-0.063c0.302-0.097,0.593-0.196,0.876-0.298c0.07-0.025,0.142-0.05,0.211-0.076
		c0.318-0.119,0.624-0.241,0.914-0.368c0.059-0.026,0.114-0.052,0.172-0.078c0.248-0.111,0.484-0.225,0.71-0.341
		c0.054-0.028,0.11-0.055,0.162-0.083c0.253-0.135,0.49-0.275,0.711-0.417C53.962,9.898,53.983,9.888,54,9.877z M51,6
		c0.552,0,1,0.448,1,1s-0.448,1-1,1s-1-0.448-1-1S50.448,6,51,6z M45,6c0.552,0,1,0.448,1,1s-0.448,1-1,1s-1-0.448-1-1
		S44.448,6,45,6z M42,3c0.552,0,1,0.448,1,1s-0.448,1-1,1s-1-0.448-1-1S41.448,3,42,3z M42,9c0.552,0,1,0.448,1,1s-0.448,1-1,1
		s-1-0.448-1-1S41.448,9,42,9z M39,6c0.552,0,1,0.448,1,1s-0.448,1-1,1s-1-0.448-1-1S38.448,6,39,6z M36,3c0.552,0,1,0.448,1,1
		s-0.448,1-1,1s-1-0.448-1-1S35.448,3,36,3z M36,9c0.552,0,1,0.448,1,1s-0.448,1-1,1s-1-0.448-1-1S35.448,9,36,9z M33,6
		c0.552,0,1,0.448,1,1s-0.448,1-1,1s-1-0.448-1-1S32.448,6,33,6z M30,3c0.552,0,1,0.448,1,1s-0.448,1-1,1s-1-0.448-1-1
		S29.448,3,30,3z M30,9c0.552,0,1,0.448,1,1s-0.448,1-1,1s-1-0.448-1-1S29.448,9,30,9z M27,6c0.552,0,1,0.448,1,1s-0.448,1-1,1
		s-1-0.448-1-1S26.448,6,27,6z M24,3c0.552,0,1,0.448,1,1s-0.448,1-1,1s-1-0.448-1-1S23.448,3,24,3z M24,9c0.552,0,1,0.448,1,1
		s-0.448,1-1,1s-1-0.448-1-1S23.448,9,24,9z M21,6c0.552,0,1,0.448,1,1s-0.448,1-1,1s-1-0.448-1-1S20.448,6,21,6z M18,3
		c0.552,0,1,0.448,1,1s-0.448,1-1,1s-1-0.448-1-1S17.448,3,18,3z M18,9c0.552,0,1,0.448,1,1s-0.448,1-1,1s-1-0.448-1-1
		S17.448,9,18,9z M15,6c0.552,0,1,0.448,1,1s-0.448,1-1,1s-1-0.448-1-1S14.448,6,15,6z M9,6c0.552,0,1,0.448,1,1S9.552,8,9,8
		S8,7.552,8,7S8.448,6,9,6z M54,53c0,1.745-8.243,5-24,5S6,54.745,6,53V32.374C9.828,42.725,18.736,50,29.092,50h1.816
		C41.264,50,50.172,42.725,54,32.374V53z"/>
</g>
<g>
</g>
<g>
</g>
<g>
</g>
<g>
</g>
<g>
</g>
<g>
</g>
<g>
</g>
<g>
</g>
<g>
</g>
<g>
</g>
<g>
</g>
<g>
</g>
<g>
</g>
<g>
</g>
<g>
</g>
</svg>
