<?xml version="1.0" encoding="iso-8859-1"?>
<!-- Generator: Adobe Illustrator 18.0.0, SVG Export Plug-In . SVG Version: 6.00 Build 0)  -->
<!DOCTYPE svg PUBLIC "-//W3C//DTD SVG 1.1//EN" "http://www.w3.org/Graphics/SVG/1.1/DTD/svg11.dtd">
<svg version="1.1" id="Capa_1" xmlns="http://www.w3.org/2000/svg" xmlns:xlink="http://www.w3.org/1999/xlink" x="0px" y="0px"
	 viewBox="0 0 60 60" style="enable-background:new 0 0 60 60;" xml:space="preserve">
<g>
	<path d="M25.468,1.857c-0.115-1.099-1.108-1.892-2.197-1.781c-0.354,0.037-0.703,0.08-1.052,0.131
		c-1.093,0.16-1.85,1.175-1.69,2.269c0.146,0.995,1,1.711,1.977,1.711c0.097,0,0.193-0.007,0.292-0.021
		c0.294-0.043,0.591-0.08,0.89-0.111C24.785,3.939,25.583,2.955,25.468,1.857z"/>
	<path d="M22.895,47.717c-0.296-0.042-0.59-0.089-0.882-0.143c-0.544-0.104-1.077,0.026-1.5,0.318
		c-0.165-0.044-0.334-0.075-0.513-0.075c-1.104,0-2,0.896-2,2v1.088c0,1.104,0.896,2,2,2c0.859,0,1.585-0.544,1.868-1.304
		c0.155,0.025,0.31,0.054,0.466,0.076c0.095,0.014,0.189,0.02,0.283,0.02c0.979,0,1.836-0.721,1.978-1.72
		C24.749,48.884,23.988,47.872,22.895,47.717z"/>
	<path d="M4,25.934c0-0.285,0.005-0.569,0.017-0.852c0.042-1.104-0.819-2.032-1.923-2.075c-1.128-0.037-2.032,0.819-2.075,1.923
		C0.007,25.263,0,25.598,0,25.934v0.051c0,1.104,0.896,1.975,2,1.975S4,27.039,4,25.934z"/>
	<path d="M29.158,47.711c-0.295,0.042-0.592,0.078-0.891,0.109c-1.099,0.111-1.898,1.094-1.786,2.192
		c0.104,1.03,0.974,1.797,1.987,1.797c0.067,0,0.136-0.003,0.205-0.011c0.352-0.035,0.703-0.079,1.051-0.129
		c1.093-0.156,1.853-1.169,1.696-2.263S30.255,47.56,29.158,47.711z"/>
	<path d="M30.657,0.35c-0.347-0.063-0.696-0.118-1.047-0.167c-1.086-0.15-2.104,0.612-2.256,1.707
		c-0.151,1.094,0.613,2.104,1.707,2.256c0.298,0.041,0.593,0.089,0.887,0.142c0.12,0.021,0.239,0.031,0.356,0.031
		c0.95,0,1.792-0.679,1.967-1.646C32.467,1.586,31.744,0.547,30.657,0.35z"/>
	<path d="M35.152,45.947c-0.269,0.123-0.54,0.241-0.814,0.354c-1.023,0.417-1.514,1.584-1.097,2.606
		c0.315,0.775,1.063,1.246,1.853,1.246c0.251,0,0.507-0.048,0.754-0.149c0.329-0.134,0.655-0.275,0.977-0.424
		c1.004-0.462,1.442-1.649,0.98-2.652S36.154,45.485,35.152,45.947z"/>
	<path d="M7.509,37.858c-0.162-0.251-0.318-0.505-0.471-0.763c-0.563-0.951-1.789-1.269-2.739-0.706
		c-0.951,0.562-1.268,1.788-0.706,2.739c0.18,0.305,0.365,0.605,0.557,0.901c0.383,0.592,1.025,0.914,1.682,0.914
		c0.372,0,0.748-0.104,1.084-0.32C7.843,40.024,8.108,38.786,7.509,37.858z"/>
	<path d="M4.897,32.178C4.812,31.89,4.733,31.6,4.66,31.308c-0.271-1.071-1.359-1.718-2.429-1.45
		c-1.071,0.271-1.72,1.357-1.45,2.429c0.087,0.343,0.18,0.682,0.278,1.019c0.256,0.872,1.054,1.438,1.918,1.438
		c0.187,0,0.377-0.026,0.564-0.082C4.602,34.349,5.209,33.238,4.897,32.178z"/>
	<path d="M10.952,41.982c-0.805-0.754-2.069-0.716-2.827,0.091C7.37,42.879,7.41,44.144,8.216,44.9
		c0.257,0.24,0.519,0.478,0.786,0.708c0.378,0.328,0.844,0.488,1.308,0.488c0.561,0,1.117-0.234,1.513-0.691
		c0.724-0.835,0.633-2.098-0.203-2.82C11.393,42.387,11.17,42.187,10.952,41.982z"/>
	<path d="M16.888,45.965c-0.272-0.124-0.542-0.254-0.809-0.389c-0.987-0.498-2.189-0.104-2.688,0.88
		c-0.499,0.985-0.105,2.189,0.88,2.688c0.315,0.16,0.636,0.313,0.959,0.461c0.269,0.122,0.551,0.181,0.828,0.181
		c0.759,0,1.485-0.436,1.821-1.172C18.337,47.609,17.894,46.423,16.888,45.965z"/>
	<path d="M2.396,21.147c0.186,0.053,0.372,0.079,0.556,0.079c0.868,0,1.668-0.57,1.921-1.446c0.083-0.287,0.172-0.571,0.267-0.854
		c0.351-1.047-0.213-2.181-1.261-2.532c-1.046-0.348-2.18,0.213-2.532,1.261c-0.112,0.335-0.219,0.674-0.317,1.016
		C0.723,19.731,1.334,20.841,2.396,21.147z"/>
	<path d="M9.732,5.65C9.458,5.872,9.188,6.096,8.924,6.327C8.09,7.052,8.001,8.315,8.726,9.148c0.396,0.455,0.951,0.688,1.511,0.688
		c0.465,0,0.933-0.161,1.311-0.49c0.228-0.197,0.458-0.391,0.693-0.579c0.86-0.692,0.997-1.952,0.305-2.813S10.593,4.96,9.732,5.65z
		"/>
	<path d="M4.699,14.692c0.334,0.213,0.706,0.314,1.074,0.314c0.66,0,1.307-0.326,1.688-0.924c0.16-0.25,0.325-0.497,0.495-0.739
		c0.636-0.903,0.418-2.151-0.485-2.786c-0.903-0.636-2.15-0.418-2.786,0.485C4.479,11.334,4.281,11.63,4.09,11.93
		C3.495,12.862,3.769,14.098,4.699,14.692z"/>
	<path d="M41.02,9.857c0.385,0.358,0.874,0.536,1.362,0.536c0.535,0,1.07-0.214,1.464-0.638c0.753-0.809,0.707-2.074-0.102-2.826
		c-0.258-0.24-0.52-0.475-0.786-0.704c-0.837-0.723-2.099-0.627-2.82,0.209c-0.722,0.837-0.628,2.1,0.209,2.82
		C40.574,9.451,40.799,9.652,41.02,9.857z"/>
	<path d="M15.966,6.127c0.28,0,0.564-0.059,0.835-0.184c0.271-0.125,0.546-0.244,0.824-0.359c1.021-0.423,1.505-1.593,1.082-2.613
		c-0.424-1.02-1.593-1.504-2.613-1.082c-0.325,0.135-0.646,0.275-0.965,0.422c-1.004,0.462-1.442,1.649-0.98,2.652
		C14.485,5.695,15.209,6.127,15.966,6.127z"/>
	<path d="M47.116,32.13c-0.085,0.289-0.176,0.576-0.271,0.86c-0.351,1.047,0.213,2.181,1.261,2.532
		c0.211,0.07,0.425,0.104,0.636,0.104c0.836,0,1.615-0.528,1.896-1.365c0.111-0.333,0.218-0.669,0.316-1.007
		c0.311-1.061-0.297-2.172-1.356-2.481C48.536,30.459,47.427,31.07,47.116,32.13z"/>
	<path d="M49.902,28.911c0.026,0.001,0.053,0.002,0.079,0.002c1.068,0,1.955-0.845,1.997-1.922c0.014-0.35,0.021-0.702,0.021-1.113
		v-0.046c0-1.104-0.896-2-2-2s-2,0.896-2,2L48,25.934c0,0.302-0.006,0.602-0.018,0.9C47.938,27.938,48.799,28.868,49.902,28.911z"/>
	<path d="M44.467,13.971c0.162,0.249,0.318,0.501,0.47,0.758c0.373,0.632,1.04,0.983,1.725,0.983c0.346,0,0.695-0.089,1.015-0.277
		c0.951-0.562,1.268-1.788,0.706-2.739c-0.181-0.306-0.368-0.606-0.562-0.904c-0.602-0.926-1.842-1.189-2.767-0.587
		C44.128,11.806,43.864,13.046,44.467,13.971z"/>
	<path d="M47.28,37.222c-0.929-0.598-2.166-0.33-2.765,0.599c-0.162,0.253-0.33,0.502-0.503,0.748
		c-0.634,0.904-0.415,2.151,0.49,2.785c0.349,0.245,0.749,0.362,1.146,0.362c0.631,0,1.251-0.297,1.64-0.853
		c0.202-0.289,0.399-0.581,0.591-0.877C48.477,39.058,48.209,37.821,47.28,37.222z"/>
	<path d="M37.682,2.7c-0.317-0.16-0.638-0.313-0.962-0.46c-1.007-0.456-2.192-0.009-2.646,0.998
		c-0.455,1.006-0.009,2.191,0.998,2.646c0.271,0.123,0.541,0.251,0.808,0.386c0.289,0.146,0.597,0.215,0.899,0.215
		c0.731,0,1.436-0.401,1.787-1.099C39.063,4.401,38.668,3.198,37.682,2.7z"/>
	<path d="M42.22,46.256c0.277-0.221,0.55-0.448,0.817-0.681c0.834-0.725,0.923-1.988,0.198-2.821
		c-0.725-0.834-1.988-0.924-2.821-0.198c-0.225,0.195-0.454,0.386-0.687,0.571c-0.864,0.688-1.007,1.947-0.318,2.811
		c0.396,0.496,0.978,0.754,1.565,0.754C41.412,46.691,41.852,46.549,42.22,46.256z"/>
	<path d="M58,55.434c-0.68,0-1.28,0.34-1.642,0.858c-0.519,0.361-0.858,0.962-0.858,1.642c0,1.104,0.896,2,2,2H58
		c1.104,0,2-0.896,2-2v-0.5C60,56.33,59.104,55.434,58,55.434z"/>
	<path d="M43.354,55.934h-1.089c-1.104,0-2,0.896-2,2s0.896,2,2,2h1.089c1.104,0,2-0.896,2-2S44.458,55.934,43.354,55.934z"/>
	<path d="M35.735,55.934h-1.088c-1.104,0-2,0.896-2,2s0.896,2,2,2h1.088c1.104,0,2-0.896,2-2S36.84,55.934,35.735,55.934z"/>
	<path d="M50.971,55.934h-1.088c-1.104,0-2,0.896-2,2s0.896,2,2,2h1.088c1.104,0,2-0.896,2-2S52.075,55.934,50.971,55.934z"/>
	<path d="M28.118,55.934h-1.089c-1.104,0-2,0.896-2,2s0.896,2,2,2h1.089c1.104,0,2-0.896,2-2S29.223,55.934,28.118,55.934z"/>
	<path d="M21.642,56.293C21.28,55.774,20.68,55.434,20,55.434c-1.104,0-2,0.896-2,2v0.5c0,1.104,0.896,2,2,2h0.5
		c1.104,0,2-0.896,2-2C22.5,57.255,22.16,56.654,21.642,56.293z"/>
	<path d="M20,40.199c-1.104,0-2,0.896-2,2v1.089c0,1.104,0.896,2,2,2s2-0.896,2-2v-1.089C22,41.094,21.104,40.199,20,40.199z"/>
	<path d="M22,34.582c0-1.104-0.896-2-2-2s-2,0.896-2,2v1.088c0,1.104,0.896,2,2,2s2-0.896,2-2V34.582z"/>
	<path d="M22,26.964c0-1.104-0.896-2-2-2s-2,0.896-2,2v1.089c0,1.104,0.896,2,2,2s2-0.896,2-2V26.964z"/>
	<path d="M18,19.934v0.5c0,1.104,0.896,2,2,2c0.68,0,1.28-0.34,1.642-0.858c0.519-0.361,0.858-0.962,0.858-1.642
		c0-1.104-0.896-2-2-2H20C18.896,17.934,18,18.83,18,19.934z"/>
	<path d="M27.029,21.934h1.088c1.104,0,2-0.896,2-2s-0.896-2-2-2h-1.088c-1.104,0-2,0.896-2,2S25.925,21.934,27.029,21.934z"/>
	<path d="M43.353,17.934h-1.088c-1.104,0-2,0.896-2,2s0.896,2,2,2h1.088c1.104,0,2-0.896,2-2S44.457,17.934,43.353,17.934z"/>
	<path d="M50.971,17.934h-0.335c-0.482-0.685-1.356-1.024-2.201-0.772c-1.059,0.315-1.661,1.43-1.346,2.488
		c0.085,0.284,0.164,0.571,0.237,0.861c0.229,0.907,1.044,1.511,1.938,1.511c0.162,0,0.327-0.02,0.491-0.061
		c0.03-0.008,0.057-0.022,0.087-0.031c0.014,0,0.026,0.004,0.04,0.004h1.089c1.104,0,2-0.896,2-2S52.075,17.934,50.971,17.934z"/>
	<path d="M34.646,21.934h1.089c1.104,0,2-0.896,2-2s-0.896-2-2-2h-1.089c-1.104,0-2,0.896-2,2S33.542,21.934,34.646,21.934z"/>
	<path d="M58,17.934h-0.5c-1.104,0-2,0.896-2,2c0,0.68,0.34,1.28,0.858,1.642c0.361,0.519,0.962,0.858,1.642,0.858
		c1.104,0,2-0.896,2-2v-0.5C60,18.83,59.104,17.934,58,17.934z"/>
	<path d="M58,24.964c-1.104,0-2,0.896-2,2v1.088c0,1.104,0.896,2,2,2s2-0.896,2-2v-1.088C60,25.859,59.104,24.964,58,24.964z"/>
	<path d="M58,47.816c-1.104,0-2,0.896-2,2v1.089c0,1.104,0.896,2,2,2s2-0.896,2-2v-1.089C60,48.712,59.104,47.816,58,47.816z"/>
	<path d="M58,40.199c-1.104,0-2,0.896-2,2v1.088c0,1.104,0.896,2,2,2s2-0.896,2-2v-1.088C60,41.094,59.104,40.199,58,40.199z"/>
	<path d="M58,32.581c-1.104,0-2,0.896-2,2v1.089c0,1.104,0.896,2,2,2s2-0.896,2-2v-1.089C60,33.476,59.104,32.581,58,32.581z"/>
</g>
<g>
</g>
<g>
</g>
<g>
</g>
<g>
</g>
<g>
</g>
<g>
</g>
<g>
</g>
<g>
</g>
<g>
</g>
<g>
</g>
<g>
</g>
<g>
</g>
<g>
</g>
<g>
</g>
<g>
</g>
</svg>
