<?xml version="1.0" encoding="iso-8859-1"?>
<!-- Generator: Adobe Illustrator 18.0.0, SVG Export Plug-In . SVG Version: 6.00 Build 0)  -->
<!DOCTYPE svg PUBLIC "-//W3C//DTD SVG 1.1//EN" "http://www.w3.org/Graphics/SVG/1.1/DTD/svg11.dtd">
<svg version="1.1" id="Capa_1" xmlns="http://www.w3.org/2000/svg" xmlns:xlink="http://www.w3.org/1999/xlink" x="0px" y="0px"
	 viewBox="0 0 59 59" style="enable-background:new 0 0 59 59;" xml:space="preserve">
<g>
	<path d="M42.937,17.011c-0.202,4.723-1.214,9.335-3.046,12.942c-1.5,2.953-2.41,6.627-2.745,10.46
		c6.889,1.253,14.893,0.493,20.4-2.305L59,37.26V20.723l-1.496-0.855C53.518,17.845,48.195,16.899,42.937,17.011z"/>
	<path d="M40.961,17.105c-4.028,0.295-7.914,1.216-11.008,2.786c-3.408,1.73-7.716,2.724-12.165,3
		c0.482,2.236,1.179,4.335,2.104,6.156c0.988,1.946,1.733,4.189,2.247,6.58c2.855,0.506,5.538,1.325,7.815,2.481
		c1.571,0.797,3.351,1.421,5.244,1.889c0.371-4.014,1.338-7.854,2.911-10.95C39.801,25.714,40.751,21.466,40.961,17.105z"/>
	<path d="M22.524,37.706c1.09,7.106,0.215,15.141-2.632,20.747L19.593,59h18.879l-0.364-0.547
		c-2.284-4.498-3.295-10.558-3.046-16.448c-2.178-0.507-4.225-1.204-6.016-2.114C27.126,38.916,24.9,38.189,22.524,37.706z"/>
	<path d="M39.895,0.553c2.03,3.997,3.054,9.233,3.08,14.487c5.581-0.105,11.228,0.911,15.478,3.069L59,18.421V0H39.618L39.895,0.553
		z"/>
	<path d="M18.122,57.521c2.759-5.434,3.529-13.325,2.329-20.164c-6.55-0.914-13.86-0.075-18.998,2.534L0,40.786V59h17.316
		L18.122,57.521z"/>
	<path d="M58.504,39.864c-5.823,2.958-14.204,3.793-21.477,2.538c-0.189,5.413,0.751,10.952,2.839,15.093L40.868,59H59V39.575
		L58.504,39.864z"/>
	<path d="M20.025,35.315c-0.471-1.937-1.103-3.759-1.917-5.362c-1.044-2.057-1.821-4.442-2.336-6.986
		c-5.498,0.07-11.039-0.949-15.226-3.075L0,19.544v18.897l0.476-0.293C5.799,35.443,13.24,34.51,20.025,35.315z"/>
	<path d="M1.537,18.156c3.806,1.929,8.853,2.879,13.897,2.85c-1.023-7.035-0.134-14.929,2.674-20.46L18.398,0H0v17.178L1.537,18.156
		z"/>
	<path d="M41.003,15.124c-0.016-4.954-0.979-9.899-2.894-13.671L37.382,0H20.661l-0.777,1.468
		c-2.669,5.256-3.487,12.802-2.459,19.474c4.244-0.243,8.37-1.182,11.622-2.833C32.401,16.405,36.628,15.417,41.003,15.124z"/>
</g>
<g>
</g>
<g>
</g>
<g>
</g>
<g>
</g>
<g>
</g>
<g>
</g>
<g>
</g>
<g>
</g>
<g>
</g>
<g>
</g>
<g>
</g>
<g>
</g>
<g>
</g>
<g>
</g>
<g>
</g>
</svg>
