<?xml version="1.0" encoding="iso-8859-1"?>
<!-- Generator: Adobe Illustrator 18.0.0, SVG Export Plug-In . SVG Version: 6.00 Build 0)  -->
<!DOCTYPE svg PUBLIC "-//W3C//DTD SVG 1.1//EN" "http://www.w3.org/Graphics/SVG/1.1/DTD/svg11.dtd">
<svg version="1.1" id="Capa_1" xmlns="http://www.w3.org/2000/svg" xmlns:xlink="http://www.w3.org/1999/xlink" x="0px" y="0px"
	 viewBox="0 0 60 60" style="enable-background:new 0 0 60 60;" xml:space="preserve">
<g>
	<path d="M59,58c-13.584,0-26.703-4.843-37-13.633V39c0-0.553-0.448-1-1-1h-5.372C6.84,27.706,2,14.576,2,1c0-0.553-0.448-1-1-1
		S0,0.447,0,1c0,13.996,4.973,27.532,14,38.17V45c0,0.553,0.448,1,1,1h5.836C31.475,55.027,44.998,60,59,60c0.552,0,1-0.447,1-1
		S59.552,58,59,58z"/>
	<path d="M58.293,13.251l-1.414-1.414l2.828-2.828C59.895,8.821,60,8.567,60,8.302s-0.105-0.52-0.293-0.707l-7.071-7.071
		c-0.391-0.391-1.023-0.391-1.414,0l-2.828,2.828l-1.414-1.414l-3.535,3.536l11.314,11.314L58.293,13.251z"/>
	<path d="M35.908,20.322c0-1.068,0.416-2.072,1.171-2.828c1.511-1.512,4.146-1.512,5.657,0c0.756,0.756,1.172,1.76,1.172,2.828
		c0,1.069-0.417,2.073-1.172,2.828c-0.755,0.756-1.76,1.172-2.828,1.172c-0.725,0-1.413-0.206-2.022-0.565l-15.16,15.16
		l31.924-6.682l-3.602-3.601c-1.087-1.087-1.686-2.532-1.686-4.07c0-1.537,0.599-2.982,1.686-4.069l2.294-2.294L42.03,6.887
		l-2.294,2.294c-1.087,1.087-2.532,1.686-4.07,1.686s-2.983-0.599-4.07-1.686l-3.602-3.601l-6.681,31.922l15.16-15.16
		C36.114,21.735,35.908,21.047,35.908,20.322z"/>
	<path d="M41.322,21.736c0.378-0.378,0.586-0.88,0.586-1.414s-0.208-1.036-0.586-1.414s-0.88-0.586-1.414-0.586
		s-1.037,0.208-1.415,0.586c-0.377,0.378-0.585,0.88-0.585,1.414s0.208,1.036,0.585,1.414C39.25,22.492,40.566,22.492,41.322,21.736
		z"/>
</g>
<g>
</g>
<g>
</g>
<g>
</g>
<g>
</g>
<g>
</g>
<g>
</g>
<g>
</g>
<g>
</g>
<g>
</g>
<g>
</g>
<g>
</g>
<g>
</g>
<g>
</g>
<g>
</g>
<g>
</g>
</svg>
