<?xml version="1.0" encoding="iso-8859-1"?>
<!-- Generator: Adobe Illustrator 18.0.0, SVG Export Plug-In . SVG Version: 6.00 Build 0)  -->
<!DOCTYPE svg PUBLIC "-//W3C//DTD SVG 1.1//EN" "http://www.w3.org/Graphics/SVG/1.1/DTD/svg11.dtd">
<svg version="1.1" id="Capa_1" xmlns="http://www.w3.org/2000/svg" xmlns:xlink="http://www.w3.org/1999/xlink" x="0px" y="0px"
	 viewBox="0 0 60 60" style="enable-background:new 0 0 60 60;" xml:space="preserve">
<g>
	<path d="M59,3H8V0H0v8h3v51c0,0.553,0.447,1,1,1s1-0.447,1-1V8h3V5h51c0.553,0,1-0.447,1-1S59.553,3,59,3z"/>
	<path d="M36.984,25.351c-0.25-0.293-0.646-0.418-1.02-0.316c-0.373,0.1-0.654,0.405-0.725,0.784l-4.224,22.873
		c-0.08,0.434,0.134,0.869,0.525,1.07c0.145,0.075,0.302,0.111,0.458,0.111c0.265,0,0.525-0.105,0.719-0.305l6.879-7.115
		l3.484,13.003c0.119,0.447,0.523,0.741,0.965,0.741c0.086,0,0.173-0.011,0.26-0.034c0.533-0.143,0.85-0.691,0.707-1.225
		l-3.484-13.003l9.514,2.722c0.425,0.117,0.877-0.051,1.116-0.421c0.239-0.371,0.206-0.854-0.08-1.19L36.984,25.351z"/>
</g>
<path d="M13,8c-2.757,0-5,2.243-5,5s2.243,5,5,5s5-2.243,5-5S15.757,8,13,8z M13,14c-0.552,0-1-0.448-1-1c0-0.552,0.448-1,1-1
	s1,0.448,1,1C14,13.552,13.552,14,13,14z"/>
<g>
</g>
<g>
</g>
<g>
</g>
<g>
</g>
<g>
</g>
<g>
</g>
<g>
</g>
<g>
</g>
<g>
</g>
<g>
</g>
<g>
</g>
<g>
</g>
<g>
</g>
<g>
</g>
<g>
</g>
</svg>
