<?xml version="1.0" encoding="iso-8859-1"?>
<!-- Generator: Adobe Illustrator 18.0.0, SVG Export Plug-In . SVG Version: 6.00 Build 0)  -->
<!DOCTYPE svg PUBLIC "-//W3C//DTD SVG 1.1//EN" "http://www.w3.org/Graphics/SVG/1.1/DTD/svg11.dtd">
<svg version="1.1" id="Capa_1" xmlns="http://www.w3.org/2000/svg" xmlns:xlink="http://www.w3.org/1999/xlink" x="0px" y="0px"
	 viewBox="0 0 56.111 56.111" style="enable-background:new 0 0 56.111 56.111;" xml:space="preserve">
<g>
	<path d="M51,11.756V6.062c0-0.553-0.447-1-1-1h-6c-0.233,0-0.438,0.092-0.608,0.226C32.759-1.491,18.869-0.051,9.848,8.97
		c-4.379,4.379-6.956,9.457-7.714,15.092H1c-0.552,0-1,0.447-1,1v6c0,0.553,0.448,1,1,1h1.162
		c0.942,5.646,3.699,11.106,7.686,15.092c5.1,5.1,11.879,7.909,19.092,7.909c7.212,0,13.992-2.81,19.092-7.909
		C57.562,37.623,58.803,22.472,51,11.756z M45,7.062h4v4h-4V7.062z M28,17.062v4h-4v-4H28z M2,26.062h4v4H2V26.062z M46.617,45.739
		c-3.008,3.008-6.648,5.151-10.62,6.313c-0.007-0.546-0.45-0.987-0.997-0.987c-0.552,0-1,0.448-1,1c0,0.167,0.051,0.318,0.124,0.456
		c-1.659,0.348-3.365,0.533-5.099,0.539C29.565,53.047,30,52.609,30,52.066c0-0.552-0.448-1-1-1s-1,0.448-1,1
		c0,0.545,0.438,0.985,0.981,0.996c-0.014,0-0.027,0.001-0.041,0.001c-1.727,0-3.426-0.177-5.079-0.517
		c0.081-0.145,0.14-0.303,0.14-0.48c0-0.552-0.448-1-1-1s-1,0.448-1,1c0,0.007,0.004,0.014,0.004,0.021
		c-2.51-0.721-4.889-1.831-7.062-3.306c-0.124-0.411-0.491-0.715-0.943-0.715c-0.016,0-0.03,0.008-0.046,0.009
		c-0.698-0.525-1.371-1.091-2.018-1.693C11.97,46.281,12,46.178,12,46.066c0-0.552-0.448-1-1-1c-0.107,0-0.204,0.03-0.3,0.061
		c-0.601-0.645-1.171-1.323-1.704-2.037C8.995,43.081,9,43.074,9,43.066c0-0.444-0.294-0.807-0.694-0.938
		c-2.041-3.009-3.47-6.487-4.115-10.066H7c0.552,0,1-0.447,1-1v-1.95l14-7.189v0.139c0,0.553,0.448,1,1,1h6c0.552,0,1-0.447,1-1
		v-4.247l13-6.676v0.923c0,0.553,0.448,1,1,1h5.47c1.759,2.454,3.003,5.185,3.737,8.046c-0.069-0.015-0.133-0.042-0.207-0.042
		c-0.552,0-1,0.448-1,1c0,0.552,0.448,1,1,1c0.23,0,0.431-0.091,0.6-0.221c0.314,1.717,0.434,3.465,0.398,5.213
		c-0.005-0.548-0.449-0.992-0.998-0.992c-0.552,0-1,0.448-1,1c0,0.552,0.448,1,1,1c0.548,0,0.991-0.442,0.998-0.988
		c-0.036,1.703-0.238,3.401-0.602,5.071c-0.122-0.053-0.255-0.083-0.396-0.083c-0.552,0-1,0.448-1,1
		c0,0.519,0.401,0.932,0.907,0.981C51.731,39.006,49.639,42.718,46.617,45.739z"/>
	<circle cx="26" cy="25.066" r="1"/>
	<circle cx="32" cy="25.066" r="1"/>
	<circle cx="44" cy="25.066" r="1"/>
	<circle cx="38" cy="19.066" r="1"/>
	<circle cx="44" cy="19.066" r="1"/>
	<circle cx="41" cy="16.066" r="1"/>
	<circle cx="35" cy="22.066" r="1"/>
	<circle cx="38" cy="25.066" r="1"/>
	<circle cx="41" cy="22.066" r="1"/>
	<circle cx="47" cy="16.066" r="1"/>
	<circle cx="47" cy="22.066" r="1"/>
	<circle cx="50" cy="25.066" r="1"/>
	<circle cx="50" cy="19.066" r="1"/>
	<circle cx="8" cy="37.066" r="1"/>
	<circle cx="20" cy="37.066" r="1"/>
	<circle cx="14" cy="31.066" r="1"/>
	<circle cx="20" cy="31.066" r="1"/>
	<circle cx="17" cy="28.066" r="1"/>
	<circle cx="11" cy="34.066" r="1"/>
	<circle cx="14" cy="37.066" r="1"/>
	<circle cx="17" cy="34.066" r="1"/>
	<circle cx="23" cy="28.066" r="1"/>
	<circle cx="26" cy="31.066" r="1"/>
	<circle cx="32" cy="31.066" r="1"/>
	<circle cx="29" cy="28.066" r="1"/>
	<circle cx="23" cy="34.066" r="1"/>
	<circle cx="26" cy="37.066" r="1"/>
	<circle cx="32" cy="37.066" r="1"/>
	<circle cx="44" cy="37.066" r="1"/>
	<circle cx="29" cy="34.066" r="1"/>
	<circle cx="35" cy="28.066" r="1"/>
	<circle cx="38" cy="31.066" r="1"/>
	<circle cx="44" cy="31.066" r="1"/>
	<circle cx="41" cy="28.066" r="1"/>
	<circle cx="35" cy="34.066" r="1"/>
	<circle cx="38" cy="37.066" r="1"/>
	<circle cx="41" cy="34.066" r="1"/>
	<circle cx="47" cy="28.066" r="1"/>
	<circle cx="47" cy="34.066" r="1"/>
	<circle cx="50" cy="37.066" r="1"/>
	<circle cx="50" cy="31.066" r="1"/>
	<circle cx="20" cy="49.066" r="1"/>
	<circle cx="11" cy="40.066" r="1"/>
	<circle cx="14" cy="43.066" r="1"/>
	<circle cx="20" cy="43.066" r="1"/>
	<circle cx="17" cy="40.066" r="1"/>
	<circle cx="17" cy="46.066" r="1"/>
	<circle cx="23" cy="40.066" r="1"/>
	<circle cx="26" cy="43.066" r="1"/>
	<circle cx="32" cy="43.066" r="1"/>
	<circle cx="29" cy="40.066" r="1"/>
	<circle cx="23" cy="46.066" r="1"/>
	<circle cx="26" cy="49.066" r="1"/>
	<circle cx="32" cy="49.066" r="1"/>
	<circle cx="29" cy="46.066" r="1"/>
	<circle cx="35" cy="40.066" r="1"/>
	<circle cx="38" cy="43.066" r="1"/>
	<circle cx="44" cy="43.066" r="1"/>
	<circle cx="41" cy="40.066" r="1"/>
	<circle cx="35" cy="46.066" r="1"/>
	<circle cx="38" cy="49.066" r="1"/>
	<circle cx="41" cy="46.066" r="1"/>
	<circle cx="47" cy="40.066" r="1"/>
</g>
<g>
</g>
<g>
</g>
<g>
</g>
<g>
</g>
<g>
</g>
<g>
</g>
<g>
</g>
<g>
</g>
<g>
</g>
<g>
</g>
<g>
</g>
<g>
</g>
<g>
</g>
<g>
</g>
<g>
</g>
</svg>
