<?xml version="1.0" encoding="iso-8859-1"?>
<!-- Generator: Adobe Illustrator 18.0.0, SVG Export Plug-In . SVG Version: 6.00 Build 0)  -->
<!DOCTYPE svg PUBLIC "-//W3C//DTD SVG 1.1//EN" "http://www.w3.org/Graphics/SVG/1.1/DTD/svg11.dtd">
<svg version="1.1" id="Capa_1" xmlns="http://www.w3.org/2000/svg" xmlns:xlink="http://www.w3.org/1999/xlink" x="0px" y="0px"
	 viewBox="0 0 60 60" style="enable-background:new 0 0 60 60;" xml:space="preserve">
<g>
	<path d="M44,16V0H0v44h16v16h44V16H44z M13,42c0-0.552-0.448-1-1-1s-1,0.448-1,1H7c0-0.552-0.448-1-1-1s-1,0.448-1,1H2v-3v-6v-6v-6
		v-6V9V3V2h1h6h6h6h6h6h6h3v3c-0.552,0-1,0.448-1,1c0,0.552,0.448,1,1,1v4c-0.552,0-1,0.448-1,1c0,0.552,0.448,1,1,1v3h-3h-6h-6h-6
		h-5v5v6v6v6v3H13z M58,21v6v6v6v6v6v6v1h-1h-6h-6h-6h-6h-6h-6h-3v-3c0.552,0,1-0.448,1-1c0-0.552-0.448-1-1-1v-4
		c0.552,0,1-0.448,1-1c0-0.552-0.448-1-1-1v-3h3h6h6h6h5v-5v-6v-6v-6v-3h3c0,0.552,0.448,1,1,1s1-0.448,1-1h4c0,0.552,0.448,1,1,1
		s1-0.448,1-1h3V21z"/>
	<circle cx="3" cy="3" r="1"/>
	<circle cx="6" cy="6" r="1"/>
	<circle cx="12" cy="6" r="1"/>
	<circle cx="9" cy="3" r="1"/>
	<circle cx="3" cy="9" r="1"/>
	<circle cx="6" cy="12" r="1"/>
	<circle cx="12" cy="12" r="1"/>
	<circle cx="24" cy="12" r="1"/>
	<circle cx="9" cy="9" r="1"/>
	<circle cx="15" cy="3" r="1"/>
	<circle cx="18" cy="6" r="1"/>
	<circle cx="24" cy="6" r="1"/>
	<circle cx="21" cy="3" r="1"/>
	<circle cx="15" cy="9" r="1"/>
	<circle cx="18" cy="12" r="1"/>
	<circle cx="21" cy="9" r="1"/>
	<circle cx="27" cy="3" r="1"/>
	<circle cx="30" cy="6" r="1"/>
	<circle cx="36" cy="6" r="1"/>
	<circle cx="33" cy="3" r="1"/>
	<circle cx="27" cy="9" r="1"/>
	<circle cx="30" cy="12" r="1"/>
	<circle cx="36" cy="12" r="1"/>
	<circle cx="33" cy="9" r="1"/>
	<circle cx="39" cy="3" r="1"/>
	<circle cx="39" cy="9" r="1"/>
	<circle cx="3" cy="15" r="1"/>
	<circle cx="6" cy="18" r="1"/>
	<circle cx="12" cy="18" r="1"/>
	<circle cx="9" cy="15" r="1"/>
	<circle cx="3" cy="21" r="1"/>
	<circle cx="6" cy="24" r="1"/>
	<circle cx="12" cy="24" r="1"/>
	<circle cx="9" cy="21" r="1"/>
	<circle cx="15" cy="15" r="1"/>
	<circle cx="21" cy="15" r="1"/>
	<circle cx="15" cy="21" r="1"/>
	<circle cx="27" cy="15" r="1"/>
	<circle cx="33" cy="15" r="1"/>
	<circle cx="48" cy="24" r="1"/>
	<circle cx="39" cy="15" r="1"/>
	<circle cx="45" cy="21" r="1"/>
	<circle cx="51" cy="21" r="1"/>
	<circle cx="54" cy="24" r="1"/>
	<circle cx="57" cy="21" r="1"/>
	<circle cx="3" cy="27" r="1"/>
	<circle cx="6" cy="30" r="1"/>
	<circle cx="12" cy="30" r="1"/>
	<circle cx="9" cy="27" r="1"/>
	<circle cx="3" cy="33" r="1"/>
	<circle cx="6" cy="36" r="1"/>
	<circle cx="12" cy="36" r="1"/>
	<circle cx="9" cy="33" r="1"/>
	<circle cx="15" cy="27" r="1"/>
	<circle cx="15" cy="33" r="1"/>
	<circle cx="48" cy="36" r="1"/>
	<circle cx="48" cy="30" r="1"/>
	<circle cx="45" cy="27" r="1"/>
	<circle cx="45" cy="33" r="1"/>
	<circle cx="51" cy="27" r="1"/>
	<circle cx="51" cy="33" r="1"/>
	<circle cx="54" cy="36" r="1"/>
	<circle cx="54" cy="30" r="1"/>
	<circle cx="57" cy="27" r="1"/>
	<circle cx="57" cy="33" r="1"/>
	<circle cx="3" cy="39" r="1"/>
	<circle cx="9" cy="39" r="1"/>
	<circle cx="24" cy="48" r="1"/>
	<circle cx="15" cy="39" r="1"/>
	<circle cx="21" cy="45" r="1"/>
	<circle cx="27" cy="45" r="1"/>
	<circle cx="30" cy="48" r="1"/>
	<circle cx="36" cy="48" r="1"/>
	<circle cx="48" cy="48" r="1"/>
	<circle cx="33" cy="45" r="1"/>
	<circle cx="48" cy="42" r="1"/>
	<circle cx="45" cy="39" r="1"/>
	<circle cx="39" cy="45" r="1"/>
	<circle cx="42" cy="48" r="1"/>
	<circle cx="45" cy="45" r="1"/>
	<circle cx="51" cy="39" r="1"/>
	<circle cx="51" cy="45" r="1"/>
	<circle cx="54" cy="48" r="1"/>
	<circle cx="54" cy="42" r="1"/>
	<circle cx="57" cy="39" r="1"/>
	<circle cx="57" cy="45" r="1"/>
	<circle cx="24" cy="54" r="1"/>
	<circle cx="21" cy="51" r="1"/>
	<circle cx="21" cy="57" r="1"/>
	<circle cx="27" cy="51" r="1"/>
	<circle cx="30" cy="54" r="1"/>
	<circle cx="36" cy="54" r="1"/>
	<circle cx="33" cy="51" r="1"/>
	<circle cx="27" cy="57" r="1"/>
	<circle cx="33" cy="57" r="1"/>
	<circle cx="39" cy="51" r="1"/>
	<circle cx="42" cy="54" r="1"/>
	<circle cx="48" cy="54" r="1"/>
	<circle cx="45" cy="51" r="1"/>
	<circle cx="39" cy="57" r="1"/>
	<circle cx="45" cy="57" r="1"/>
	<circle cx="51" cy="51" r="1"/>
	<circle cx="51" cy="57" r="1"/>
	<circle cx="54" cy="54" r="1"/>
	<circle cx="57" cy="51" r="1"/>
	<circle cx="57" cy="57" r="1"/>
</g>
<g>
</g>
<g>
</g>
<g>
</g>
<g>
</g>
<g>
</g>
<g>
</g>
<g>
</g>
<g>
</g>
<g>
</g>
<g>
</g>
<g>
</g>
<g>
</g>
<g>
</g>
<g>
</g>
<g>
</g>
</svg>
