<?xml version="1.0" encoding="iso-8859-1"?>
<!-- Generator: Adobe Illustrator 18.0.0, SVG Export Plug-In . SVG Version: 6.00 Build 0)  -->
<!DOCTYPE svg PUBLIC "-//W3C//DTD SVG 1.1//EN" "http://www.w3.org/Graphics/SVG/1.1/DTD/svg11.dtd">
<svg version="1.1" id="Capa_1" xmlns="http://www.w3.org/2000/svg" xmlns:xlink="http://www.w3.org/1999/xlink" x="0px" y="0px"
	 viewBox="0 0 57.142 57.142" style="enable-background:new 0 0 57.142 57.142;" xml:space="preserve">
<path d="M55.271,10.403c2.243-2.245,2.497-5.845,0.578-8.196C54.704,0.805,53.007,0,51.194,0c-1.606,0-3.112,0.622-4.242,1.751
	l-5.295,5.296c-1.119,1.119-3.069,1.119-4.187,0l-0.583-0.583c-0.837-0.836-2.294-0.838-3.135,0.001l-3.936,3.937
	c-0.863,0.863-0.864,2.27,0,3.135l1.968,1.968L10.684,36.605c-1.562,1.562-2.727,3.501-3.395,5.688
	c-0.549,1.796-1.541,3.448-2.871,4.779l-4.413,4.413l5.656,5.656l4.375-4.374c1.352-1.353,3.035-2.354,4.87-2.898
	c2.151-0.64,4.127-1.815,5.715-3.402l21.063-21.063l1.968,1.968c0.419,0.419,0.976,0.649,1.568,0.649
	c0.592,0,1.148-0.23,1.567-0.649l3.936-3.936c0.419-0.419,0.65-0.977,0.649-1.569c0-0.592-0.231-1.148-0.649-1.565l-0.582-0.582
	c-1.153-1.154-1.153-3.032,0-4.187L55.271,10.403z M18.854,36.707c-0.39,0.391-1.024,0.391-1.414,0c-0.391-0.39-0.391-1.024,0-1.414
	c0.39-0.391,1.024-0.391,1.414,0C19.245,35.683,19.245,36.317,18.854,36.707z M31.854,23.707l-9.899,9.899
	c-0.195,0.195-0.451,0.293-0.707,0.293s-0.512-0.098-0.707-0.293c-0.391-0.391-0.391-1.023,0-1.414l9.899-9.899
	c0.391-0.391,1.023-0.391,1.414,0S32.245,23.316,31.854,23.707z"/>
<g>
</g>
<g>
</g>
<g>
</g>
<g>
</g>
<g>
</g>
<g>
</g>
<g>
</g>
<g>
</g>
<g>
</g>
<g>
</g>
<g>
</g>
<g>
</g>
<g>
</g>
<g>
</g>
<g>
</g>
</svg>
