<?xml version="1.0" encoding="iso-8859-1"?>
<!-- Generator: Adobe Illustrator 18.0.0, SVG Export Plug-In . SVG Version: 6.00 Build 0)  -->
<!DOCTYPE svg PUBLIC "-//W3C//DTD SVG 1.1//EN" "http://www.w3.org/Graphics/SVG/1.1/DTD/svg11.dtd">
<svg version="1.1" id="Capa_1" xmlns="http://www.w3.org/2000/svg" xmlns:xlink="http://www.w3.org/1999/xlink" x="0px" y="0px"
	 viewBox="0 0 60 60" style="enable-background:new 0 0 60 60;" xml:space="preserve">
<g>
	<path d="M47.843,44.41c0.014-0.054,0.02-0.11,0.032-0.165c0.015-0.065,0.026-0.129,0.038-0.195C47.965,43.767,48,43.481,48,43.19
		v-1.034v-4.022v-2.011V32.1v-2.011v-4.022v-2.011v-4.022v-2.011V14c0.553,0,1-0.448,1-1s-0.447-1-1-1V4.81
		C48,2.158,45.843,0,43.19,0H4.81C2.157,0,0,2.158,0,4.81v38.38C0,45.842,2.157,48,4.81,48H12c0,0.552,0.447,1,1,1s1-0.448,1-1
		h4.033h2.011h4.022h2.012H30.1h2.012h4.021h2.012h4.022h1.023c0.292,0,0.579-0.036,0.864-0.087
		c0.064-0.012,0.128-0.023,0.191-0.037c0.059-0.013,0.119-0.019,0.178-0.035c0.042-0.011,0.073-0.039,0.112-0.055
		c1.562-0.459,2.785-1.679,3.247-3.24C47.802,44.499,47.83,44.459,47.843,44.41z M44,7c0.552,0,1,0.448,1,1c0,0.552-0.448,1-1,1
		s-1-0.448-1-1C43,7.448,43.448,7,44,7z M44,13c0.552,0,1,0.448,1,1c0,0.552-0.448,1-1,1s-1-0.448-1-1C43,13.448,43.448,13,44,13z
		 M44,19c0.552,0,1,0.448,1,1c0,0.552-0.448,1-1,1s-1-0.448-1-1C43,19.448,43.448,19,44,19z M44,25c0.552,0,1,0.448,1,1
		c0,0.552-0.448,1-1,1s-1-0.448-1-1C43,25.448,43.448,25,44,25z M44,31c0.552,0,1,0.448,1,1c0,0.552-0.448,1-1,1s-1-0.448-1-1
		C43,31.448,43.448,31,44,31z M44,37c0.552,0,1,0.448,1,1c0,0.552-0.448,1-1,1s-1-0.448-1-1C43,37.448,43.448,37,44,37z M44,43
		c0.552,0,1,0.448,1,1c0,0.552-0.448,1-1,1s-1-0.448-1-1C43,43.448,43.448,43,44,43z M41,4c0.552,0,1,0.448,1,1c0,0.552-0.448,1-1,1
		s-1-0.448-1-1C40,4.448,40.448,4,41,4z M41,10c0.552,0,1,0.448,1,1c0,0.552-0.448,1-1,1s-1-0.448-1-1C40,10.448,40.448,10,41,10z
		 M41,16c0.552,0,1,0.448,1,1c0,0.552-0.448,1-1,1s-1-0.448-1-1C40,16.448,40.448,16,41,16z M41,22c0.552,0,1,0.448,1,1
		c0,0.552-0.448,1-1,1s-1-0.448-1-1C40,22.448,40.448,22,41,22z M41,28c0.552,0,1,0.448,1,1c0,0.552-0.448,1-1,1s-1-0.448-1-1
		C40,28.448,40.448,28,41,28z M41,34c0.552,0,1,0.448,1,1c0,0.552-0.448,1-1,1s-1-0.448-1-1C40,34.448,40.448,34,41,34z M38,7
		c0.552,0,1,0.448,1,1c0,0.552-0.448,1-1,1s-1-0.448-1-1C37,7.448,37.448,7,38,7z M38,13c0.552,0,1,0.448,1,1c0,0.552-0.448,1-1,1
		s-1-0.448-1-1C37,13.448,37.448,13,38,13z M38,19c0.552,0,1,0.448,1,1c0,0.552-0.448,1-1,1s-1-0.448-1-1C37,19.448,37.448,19,38,19
		z M38,25c0.552,0,1,0.448,1,1c0,0.552-0.448,1-1,1s-1-0.448-1-1C37,25.448,37.448,25,38,25z M38,31c0.552,0,1,0.448,1,1
		c0,0.552-0.448,1-1,1s-1-0.448-1-1C37,31.448,37.448,31,38,31z M38,37c0.552,0,1,0.448,1,1c0,0.552-0.448,1-1,1s-1-0.448-1-1
		C37,37.448,37.448,37,38,37z M38,43c0.552,0,1,0.448,1,1c0,0.552-0.448,1-1,1s-1-0.448-1-1C37,43.448,37.448,43,38,43z M35,4
		c0.552,0,1,0.448,1,1c0,0.552-0.448,1-1,1s-1-0.448-1-1C34,4.448,34.448,4,35,4z M35,10c0.552,0,1,0.448,1,1c0,0.552-0.448,1-1,1
		s-1-0.448-1-1C34,10.448,34.448,10,35,10z M35,16c0.552,0,1,0.448,1,1c0,0.552-0.448,1-1,1s-1-0.448-1-1C34,16.448,34.448,16,35,16
		z M35,22c0.552,0,1,0.448,1,1c0,0.552-0.448,1-1,1s-1-0.448-1-1C34,22.448,34.448,22,35,22z M35,28c0.552,0,1,0.448,1,1
		c0,0.552-0.448,1-1,1s-1-0.448-1-1C34,28.448,34.448,28,35,28z M35,34c0.552,0,1,0.448,1,1c0,0.552-0.448,1-1,1s-1-0.448-1-1
		C34,34.448,34.448,34,35,34z M32,7c0.552,0,1,0.448,1,1c0,0.552-0.448,1-1,1s-1-0.448-1-1C31,7.448,31.448,7,32,7z M32,13
		c0.552,0,1,0.448,1,1c0,0.552-0.448,1-1,1s-1-0.448-1-1C31,13.448,31.448,13,32,13z M32,19c0.552,0,1,0.448,1,1
		c0,0.552-0.448,1-1,1s-1-0.448-1-1C31,19.448,31.448,19,32,19z M32,25c0.552,0,1,0.448,1,1c0,0.552-0.448,1-1,1s-1-0.448-1-1
		C31,25.448,31.448,25,32,25z M32,31c0.552,0,1,0.448,1,1c0,0.552-0.448,1-1,1s-1-0.448-1-1C31,31.448,31.448,31,32,31z M32,37
		c0.552,0,1,0.448,1,1c0,0.552-0.448,1-1,1s-1-0.448-1-1C31,37.448,31.448,37,32,37z M32,43c0.552,0,1,0.448,1,1
		c0,0.552-0.448,1-1,1s-1-0.448-1-1C31,43.448,31.448,43,32,43z M29,4c0.552,0,1,0.448,1,1c0,0.552-0.448,1-1,1s-1-0.448-1-1
		C28,4.448,28.448,4,29,4z M29,10c0.552,0,1,0.448,1,1c0,0.552-0.448,1-1,1s-1-0.448-1-1C28,10.448,28.448,10,29,10z M29,16
		c0.552,0,1,0.448,1,1c0,0.552-0.448,1-1,1s-1-0.448-1-1C28,16.448,28.448,16,29,16z M29,22c0.552,0,1,0.448,1,1
		c0,0.552-0.448,1-1,1s-1-0.448-1-1C28,22.448,28.448,22,29,22z M29,28c0.552,0,1,0.448,1,1c0,0.552-0.448,1-1,1s-1-0.448-1-1
		C28,28.448,28.448,28,29,28z M29,34c0.552,0,1,0.448,1,1c0,0.552-0.448,1-1,1s-1-0.448-1-1C28,34.448,28.448,34,29,34z M26,7
		c0.552,0,1,0.448,1,1c0,0.552-0.448,1-1,1s-1-0.448-1-1C25,7.448,25.448,7,26,7z M26,13c0.552,0,1,0.448,1,1c0,0.552-0.448,1-1,1
		s-1-0.448-1-1C25,13.448,25.448,13,26,13z M26,19c0.552,0,1,0.448,1,1c0,0.552-0.448,1-1,1s-1-0.448-1-1C25,19.448,25.448,19,26,19
		z M26,25c0.552,0,1,0.448,1,1c0,0.552-0.448,1-1,1s-1-0.448-1-1C25,25.448,25.448,25,26,25z M26,31c0.552,0,1,0.448,1,1
		c0,0.552-0.448,1-1,1s-1-0.448-1-1C25,31.448,25.448,31,26,31z M26,37c0.552,0,1,0.448,1,1c0,0.552-0.448,1-1,1s-1-0.448-1-1
		C25,37.448,25.448,37,26,37z M26,43c0.552,0,1,0.448,1,1c0,0.552-0.448,1-1,1s-1-0.448-1-1C25,43.448,25.448,43,26,43z M23,4
		c0.552,0,1,0.448,1,1c0,0.552-0.448,1-1,1s-1-0.448-1-1C22,4.448,22.448,4,23,4z M23,10c0.552,0,1,0.448,1,1c0,0.552-0.448,1-1,1
		s-1-0.448-1-1C22,10.448,22.448,10,23,10z M23,16c0.552,0,1,0.448,1,1c0,0.552-0.448,1-1,1s-1-0.448-1-1C22,16.448,22.448,16,23,16
		z M23,22c0.552,0,1,0.448,1,1c0,0.552-0.448,1-1,1s-1-0.448-1-1C22,22.448,22.448,22,23,22z M23,28c0.552,0,1,0.448,1,1
		c0,0.552-0.448,1-1,1s-1-0.448-1-1C22,28.448,22.448,28,23,28z M23,34c0.552,0,1,0.448,1,1c0,0.552-0.448,1-1,1s-1-0.448-1-1
		C22,34.448,22.448,34,23,34z M20,7c0.552,0,1,0.448,1,1c0,0.552-0.448,1-1,1s-1-0.448-1-1C19,7.448,19.448,7,20,7z M20,13
		c0.552,0,1,0.448,1,1c0,0.552-0.448,1-1,1s-1-0.448-1-1C19,13.448,19.448,13,20,13z M20,19c0.552,0,1,0.448,1,1
		c0,0.552-0.448,1-1,1s-1-0.448-1-1C19,19.448,19.448,19,20,19z M20,25c0.552,0,1,0.448,1,1c0,0.552-0.448,1-1,1s-1-0.448-1-1
		C19,25.448,19.448,25,20,25z M20,31c0.552,0,1,0.448,1,1c0,0.552-0.448,1-1,1s-1-0.448-1-1C19,31.448,19.448,31,20,31z M20,37
		c0.552,0,1,0.448,1,1c0,0.552-0.448,1-1,1s-1-0.448-1-1C19,37.448,19.448,37,20,37z M20,43c0.552,0,1,0.448,1,1
		c0,0.552-0.448,1-1,1s-1-0.448-1-1C19,43.448,19.448,43,20,43z M17,4c0.552,0,1,0.448,1,1c0,0.552-0.448,1-1,1s-1-0.448-1-1
		C16,4.448,16.448,4,17,4z M17,10c0.552,0,1,0.448,1,1c0,0.552-0.448,1-1,1s-1-0.448-1-1C16,10.448,16.448,10,17,10z M17,16
		c0.552,0,1,0.448,1,1c0,0.552-0.448,1-1,1s-1-0.448-1-1C16,16.448,16.448,16,17,16z M17,22c0.552,0,1,0.448,1,1
		c0,0.552-0.448,1-1,1s-1-0.448-1-1C16,22.448,16.448,22,17,22z M17,28c0.552,0,1,0.448,1,1c0,0.552-0.448,1-1,1s-1-0.448-1-1
		C16,28.448,16.448,28,17,28z M17,34c0.552,0,1,0.448,1,1c0,0.552-0.448,1-1,1s-1-0.448-1-1C16,34.448,16.448,34,17,34z M11,4
		c0.552,0,1,0.448,1,1c0,0.552-0.448,1-1,1s-1-0.448-1-1C10,4.448,10.448,4,11,4z M11,10c0.552,0,1,0.448,1,1c0,0.552-0.448,1-1,1
		s-1-0.448-1-1C10,10.448,10.448,10,11,10z M11,16c0.552,0,1,0.448,1,1c0,0.552-0.448,1-1,1s-1-0.448-1-1C10,16.448,10.448,16,11,16
		z M11,22c0.552,0,1,0.448,1,1c0,0.552-0.448,1-1,1s-1-0.448-1-1C10,22.448,10.448,22,11,22z M11,28c0.552,0,1,0.448,1,1
		c0,0.552-0.448,1-1,1s-1-0.448-1-1C10,28.448,10.448,28,11,28z M11,34c0.552,0,1,0.448,1,1c0,0.552-0.448,1-1,1s-1-0.448-1-1
		C10,34.448,10.448,34,11,34z M5,42c-0.552,0-1-0.448-1-1c0-0.552,0.448-1,1-1s1,0.448,1,1C6,41.552,5.552,42,5,42z M5,36
		c-0.552,0-1-0.448-1-1c0-0.552,0.448-1,1-1s1,0.448,1,1C6,35.552,5.552,36,5,36z M5,30c-0.552,0-1-0.448-1-1c0-0.552,0.448-1,1-1
		s1,0.448,1,1C6,29.552,5.552,30,5,30z M5,24c-0.552,0-1-0.448-1-1c0-0.552,0.448-1,1-1s1,0.448,1,1C6,23.552,5.552,24,5,24z M5,18
		c-0.552,0-1-0.448-1-1c0-0.552,0.448-1,1-1s1,0.448,1,1C6,17.552,5.552,18,5,18z M5,12c-0.552,0-1-0.448-1-1c0-0.552,0.448-1,1-1
		s1,0.448,1,1C6,11.552,5.552,12,5,12z M5,6C4.448,6,4,5.552,4,5c0-0.552,0.448-1,1-1s1,0.448,1,1C6,5.552,5.552,6,5,6z M8,45
		c-0.552,0-1-0.448-1-1c0-0.552,0.448-1,1-1s1,0.448,1,1C9,44.552,8.552,45,8,45z M8,39c-0.552,0-1-0.448-1-1c0-0.552,0.448-1,1-1
		s1,0.448,1,1C9,38.552,8.552,39,8,39z M8,33c-0.552,0-1-0.448-1-1c0-0.552,0.448-1,1-1s1,0.448,1,1C9,32.552,8.552,33,8,33z M8,27
		c-0.552,0-1-0.448-1-1c0-0.552,0.448-1,1-1s1,0.448,1,1C9,26.552,8.552,27,8,27z M8,21c-0.552,0-1-0.448-1-1c0-0.552,0.448-1,1-1
		s1,0.448,1,1C9,20.552,8.552,21,8,21z M8,15c-0.552,0-1-0.448-1-1c0-0.552,0.448-1,1-1s1,0.448,1,1C9,14.552,8.552,15,8,15z M8,9
		C7.448,9,7,8.552,7,8c0-0.552,0.448-1,1-1s1,0.448,1,1C9,8.552,8.552,9,8,9z M11,42c-0.552,0-1-0.448-1-1c0-0.552,0.448-1,1-1
		s1,0.448,1,1C12,41.552,11.552,42,11,42z M14,45c-0.552,0-1-0.448-1-1c0-0.552,0.448-1,1-1s1,0.448,1,1C15,44.552,14.552,45,14,45z
		 M14,39c-0.552,0-1-0.448-1-1c0-0.552,0.448-1,1-1s1,0.448,1,1C15,38.552,14.552,39,14,39z M14,33c-0.552,0-1-0.448-1-1
		c0-0.552,0.448-1,1-1s1,0.448,1,1C15,32.552,14.552,33,14,33z M14,27c-0.552,0-1-0.448-1-1c0-0.552,0.448-1,1-1s1,0.448,1,1
		C15,26.552,14.552,27,14,27z M14,21c-0.552,0-1-0.448-1-1c0-0.552,0.448-1,1-1s1,0.448,1,1C15,20.552,14.552,21,14,21z M14,15
		c-0.552,0-1-0.448-1-1c0-0.552,0.448-1,1-1s1,0.448,1,1C15,14.552,14.552,15,14,15z M14,9c-0.552,0-1-0.448-1-1
		c0-0.552,0.448-1,1-1s1,0.448,1,1C15,8.552,14.552,9,14,9z M16,41c0-0.552,0.448-1,1-1s1,0.448,1,1c0,0.552-0.448,1-1,1
		S16,41.552,16,41z M22,41c0-0.552,0.448-1,1-1s1,0.448,1,1c0,0.552-0.448,1-1,1S22,41.552,22,41z M28,41c0-0.552,0.448-1,1-1
		s1,0.448,1,1c0,0.552-0.448,1-1,1S28,41.552,28,41z M34,41c0-0.552,0.448-1,1-1s1,0.448,1,1c0,0.552-0.448,1-1,1S34,41.552,34,41z
		 M40,41c0-0.552,0.448-1,1-1s1,0.448,1,1c0,0.552-0.448,1-1,1S40,41.552,40,41z"/>
	<path d="M32.848,58h-1.948c-0.553,0-1,0.448-1,1s0.447,1,1,1h1.948c0.553,0,1-0.448,1-1S33.4,58,32.848,58z"/>
	<path d="M44.533,58h-1.947c-0.553,0-1,0.448-1,1s0.447,1,1,1h1.947c0.553,0,1-0.448,1-1S45.086,58,44.533,58z"/>
	<path d="M59,18.248c-0.553,0-1,0.448-1,1v1.948c0,0.552,0.447,1,1,1s1-0.448,1-1v-1.948C60,18.695,59.553,18.248,59,18.248z"/>
	<path d="M38.69,58h-1.947c-0.553,0-1,0.448-1,1s0.447,1,1,1h1.947c0.553,0,1-0.448,1-1S39.243,58,38.69,58z"/>
	<path d="M59,24.09c-0.553,0-1,0.448-1,1v1.948c0,0.552,0.447,1,1,1s1-0.448,1-1V25.09C60,24.538,59.553,24.09,59,24.09z"/>
	<path d="M14,53.843v-1.948c0-0.552-0.447-1-1-1s-1,0.448-1,1v1.948c0,0.552,0.447,1,1,1S14,54.396,14,53.843z"/>
	<path d="M27.005,58h-1.948c-0.553,0-1,0.448-1,1s0.447,1,1,1h1.948c0.553,0,1-0.448,1-1S27.558,58,27.005,58z"/>
	<path d="M15.739,57.789c-0.443-0.183-0.836-0.479-1.135-0.857c-0.341-0.432-0.97-0.506-1.404-0.165
		c-0.434,0.343-0.507,0.972-0.164,1.405c0.51,0.646,1.181,1.152,1.939,1.466c0.125,0.052,0.254,0.076,0.382,0.076
		c0.393,0,0.765-0.233,0.924-0.619C16.492,58.585,16.25,58,15.739,57.789z"/>
	<path d="M21.161,58h-1.947c-0.553,0-1,0.448-1,1s0.447,1,1,1h1.947c0.553,0,1-0.448,1-1S21.714,58,21.161,58z"/>
	<path d="M55.942,57.899C55.698,57.966,55.444,58,55.19,58h-0.919c-0.553,0-1,0.448-1,1s0.447,1,1,1h0.919
		c0.433,0,0.864-0.058,1.281-0.172c0.532-0.146,0.846-0.696,0.7-1.229C57.025,58.066,56.474,57.752,55.942,57.899z"/>
	<path d="M59,29.933c-0.553,0-1,0.448-1,1v1.948c0,0.552,0.447,1,1,1s1-0.448,1-1v-1.948C60,30.381,59.553,29.933,59,29.933z"/>
	<path d="M54.876,13c0-0.552-0.447-1-1-1h-1.947c-0.553,0-1,0.448-1,1s0.447,1,1,1h1.947C54.429,14,54.876,13.552,54.876,13z"/>
	<path d="M50.376,58h-1.947c-0.553,0-1,0.448-1,1s0.447,1,1,1h1.947c0.553,0,1-0.448,1-1S50.929,58,50.376,58z"/>
	<path d="M58.726,16.388c0.125,0,0.251-0.023,0.373-0.073c0.513-0.206,0.761-0.789,0.555-1.301c-0.306-0.76-0.807-1.436-1.447-1.952
		c-0.433-0.348-1.061-0.279-1.406,0.151c-0.347,0.43-0.279,1.059,0.15,1.406c0.376,0.303,0.669,0.698,0.848,1.142
		C57.955,16.151,58.33,16.388,58.726,16.388z"/>
	<path d="M59,53.305c-0.553,0-1,0.448-1,1v0.885c0,0.264-0.036,0.525-0.107,0.775c-0.151,0.531,0.157,1.084,0.688,1.235
		c0.091,0.026,0.184,0.039,0.274,0.039c0.436,0,0.836-0.287,0.961-0.727C59.938,56.084,60,55.639,60,55.19v-0.885
		C60,53.753,59.553,53.305,59,53.305z"/>
	<path d="M59,35.776c-0.553,0-1,0.448-1,1v1.948c0,0.552,0.447,1,1,1s1-0.448,1-1v-1.948C60,36.224,59.553,35.776,59,35.776z"/>
	<path d="M59,41.619c-0.553,0-1,0.448-1,1v1.948c0,0.552,0.447,1,1,1s1-0.448,1-1v-1.948C60,42.067,59.553,41.619,59,41.619z"/>
	<path d="M59,47.462c-0.553,0-1,0.448-1,1v1.948c0,0.552,0.447,1,1,1s1-0.448,1-1v-1.948C60,47.91,59.553,47.462,59,47.462z"/>
</g>
<g>
</g>
<g>
</g>
<g>
</g>
<g>
</g>
<g>
</g>
<g>
</g>
<g>
</g>
<g>
</g>
<g>
</g>
<g>
</g>
<g>
</g>
<g>
</g>
<g>
</g>
<g>
</g>
<g>
</g>
</svg>
