<?xml version="1.0" encoding="iso-8859-1"?>
<!-- Generator: Adobe Illustrator 18.0.0, SVG Export Plug-In . SVG Version: 6.00 Build 0)  -->
<!DOCTYPE svg PUBLIC "-//W3C//DTD SVG 1.1//EN" "http://www.w3.org/Graphics/SVG/1.1/DTD/svg11.dtd">
<svg version="1.1" id="Capa_1" xmlns="http://www.w3.org/2000/svg" xmlns:xlink="http://www.w3.org/1999/xlink" x="0px" y="0px"
	 viewBox="0 0 60 60" style="enable-background:new 0 0 60 60;" xml:space="preserve">
<g>
	<path d="M2.5,41H2c-1.104,0-2-0.896-2-2v-0.5c0-1.104,0.896-2,2-2c0.68,0,1.28,0.34,1.642,0.858C4.16,37.72,4.5,38.32,4.5,39
		C4.5,40.104,3.604,41,2.5,41z"/>
	<path d="M2,35.4c-1.104,0-2-0.896-2-2v-0.85c0-1.104,0.896-2,2-2s2,0.896,2,2v0.85C4,34.505,3.104,35.4,2,35.4z M2,29.45
		c-1.104,0-2-0.896-2-2v-0.85c0-1.104,0.896-2,2-2s2,0.896,2,2v0.85C4,28.555,3.104,29.45,2,29.45z"/>
	<path d="M2,23.5c-1.104,0-2-0.896-2-2V21c0-1.104,0.896-2,2-2h0.5c1.104,0,2,0.896,2,2c0,0.68-0.34,1.28-0.858,1.642
		C3.28,23.16,2.68,23.5,2,23.5z"/>
	<path d="M51.5,23h-1c-1.104,0-2-0.896-2-2s0.896-2,2-2h1c1.104,0,2,0.896,2,2S52.604,23,51.5,23z M44.5,23h-1c-1.104,0-2-0.896-2-2
		s0.896-2,2-2h1c1.104,0,2,0.896,2,2S45.604,23,44.5,23z M37.5,23h-1c-1.104,0-2-0.896-2-2s0.896-2,2-2h1c1.104,0,2,0.896,2,2
		S38.604,23,37.5,23z M30.5,23h-1c-1.104,0-2-0.896-2-2s0.896-2,2-2h1c1.104,0,2,0.896,2,2S31.604,23,30.5,23z M23.5,23h-1
		c-1.104,0-2-0.896-2-2s0.896-2,2-2h1c1.104,0,2,0.896,2,2S24.604,23,23.5,23z M16.5,23h-1c-1.104,0-2-0.896-2-2s0.896-2,2-2h1
		c1.104,0,2,0.896,2,2S17.604,23,16.5,23z M9.5,23h-1c-1.104,0-2-0.896-2-2s0.896-2,2-2h1c1.104,0,2,0.896,2,2S10.604,23,9.5,23z"/>
	<path d="M58,23.5c-0.68,0-1.28-0.34-1.642-0.858C55.84,22.28,55.5,21.68,55.5,21c0-1.104,0.896-2,2-2H58c1.104,0,2,0.896,2,2v0.5
		C60,22.604,59.104,23.5,58,23.5z"/>
	<path d="M58,35.399c-1.104,0-2-0.896-2-2v-0.85c0-1.104,0.896-2,2-2s2,0.896,2,2v0.85C60,34.504,59.104,35.399,58,35.399z
		 M58,29.449c-1.104,0-2-0.896-2-2V26.6c0-1.104,0.896-2,2-2s2,0.896,2,2v0.85C60,28.554,59.104,29.449,58,29.449z"/>
	<path d="M58,41h-0.5c-1.104,0-2-0.896-2-2c0-0.68,0.34-1.28,0.858-1.642C56.72,36.84,57.32,36.5,58,36.5c1.104,0,2,0.896,2,2V39
		C60,40.104,59.104,41,58,41z"/>
	<path d="M51.5,41h-1c-1.104,0-2-0.896-2-2s0.896-2,2-2h1c1.104,0,2,0.896,2,2S52.604,41,51.5,41z M44.5,41h-1c-1.104,0-2-0.896-2-2
		s0.896-2,2-2h1c1.104,0,2,0.896,2,2S45.604,41,44.5,41z M37.5,41h-1c-1.104,0-2-0.896-2-2s0.896-2,2-2h1c1.104,0,2,0.896,2,2
		S38.604,41,37.5,41z M30.5,41h-1c-1.104,0-2-0.896-2-2s0.896-2,2-2h1c1.104,0,2,0.896,2,2S31.604,41,30.5,41z M23.5,41h-1
		c-1.104,0-2-0.896-2-2s0.896-2,2-2h1c1.104,0,2,0.896,2,2S24.604,41,23.5,41z M16.5,41h-1c-1.104,0-2-0.896-2-2s0.896-2,2-2h1
		c1.104,0,2,0.896,2,2S17.604,41,16.5,41z M9.5,41h-1c-1.104,0-2-0.896-2-2s0.896-2,2-2h1c1.104,0,2,0.896,2,2S10.604,41,9.5,41z"/>
</g>
<g>
</g>
<g>
</g>
<g>
</g>
<g>
</g>
<g>
</g>
<g>
</g>
<g>
</g>
<g>
</g>
<g>
</g>
<g>
</g>
<g>
</g>
<g>
</g>
<g>
</g>
<g>
</g>
<g>
</g>
</svg>
