<?xml version="1.0" encoding="iso-8859-1"?>
<!-- Generator: Adobe Illustrator 18.0.0, SVG Export Plug-In . SVG Version: 6.00 Build 0)  -->
<!DOCTYPE svg PUBLIC "-//W3C//DTD SVG 1.1//EN" "http://www.w3.org/Graphics/SVG/1.1/DTD/svg11.dtd">
<svg version="1.1" id="Capa_1" xmlns="http://www.w3.org/2000/svg" xmlns:xlink="http://www.w3.org/1999/xlink" x="0px" y="0px"
	 viewBox="0 0 60 60" style="enable-background:new 0 0 60 60;" xml:space="preserve">
<path d="M59,16c0.552,0,1-0.447,1-1V1c0-0.553-0.448-1-1-1H1C0.448,0,0,0.447,0,1v14c0,0.553,0.448,1,1,1h21v5H1
	c-0.552,0-1,0.447-1,1v14c0,0.553,0.448,1,1,1h21v5h-8c-0.404,0-0.769,0.243-0.924,0.617s-0.069,0.804,0.217,1.09l16,16
	C29.488,59.902,29.744,60,30,60s0.512-0.098,0.707-0.293l16-16c0.286-0.286,0.372-0.716,0.217-1.09S46.404,42,46,42h-8v-5h21
	c0.552,0,1-0.447,1-1V22c0-0.553-0.448-1-1-1H38v-5H59z M43.586,44L30,57.586L16.414,44H23c0.552,0,1-0.447,1-1v-6h12v6
	c0,0.553,0.448,1,1,1H43.586z M37,14c-0.552,0-1,0.447-1,1v6H24v-6c0-0.553-0.448-1-1-1H2V2h56v12H37z"/>
<g>
</g>
<g>
</g>
<g>
</g>
<g>
</g>
<g>
</g>
<g>
</g>
<g>
</g>
<g>
</g>
<g>
</g>
<g>
</g>
<g>
</g>
<g>
</g>
<g>
</g>
<g>
</g>
<g>
</g>
</svg>
