<?xml version="1.0" encoding="iso-8859-1"?>
<!-- Generator: Adobe Illustrator 18.0.0, SVG Export Plug-In . SVG Version: 6.00 Build 0)  -->
<!DOCTYPE svg PUBLIC "-//W3C//DTD SVG 1.1//EN" "http://www.w3.org/Graphics/SVG/1.1/DTD/svg11.dtd">
<svg version="1.1" id="Capa_1" xmlns="http://www.w3.org/2000/svg" xmlns:xlink="http://www.w3.org/1999/xlink" x="0px" y="0px"
	 viewBox="0 0 60 60" style="enable-background:new 0 0 60 60;" xml:space="preserve">
<path d="M59,39c0.553,0,1-0.447,1-1V24c0-0.553-0.447-1-1-1H38v-5h8c0.003,0,0.007,0,0.01,0c0.602,0.022,1.01-0.444,1.01-1
	c0-0.337-0.166-0.635-0.421-0.816L30.707,0.293c-0.391-0.391-1.023-0.391-1.414,0l-16,16c-0.286,0.286-0.372,0.716-0.217,1.09
	S13.596,18,14,18h8v5H1c-0.552,0-1,0.447-1,1v14c0,0.553,0.448,1,1,1h21v5H1c-0.552,0-1,0.447-1,1v14c0,0.553,0.448,1,1,1h58
	c0.553,0,1-0.447,1-1V45c0-0.553-0.447-1-1-1H38v-5H59z M58,46v12H2V46h21c0.552,0,1-0.447,1-1v-7V24v-7c0-0.553-0.448-1-1-1h-6.586
	L30,2.414L43.586,16H37c-0.552,0-1,0.447-1,1v7v14v7c0,0.553,0.448,1,1,1H58z"/>
<g>
</g>
<g>
</g>
<g>
</g>
<g>
</g>
<g>
</g>
<g>
</g>
<g>
</g>
<g>
</g>
<g>
</g>
<g>
</g>
<g>
</g>
<g>
</g>
<g>
</g>
<g>
</g>
<g>
</g>
</svg>
