<?xml version="1.0" encoding="iso-8859-1"?>
<!-- Generator: Adobe Illustrator 18.0.0, SVG Export Plug-In . SVG Version: 6.00 Build 0)  -->
<!DOCTYPE svg PUBLIC "-//W3C//DTD SVG 1.1//EN" "http://www.w3.org/Graphics/SVG/1.1/DTD/svg11.dtd">
<svg version="1.1" id="Capa_1" xmlns="http://www.w3.org/2000/svg" xmlns:xlink="http://www.w3.org/1999/xlink" x="0px" y="0px"
	 viewBox="0 0 60 60" style="enable-background:new 0 0 60 60;" xml:space="preserve">
<g>
	<path d="M44.552,39.696C43.12,34.513,38.369,30.894,33,30.894s-10.12,3.619-11.553,8.8c-0.314,1.133-1.263,1.967-2.395,2.158
		C19.027,42.198,19,42.543,19,42.894c0,7.72,6.28,14,14,14s14-6.28,14-14c0-0.352-0.027-0.697-0.053-1.042
		C45.816,41.661,44.867,40.828,44.552,39.696z"/>
	<path d="M19.519,39.161c1.426-5.156,5.672-8.975,10.776-9.99C30.111,28.782,30,28.353,30,27.894V17.519L22.054,3.614
		c-0.178-0.312-0.492-0.543-0.868-0.504c-0.356,0-0.686,0.19-0.865,0.498L0.135,38.392c-0.179,0.31-0.18,0.691-0.001,1.001
		c0.178,0.31,0.509,0.501,0.866,0.501h17.556C19.005,39.894,19.399,39.594,19.519,39.161z"/>
	<path d="M59,11.894H33c-0.553,0-1,0.448-1,1v15c0,0.552,0.447,1,1,1c6.266,0,11.809,4.222,13.48,10.267
		c0.12,0.433,0.515,0.733,0.964,0.733H59c0.553,0,1-0.448,1-1v-26C60,12.342,59.552,11.894,59,11.894z M34,25.894
		c-0.552,0-1-0.448-1-1c0-0.552,0.448-1,1-1s1,0.448,1,1C35,25.447,34.552,25.894,34,25.894z M34,19.894c-0.552,0-1-0.448-1-1
		c0-0.552,0.448-1,1-1s1,0.448,1,1C35,19.447,34.552,19.894,34,19.894z M37,28.894c-0.552,0-1-0.448-1-1c0-0.552,0.448-1,1-1
		s1,0.448,1,1C38,28.447,37.552,28.894,37,28.894z M37,22.894c-0.552,0-1-0.448-1-1c0-0.552,0.448-1,1-1s1,0.448,1,1
		C38,22.447,37.552,22.894,37,22.894z M37,16.894c-0.552,0-1-0.448-1-1c0-0.552,0.448-1,1-1s1,0.448,1,1
		C38,16.447,37.552,16.894,37,16.894z M40,25.894c-0.552,0-1-0.448-1-1c0-0.552,0.448-1,1-1s1,0.448,1,1
		C41,25.447,40.552,25.894,40,25.894z M40,19.894c-0.552,0-1-0.448-1-1c0-0.552,0.448-1,1-1s1,0.448,1,1
		C41,19.447,40.552,19.894,40,19.894z M43,28.894c-0.552,0-1-0.448-1-1c0-0.552,0.448-1,1-1s1,0.448,1,1
		C44,28.447,43.552,28.894,43,28.894z M43,22.894c-0.552,0-1-0.448-1-1c0-0.552,0.448-1,1-1s1,0.448,1,1
		C44,22.447,43.552,22.894,43,22.894z M43,16.894c-0.552,0-1-0.448-1-1c0-0.552,0.448-1,1-1s1,0.448,1,1
		C44,16.447,43.552,16.894,43,16.894z M46,31.894c-0.552,0-1-0.448-1-1c0-0.552,0.448-1,1-1s1,0.448,1,1
		C47,31.447,46.552,31.894,46,31.894z M46,25.894c-0.552,0-1-0.448-1-1c0-0.552,0.448-1,1-1s1,0.448,1,1
		C47,25.447,46.552,25.894,46,25.894z M46,19.894c-0.552,0-1-0.448-1-1c0-0.552,0.448-1,1-1s1,0.448,1,1
		C47,19.447,46.552,19.894,46,19.894z M49,34.894c-0.552,0-1-0.448-1-1c0-0.552,0.448-1,1-1s1,0.448,1,1
		C50,34.447,49.552,34.894,49,34.894z M49,28.894c-0.552,0-1-0.448-1-1c0-0.552,0.448-1,1-1s1,0.448,1,1
		C50,28.447,49.552,28.894,49,28.894z M49,22.894c-0.552,0-1-0.448-1-1c0-0.552,0.448-1,1-1s1,0.448,1,1
		C50,22.447,49.552,22.894,49,22.894z M49,16.894c-0.552,0-1-0.448-1-1c0-0.552,0.448-1,1-1s1,0.448,1,1
		C50,16.447,49.552,16.894,49,16.894z M52,37.894c-0.552,0-1-0.448-1-1c0-0.552,0.448-1,1-1s1,0.448,1,1
		C53,37.447,52.552,37.894,52,37.894z M52,31.894c-0.552,0-1-0.448-1-1c0-0.552,0.448-1,1-1s1,0.448,1,1
		C53,31.447,52.552,31.894,52,31.894z M52,25.894c-0.552,0-1-0.448-1-1c0-0.552,0.448-1,1-1s1,0.448,1,1
		C53,25.447,52.552,25.894,52,25.894z M52,19.894c-0.552,0-1-0.448-1-1c0-0.552,0.448-1,1-1s1,0.448,1,1
		C53,19.447,52.552,19.894,52,19.894z M55,34.894c-0.552,0-1-0.448-1-1c0-0.552,0.448-1,1-1s1,0.448,1,1
		C56,34.447,55.552,34.894,55,34.894z M55,28.894c-0.552,0-1-0.448-1-1c0-0.552,0.448-1,1-1s1,0.448,1,1
		C56,28.447,55.552,28.894,55,28.894z M55,22.894c-0.552,0-1-0.448-1-1c0-0.552,0.448-1,1-1s1,0.448,1,1
		C56,22.447,55.552,22.894,55,22.894z M55,16.894c-0.552,0-1-0.448-1-1c0-0.552,0.448-1,1-1s1,0.448,1,1
		C56,16.447,55.552,16.894,55,16.894z M58,37.894c-0.552,0-1-0.448-1-1c0-0.552,0.448-1,1-1s1,0.448,1,1
		C59,37.447,58.552,37.894,58,37.894z M58,31.894c-0.552,0-1-0.448-1-1c0-0.552,0.448-1,1-1s1,0.448,1,1
		C59,31.447,58.552,31.894,58,31.894z M58,25.894c-0.552,0-1-0.448-1-1c0-0.552,0.448-1,1-1s1,0.448,1,1
		C59,25.447,58.552,25.894,58,25.894z M58,19.894c-0.552,0-1-0.448-1-1c0-0.552,0.448-1,1-1s1,0.448,1,1
		C59,19.447,58.552,19.894,58,19.894z"/>
</g>
<g>
</g>
<g>
</g>
<g>
</g>
<g>
</g>
<g>
</g>
<g>
</g>
<g>
</g>
<g>
</g>
<g>
</g>
<g>
</g>
<g>
</g>
<g>
</g>
<g>
</g>
<g>
</g>
<g>
</g>
</svg>
