<?xml version="1.0" encoding="iso-8859-1"?>
<!-- Generator: Adobe Illustrator 18.0.0, SVG Export Plug-In . SVG Version: 6.00 Build 0)  -->
<!DOCTYPE svg PUBLIC "-//W3C//DTD SVG 1.1//EN" "http://www.w3.org/Graphics/SVG/1.1/DTD/svg11.dtd">
<svg version="1.1" id="Capa_1" xmlns="http://www.w3.org/2000/svg" xmlns:xlink="http://www.w3.org/1999/xlink" x="0px" y="0px"
	 viewBox="0 0 60 60" style="enable-background:new 0 0 60 60;" xml:space="preserve">
<path d="M59,8c0.553,0,1-0.447,1-1V1c0-0.553-0.447-1-1-1h-6c-0.553,0-1,0.447-1,1v5.586L32.019,26.567
	c-0.322-0.19-0.67-0.337-1.041-0.431C30.531,13.589,20.411,3.469,7.865,3.022C7.425,1.29,5.866,0,4,0C1.794,0,0,1.794,0,4
	s1.794,4,4,4c1.85,0,3.396-1.269,3.851-2.978C19.306,5.46,28.54,14.694,28.978,26.149C27.269,26.604,26,28.149,26,30
	c0,0.74,0.216,1.425,0.567,2.02L6.586,52H1c-0.552,0-1,0.447-1,1v6c0,0.553,0.448,1,1,1h6c0.552,0,1-0.447,1-1v-5.586l19.981-19.981
	c0.543,0.321,1.163,0.516,1.831,0.548l-3.284,17.781c-0.08,0.434,0.133,0.869,0.525,1.07c0.145,0.075,0.302,0.111,0.458,0.111
	c0.265,0,0.526-0.105,0.719-0.305l5.355-5.538c4.342,5.973,11.177,9.607,18.549,9.873C52.571,58.708,54.131,60,56,60
	c2.206,0,4-1.794,4-4s-1.794-4-4-4c-1.849,0-3.394,1.267-3.85,2.974c-6.531-0.252-12.602-3.383-16.584-8.551l7.67,2.195
	c0.422,0.118,0.877-0.051,1.116-0.421c0.239-0.371,0.206-0.854-0.08-1.19L32.446,33.142C33.384,32.409,34,31.281,34,30
	c0-0.74-0.216-1.425-0.567-2.02L53.414,8H59z"/>
<g>
</g>
<g>
</g>
<g>
</g>
<g>
</g>
<g>
</g>
<g>
</g>
<g>
</g>
<g>
</g>
<g>
</g>
<g>
</g>
<g>
</g>
<g>
</g>
<g>
</g>
<g>
</g>
<g>
</g>
</svg>
