<?xml version="1.0" encoding="iso-8859-1"?>
<!-- Generator: Adobe Illustrator 18.0.0, SVG Export Plug-In . SVG Version: 6.00 Build 0)  -->
<!DOCTYPE svg PUBLIC "-//W3C//DTD SVG 1.1//EN" "http://www.w3.org/Graphics/SVG/1.1/DTD/svg11.dtd">
<svg version="1.1" id="Capa_1" xmlns="http://www.w3.org/2000/svg" xmlns:xlink="http://www.w3.org/1999/xlink" x="0px" y="0px"
	 viewBox="0 0 60 60" style="enable-background:new 0 0 60 60;" xml:space="preserve">
<g>
	<path d="M39,60h-0.5c-1.104,0-2-0.896-2-2c0-0.68,0.34-1.28,0.858-1.642C37.72,55.84,38.32,55.5,39,55.5c1.104,0,2,0.896,2,2V58
		C41,59.104,40.104,60,39,60z"/>
	<path d="M33.4,60h-0.85c-1.104,0-2-0.896-2-2s0.896-2,2-2h0.85c1.104,0,2,0.896,2,2S34.505,60,33.4,60z M27.45,60h-0.85
		c-1.104,0-2-0.896-2-2s0.896-2,2-2h0.85c1.104,0,2,0.896,2,2S28.555,60,27.45,60z"/>
	<path d="M21.5,60H21c-1.104,0-2-0.896-2-2v-0.5c0-1.104,0.896-2,2-2c0.68,0,1.28,0.34,1.642,0.858C23.16,56.72,23.5,57.32,23.5,58
		C23.5,59.104,22.604,60,21.5,60z"/>
	<path d="M21,53.5c-1.104,0-2-0.896-2-2v-1c0-1.104,0.896-2,2-2s2,0.896,2,2v1C23,52.604,22.104,53.5,21,53.5z M21,46.5
		c-1.104,0-2-0.896-2-2v-1c0-1.104,0.896-2,2-2s2,0.896,2,2v1C23,45.604,22.104,46.5,21,46.5z M21,39.5c-1.104,0-2-0.896-2-2v-1
		c0-1.104,0.896-2,2-2s2,0.896,2,2v1C23,38.604,22.104,39.5,21,39.5z M21,32.5c-1.104,0-2-0.896-2-2v-1c0-1.104,0.896-2,2-2
		s2,0.896,2,2v1C23,31.604,22.104,32.5,21,32.5z M21,25.5c-1.104,0-2-0.896-2-2v-1c0-1.104,0.896-2,2-2s2,0.896,2,2v1
		C23,24.604,22.104,25.5,21,25.5z M21,18.5c-1.104,0-2-0.896-2-2v-1c0-1.104,0.896-2,2-2s2,0.896,2,2v1
		C23,17.604,22.104,18.5,21,18.5z M21,11.5c-1.104,0-2-0.896-2-2v-1c0-1.104,0.896-2,2-2s2,0.896,2,2v1
		C23,10.604,22.104,11.5,21,11.5z"/>
	<path d="M21,4.5c-1.104,0-2-0.896-2-2V2c0-1.104,0.896-2,2-2h0.5c1.104,0,2,0.896,2,2c0,0.68-0.34,1.28-0.858,1.642
		C22.28,4.16,21.68,4.5,21,4.5z"/>
	<path d="M33.399,4h-0.85c-1.104,0-2-0.896-2-2s0.896-2,2-2h0.85c1.104,0,2,0.896,2,2S34.504,4,33.399,4z M27.449,4H26.6
		c-1.104,0-2-0.896-2-2s0.896-2,2-2h0.85c1.104,0,2,0.896,2,2S28.554,4,27.449,4z"/>
	<path d="M39,4.5c-0.68,0-1.28-0.34-1.642-0.858C36.84,3.28,36.5,2.68,36.5,2c0-1.104,0.896-2,2-2H39c1.104,0,2,0.896,2,2v0.5
		C41,3.604,40.104,4.5,39,4.5z"/>
	<path d="M39,53.5c-1.104,0-2-0.896-2-2v-1c0-1.104,0.896-2,2-2s2,0.896,2,2v1C41,52.604,40.104,53.5,39,53.5z M39,46.5
		c-1.104,0-2-0.896-2-2v-1c0-1.104,0.896-2,2-2s2,0.896,2,2v1C41,45.604,40.104,46.5,39,46.5z M39,39.5c-1.104,0-2-0.896-2-2v-1
		c0-1.104,0.896-2,2-2s2,0.896,2,2v1C41,38.604,40.104,39.5,39,39.5z M39,32.5c-1.104,0-2-0.896-2-2v-1c0-1.104,0.896-2,2-2
		s2,0.896,2,2v1C41,31.604,40.104,32.5,39,32.5z M39,25.5c-1.104,0-2-0.896-2-2v-1c0-1.104,0.896-2,2-2s2,0.896,2,2v1
		C41,24.604,40.104,25.5,39,25.5z M39,18.5c-1.104,0-2-0.896-2-2v-1c0-1.104,0.896-2,2-2s2,0.896,2,2v1
		C41,17.604,40.104,18.5,39,18.5z M39,11.5c-1.104,0-2-0.896-2-2v-1c0-1.104,0.896-2,2-2s2,0.896,2,2v1
		C41,10.604,40.104,11.5,39,11.5z"/>
</g>
<g>
</g>
<g>
</g>
<g>
</g>
<g>
</g>
<g>
</g>
<g>
</g>
<g>
</g>
<g>
</g>
<g>
</g>
<g>
</g>
<g>
</g>
<g>
</g>
<g>
</g>
<g>
</g>
<g>
</g>
</svg>
