<?xml version="1.0" encoding="iso-8859-1"?>
<!-- Generator: Adobe Illustrator 18.0.0, SVG Export Plug-In . SVG Version: 6.00 Build 0)  -->
<!DOCTYPE svg PUBLIC "-//W3C//DTD SVG 1.1//EN" "http://www.w3.org/Graphics/SVG/1.1/DTD/svg11.dtd">
<svg version="1.1" id="Capa_1" xmlns="http://www.w3.org/2000/svg" xmlns:xlink="http://www.w3.org/1999/xlink" x="0px" y="0px"
	 viewBox="0 0 60 60" style="enable-background:new 0 0 60 60;" xml:space="preserve">
<g>
	<path d="M44,5.785c0-0.553-0.448-1-1-1s-1,0.447-1,1v1.071c0,0.553,0.448,1,1,1s1-0.447,1-1V5.785z"/>
	<path d="M43,10.143c-0.552,0-1,0.447-1,1v1.071c0,0.553,0.448,1,1,1s1-0.447,1-1v-1.071C44,10.59,43.552,10.143,43,10.143z"/>
	<path d="M42.088,1.912C42.245,2.259,42.594,2.5,43,2.5c0.552,0,1-0.447,1-1V0h-1.5c-0.552,0-1,0.447-1,1
		C41.5,1.405,41.741,1.755,42.088,1.912z"/>
	<path d="M16.218,2h1.051c0.552,0,1-0.447,1-1s-0.448-1-1-1h-1.051c-0.552,0-1,0.447-1,1S15.666,2,16.218,2z"/>
	<path d="M21.475,2h1.051c0.552,0,1-0.447,1-1s-0.448-1-1-1h-1.051c-0.552,0-1,0.447-1,1S20.922,2,21.475,2z"/>
	<path d="M10.961,2h1.051c0.552,0,1-0.447,1-1s-0.448-1-1-1h-1.051c-0.552,0-1,0.447-1,1S10.409,2,10.961,2z"/>
	<path d="M31.987,2h1.051c0.552,0,1-0.447,1-1s-0.448-1-1-1h-1.051c-0.552,0-1,0.447-1,1S31.435,2,31.987,2z"/>
	<path d="M37.244,2h1.051c0.552,0,1-0.447,1-1s-0.448-1-1-1h-1.051c-0.552,0-1,0.447-1,1S36.691,2,37.244,2z"/>
	<path d="M26.731,2h1.051c0.552,0,1-0.447,1-1s-0.448-1-1-1h-1.051c-0.552,0-1,0.447-1,1S26.179,2,26.731,2z"/>
	<path d="M5.705,2h1.051c0.552,0,1-0.447,1-1s-0.448-1-1-1H5.705c-0.552,0-1,0.447-1,1S5.153,2,5.705,2z"/>
	<path d="M1.5,0H0v1.5c0,0.553,0.448,1,1,1c0.406,0,0.755-0.241,0.912-0.588C2.259,1.755,2.5,1.405,2.5,1C2.5,0.447,2.052,0,1.5,0z"
		/>
	<path d="M1,23.525c0.552,0,1-0.447,1-1v-1.051c0-0.553-0.448-1-1-1s-1,0.447-1,1v1.051C0,23.078,0.448,23.525,1,23.525z"/>
	<path d="M1,28.782c0.552,0,1-0.447,1-1V26.73c0-0.553-0.448-1-1-1s-1,0.447-1,1v1.052C0,28.335,0.448,28.782,1,28.782z"/>
	<path d="M1,34.038c0.552,0,1-0.447,1-1v-1.051c0-0.553-0.448-1-1-1s-1,0.447-1,1v1.051C0,33.591,0.448,34.038,1,34.038z"/>
	<path d="M1,39.295c0.552,0,1-0.447,1-1v-1.052c0-0.553-0.448-1-1-1s-1,0.447-1,1v1.052C0,38.848,0.448,39.295,1,39.295z"/>
	<path d="M1,18.27c0.552,0,1-0.447,1-1v-1.052c0-0.553-0.448-1-1-1s-1,0.447-1,1v1.052C0,17.822,0.448,18.27,1,18.27z"/>
	<path d="M1,7.757c0.552,0,1-0.447,1-1V5.705c0-0.553-0.448-1-1-1s-1,0.447-1,1v1.052C0,7.31,0.448,7.757,1,7.757z"/>
	<path d="M1,13.013c0.552,0,1-0.447,1-1v-1.051c0-0.553-0.448-1-1-1s-1,0.447-1,1v1.051C0,12.565,0.448,13.013,1,13.013z"/>
	<path d="M1.912,42.088C1.755,41.741,1.406,41.5,1,41.5c-0.552,0-1,0.447-1,1V44h1.5c0.552,0,1-0.447,1-1
		C2.5,42.595,2.259,42.245,1.912,42.088z"/>
	<path d="M12.214,42h-1.072c-0.552,0-1,0.447-1,1s0.448,1,1,1h1.072c0.552,0,1-0.447,1-1S12.767,42,12.214,42z"/>
	<path d="M6.857,42H5.786c-0.552,0-1,0.447-1,1s0.448,1,1,1h1.071c0.552,0,1-0.447,1-1S7.409,42,6.857,42z"/>
	<path d="M18,47.786c0-0.553-0.448-1-1-1s-1,0.447-1,1v1.071c0,0.553,0.448,1,1,1s1-0.447,1-1V47.786z"/>
	<path d="M17,52.144c-0.552,0-1,0.447-1,1v1.071c0,0.553,0.448,1,1,1s1-0.447,1-1v-1.071C18,52.591,17.552,52.144,17,52.144z"/>
	<path d="M17.912,58.088C17.755,57.741,17.406,57.5,17,57.5c-0.552,0-1,0.447-1,1V60h1.5c0.552,0,1-0.447,1-1
		C18.5,58.595,18.259,58.245,17.912,58.088z"/>
	<path d="M49.038,58h-1.051c-0.553,0-1,0.447-1,1s0.447,1,1,1h1.051c0.553,0,1-0.447,1-1S49.591,58,49.038,58z"/>
	<path d="M54.295,58h-1.052c-0.553,0-1,0.447-1,1s0.447,1,1,1h1.052c0.553,0,1-0.447,1-1S54.848,58,54.295,58z"/>
	<path d="M28.013,58h-1.051c-0.552,0-1,0.447-1,1s0.448,1,1,1h1.051c0.552,0,1-0.447,1-1S28.565,58,28.013,58z"/>
	<path d="M33.269,58h-1.051c-0.552,0-1,0.447-1,1s0.448,1,1,1h1.051c0.552,0,1-0.447,1-1S33.821,58,33.269,58z"/>
	<path d="M38.525,58h-1.051c-0.552,0-1,0.447-1,1s0.448,1,1,1h1.051c0.552,0,1-0.447,1-1S39.078,58,38.525,58z"/>
	<path d="M22.756,58h-1.051c-0.552,0-1,0.447-1,1s0.448,1,1,1h1.051c0.552,0,1-0.447,1-1S23.309,58,22.756,58z"/>
	<path d="M43.782,58h-1.051c-0.552,0-1,0.447-1,1s0.448,1,1,1h1.051c0.552,0,1-0.447,1-1S44.334,58,43.782,58z"/>
	<path d="M59,57.5c-0.405,0-0.755,0.241-0.912,0.588C57.741,58.245,57.5,58.595,57.5,59c0,0.553,0.447,1,1,1H60v-1.5
		C60,57.947,59.553,57.5,59,57.5z"/>
	<path d="M59,20.705c-0.553,0-1,0.447-1,1v1.052c0,0.553,0.447,1,1,1s1-0.447,1-1v-1.052C60,21.152,59.553,20.705,59,20.705z"/>
	<path d="M59,52.243c-0.553,0-1,0.447-1,1v1.052c0,0.553,0.447,1,1,1s1-0.447,1-1v-1.052C60,52.69,59.553,52.243,59,52.243z"/>
	<path d="M59,46.987c-0.553,0-1,0.447-1,1v1.051c0,0.553,0.447,1,1,1s1-0.447,1-1v-1.051C60,47.435,59.553,46.987,59,46.987z"/>
	<path d="M59,36.475c-0.553,0-1,0.447-1,1v1.051c0,0.553,0.447,1,1,1s1-0.447,1-1v-1.051C60,36.922,59.553,36.475,59,36.475z"/>
	<path d="M59,41.73c-0.553,0-1,0.447-1,1v1.052c0,0.553,0.447,1,1,1s1-0.447,1-1V42.73C60,42.178,59.553,41.73,59,41.73z"/>
	<path d="M59,31.218c-0.553,0-1,0.447-1,1v1.052c0,0.553,0.447,1,1,1s1-0.447,1-1v-1.052C60,31.665,59.553,31.218,59,31.218z"/>
	<path d="M59,25.962c-0.553,0-1,0.447-1,1v1.051c0,0.553,0.447,1,1,1s1-0.447,1-1v-1.051C60,26.409,59.553,25.962,59,25.962z"/>
	<path d="M58.5,16c-0.553,0-1,0.447-1,1c0,0.405,0.241,0.755,0.588,0.912C58.245,18.259,58.595,18.5,59,18.5c0.553,0,1-0.447,1-1V16
		H58.5z"/>
	<path d="M47.785,18h1.071c0.553,0,1-0.447,1-1s-0.447-1-1-1h-1.071c-0.553,0-1,0.447-1,1S47.232,18,47.785,18z"/>
	<path d="M53.143,18h1.071c0.553,0,1-0.447,1-1s-0.447-1-1-1h-1.071c-0.553,0-1,0.447-1,1S52.59,18,53.143,18z"/>
	<path d="M44,16.144V16h-0.144c-0.173-0.296-0.487-0.5-0.856-0.5c-0.366,0-0.673,0.206-0.847,0.5H16v26.153
		c-0.293,0.174-0.5,0.48-0.5,0.847c0,0.368,0.204,0.682,0.5,0.856V44h0.144c0.173,0.296,0.487,0.5,0.856,0.5
		c0.366,0,0.673-0.206,0.847-0.5H44V17.847c0.293-0.174,0.5-0.48,0.5-0.847C44.5,16.632,44.296,16.318,44,16.144z M20,41
		c-0.552,0-1-0.448-1-1c0-0.552,0.448-1,1-1s1,0.448,1,1C21,40.552,20.552,41,20,41z M20,35c-0.552,0-1-0.448-1-1
		c0-0.552,0.448-1,1-1s1,0.448,1,1C21,34.552,20.552,35,20,35z M20,29c-0.552,0-1-0.448-1-1c0-0.552,0.448-1,1-1s1,0.448,1,1
		C21,28.552,20.552,29,20,29z M20,23c-0.552,0-1-0.448-1-1c0-0.552,0.448-1,1-1s1,0.448,1,1C21,22.552,20.552,23,20,23z M23,38
		c-0.552,0-1-0.448-1-1c0-0.552,0.448-1,1-1s1,0.448,1,1C24,37.552,23.552,38,23,38z M23,32c-0.552,0-1-0.448-1-1
		c0-0.552,0.448-1,1-1s1,0.448,1,1C24,31.552,23.552,32,23,32z M23,26c-0.552,0-1-0.448-1-1c0-0.552,0.448-1,1-1s1,0.448,1,1
		C24,25.552,23.552,26,23,26z M23,20c-0.552,0-1-0.448-1-1c0-0.552,0.448-1,1-1s1,0.448,1,1C24,19.552,23.552,20,23,20z M26,41
		c-0.552,0-1-0.448-1-1c0-0.552,0.448-1,1-1s1,0.448,1,1C27,40.552,26.552,41,26,41z M26,35c-0.552,0-1-0.448-1-1
		c0-0.552,0.448-1,1-1s1,0.448,1,1C27,34.552,26.552,35,26,35z M26,29c-0.552,0-1-0.448-1-1c0-0.552,0.448-1,1-1s1,0.448,1,1
		C27,28.552,26.552,29,26,29z M26,23c-0.552,0-1-0.448-1-1c0-0.552,0.448-1,1-1s1,0.448,1,1C27,22.552,26.552,23,26,23z M29,38
		c-0.552,0-1-0.448-1-1c0-0.552,0.448-1,1-1s1,0.448,1,1C30,37.552,29.552,38,29,38z M29,32c-0.552,0-1-0.448-1-1
		c0-0.552,0.448-1,1-1s1,0.448,1,1C30,31.552,29.552,32,29,32z M29,26c-0.552,0-1-0.448-1-1c0-0.552,0.448-1,1-1s1,0.448,1,1
		C30,25.552,29.552,26,29,26z M29,20c-0.552,0-1-0.448-1-1c0-0.552,0.448-1,1-1s1,0.448,1,1C30,19.552,29.552,20,29,20z M32,41
		c-0.552,0-1-0.448-1-1c0-0.552,0.448-1,1-1s1,0.448,1,1C33,40.552,32.552,41,32,41z M32,35c-0.552,0-1-0.448-1-1
		c0-0.552,0.448-1,1-1s1,0.448,1,1C33,34.552,32.552,35,32,35z M32,29c-0.552,0-1-0.448-1-1c0-0.552,0.448-1,1-1s1,0.448,1,1
		C33,28.552,32.552,29,32,29z M32,23c-0.552,0-1-0.448-1-1c0-0.552,0.448-1,1-1s1,0.448,1,1C33,22.552,32.552,23,32,23z M35,38
		c-0.552,0-1-0.448-1-1c0-0.552,0.448-1,1-1s1,0.448,1,1C36,37.552,35.552,38,35,38z M35,32c-0.552,0-1-0.448-1-1
		c0-0.552,0.448-1,1-1s1,0.448,1,1C36,31.552,35.552,32,35,32z M35,26c-0.552,0-1-0.448-1-1c0-0.552,0.448-1,1-1s1,0.448,1,1
		C36,25.552,35.552,26,35,26z M35,20c-0.552,0-1-0.448-1-1c0-0.552,0.448-1,1-1s1,0.448,1,1C36,19.552,35.552,20,35,20z M38,41
		c-0.552,0-1-0.448-1-1c0-0.552,0.448-1,1-1s1,0.448,1,1C39,40.552,38.552,41,38,41z M38,35c-0.552,0-1-0.448-1-1
		c0-0.552,0.448-1,1-1s1,0.448,1,1C39,34.552,38.552,35,38,35z M38,29c-0.552,0-1-0.448-1-1c0-0.552,0.448-1,1-1s1,0.448,1,1
		C39,28.552,38.552,29,38,29z M38,23c-0.552,0-1-0.448-1-1c0-0.552,0.448-1,1-1s1,0.448,1,1C39,22.552,38.552,23,38,23z M41,38
		c-0.552,0-1-0.448-1-1c0-0.552,0.448-1,1-1s1,0.448,1,1C42,37.552,41.552,38,41,38z M41,32c-0.552,0-1-0.448-1-1
		c0-0.552,0.448-1,1-1s1,0.448,1,1C42,31.552,41.552,32,41,32z M41,26c-0.552,0-1-0.448-1-1c0-0.552,0.448-1,1-1s1,0.448,1,1
		C42,25.552,41.552,26,41,26z M41,20c-0.552,0-1-0.448-1-1c0-0.552,0.448-1,1-1s1,0.448,1,1C42,19.552,41.552,20,41,20z"/>
</g>
<g>
</g>
<g>
</g>
<g>
</g>
<g>
</g>
<g>
</g>
<g>
</g>
<g>
</g>
<g>
</g>
<g>
</g>
<g>
</g>
<g>
</g>
<g>
</g>
<g>
</g>
<g>
</g>
<g>
</g>
</svg>
