<?xml version="1.0" encoding="iso-8859-1"?>
<!-- Generator: Adobe Illustrator 18.0.0, SVG Export Plug-In . SVG Version: 6.00 Build 0)  -->
<!DOCTYPE svg PUBLIC "-//W3C//DTD SVG 1.1//EN" "http://www.w3.org/Graphics/SVG/1.1/DTD/svg11.dtd">
<svg version="1.1" id="Capa_1" xmlns="http://www.w3.org/2000/svg" xmlns:xlink="http://www.w3.org/1999/xlink" x="0px" y="0px"
	 viewBox="0 0 60 60" style="enable-background:new 0 0 60 60;" xml:space="preserve">
<path d="M57,13.993c0-0.016-0.006-0.03-0.007-0.046c-0.004-0.074-0.013-0.146-0.032-0.216c-0.009-0.03-0.023-0.057-0.035-0.086
	c-0.021-0.054-0.041-0.106-0.071-0.155c-0.018-0.03-0.041-0.056-0.061-0.083c-0.032-0.043-0.065-0.085-0.103-0.122
	c-0.026-0.025-0.056-0.047-0.085-0.069c-0.027-0.021-0.05-0.046-0.079-0.065c-0.017-0.01-0.036-0.015-0.053-0.024
	c-0.014-0.008-0.025-0.019-0.04-0.026l-27-13c-0.284-0.137-0.616-0.132-0.895,0.014l-25,13c-0.011,0.006-0.018,0.015-0.029,0.021
	c-0.011,0.006-0.024,0.009-0.036,0.016c-0.034,0.021-0.06,0.049-0.091,0.074c-0.029,0.023-0.06,0.044-0.087,0.07
	c-0.038,0.038-0.068,0.08-0.099,0.123c-0.02,0.028-0.044,0.053-0.061,0.083c-0.031,0.053-0.052,0.11-0.072,0.168
	c-0.009,0.025-0.022,0.047-0.029,0.073C3.013,13.824,3,13.911,3,14v32c0,0.379,0.214,0.725,0.553,0.895l26,13
	c0.015,0.007,0.031,0.004,0.046,0.011C29.728,59.962,29.862,60,30,60s0.273-0.038,0.401-0.095c0.015-0.007,0.032-0.004,0.046-0.011
	l26-13C56.786,46.725,57,46.379,57,46V14c0-0.001,0-0.002,0-0.004C57,13.995,57,13.994,57,13.993z M7,43c-0.552,0-1-0.448-1-1
	c0-0.552,0.448-1,1-1s1,0.448,1,1C8,42.552,7.552,43,7,43z M7,37c-0.552,0-1-0.448-1-1c0-0.552,0.448-1,1-1s1,0.448,1,1
	C8,36.552,7.552,37,7,37z M7,31c-0.552,0-1-0.448-1-1c0-0.552,0.448-1,1-1s1,0.448,1,1C8,30.552,7.552,31,7,31z M7,25
	c-0.552,0-1-0.448-1-1c0-0.552,0.448-1,1-1s1,0.448,1,1C8,24.552,7.552,25,7,25z M7,19c-0.552,0-1-0.448-1-1c0-0.552,0.448-1,1-1
	s1,0.448,1,1C8,18.552,7.552,19,7,19z M10,46c-0.552,0-1-0.448-1-1c0-0.552,0.448-1,1-1s1,0.448,1,1C11,45.552,10.552,46,10,46z
	 M10,40c-0.552,0-1-0.448-1-1c0-0.552,0.448-1,1-1s1,0.448,1,1C11,39.552,10.552,40,10,40z M10,34c-0.552,0-1-0.448-1-1
	c0-0.552,0.448-1,1-1s1,0.448,1,1C11,33.552,10.552,34,10,34z M10,28c-0.552,0-1-0.448-1-1c0-0.552,0.448-1,1-1s1,0.448,1,1
	C11,27.552,10.552,28,10,28z M10,22c-0.552,0-1-0.448-1-1c0-0.552,0.448-1,1-1s1,0.448,1,1C11,21.552,10.552,22,10,22z M13,49
	c-0.552,0-1-0.448-1-1c0-0.552,0.448-1,1-1s1,0.448,1,1C14,48.552,13.552,49,13,49z M13,43c-0.552,0-1-0.448-1-1
	c0-0.552,0.448-1,1-1s1,0.448,1,1C14,42.552,13.552,43,13,43z M13,37c-0.552,0-1-0.448-1-1c0-0.552,0.448-1,1-1s1,0.448,1,1
	C14,36.552,13.552,37,13,37z M13,31c-0.552,0-1-0.448-1-1c0-0.552,0.448-1,1-1s1,0.448,1,1C14,30.552,13.552,31,13,31z M13,25
	c-0.552,0-1-0.448-1-1c0-0.552,0.448-1,1-1s1,0.448,1,1C14,24.552,13.552,25,13,25z M16,52c-0.552,0-1-0.448-1-1
	c0-0.552,0.448-1,1-1c0.552,0,1,0.448,1,1C17,51.552,16.552,52,16,52z M16,46c-0.552,0-1-0.448-1-1c0-0.552,0.448-1,1-1
	c0.552,0,1,0.448,1,1C17,45.552,16.552,46,16,46z M16,40c-0.552,0-1-0.448-1-1c0-0.552,0.448-1,1-1c0.552,0,1,0.448,1,1
	C17,39.552,16.552,40,16,40z M16,34c-0.552,0-1-0.448-1-1c0-0.552,0.448-1,1-1c0.552,0,1,0.448,1,1C17,33.552,16.552,34,16,34z
	 M16,28c-0.552,0-1-0.448-1-1c0-0.552,0.448-1,1-1c0.552,0,1,0.448,1,1C17,27.552,16.552,28,16,28z M16.826,21.531L16.826,21.531
	L16.826,21.531c-0.071,0.11-0.159,0.201-0.267,0.276c-0.036,0.027-0.072,0.054-0.111,0.075c-0.04,0.02-0.079,0.037-0.122,0.052
	C16.224,21.973,16.117,22,16,22c-0.552,0-1-0.448-1-1c0-0.552,0.448-1,1-1c0.552,0,1,0.448,1,1C17,21.2,16.927,21.375,16.826,21.531
	z M19,49c-0.552,0-1-0.448-1-1c0-0.552,0.448-1,1-1s1,0.448,1,1C20,48.552,19.552,49,19,49z M19,43c-0.552,0-1-0.448-1-1
	c0-0.552,0.448-1,1-1s1,0.448,1,1C20,42.552,19.552,43,19,43z M19,37c-0.552,0-1-0.448-1-1c0-0.552,0.448-1,1-1s1,0.448,1,1
	C20,36.552,19.552,37,19,37z M19,31c-0.552,0-1-0.448-1-1c0-0.552,0.448-1,1-1s1,0.448,1,1C20,30.552,19.552,31,19,31z M19,25
	c-0.552,0-1-0.448-1-1c0-0.552,0.448-1,1-1s1,0.448,1,1C20,24.552,19.552,25,19,25z M22,52c-0.552,0-1-0.448-1-1
	c0-0.552,0.448-1,1-1s1,0.448,1,1C23,51.552,22.552,52,22,52z M22,46c-0.552,0-1-0.448-1-1c0-0.552,0.448-1,1-1s1,0.448,1,1
	C23,45.552,22.552,46,22,46z M22,40c-0.552,0-1-0.448-1-1c0-0.552,0.448-1,1-1s1,0.448,1,1C23,39.552,22.552,40,22,40z M22,34
	c-0.552,0-1-0.448-1-1c0-0.552,0.448-1,1-1s1,0.448,1,1C23,33.552,22.552,34,22,34z M22,28c-0.552,0-1-0.448-1-1
	c0-0.552,0.448-1,1-1s1,0.448,1,1C23,27.552,22.552,28,22,28z M25,55c-0.552,0-1-0.448-1-1c0-0.552,0.448-1,1-1s1,0.448,1,1
	C26,54.552,25.552,55,25,55z M25,49c-0.552,0-1-0.448-1-1c0-0.552,0.448-1,1-1s1,0.448,1,1C26,48.552,25.552,49,25,49z M25,43
	c-0.552,0-1-0.448-1-1c0-0.552,0.448-1,1-1s1,0.448,1,1C26,42.552,25.552,43,25,43z M25,37c-0.552,0-1-0.448-1-1
	c0-0.552,0.448-1,1-1s1,0.448,1,1C26,36.552,25.552,37,25,37z M25,31c-0.552,0-1-0.448-1-1c0-0.552,0.448-1,1-1s1,0.448,1,1
	C26,30.552,25.552,31,25,31z M28,58c-0.552,0-1-0.448-1-1c0-0.552,0.448-1,1-1s1,0.448,1,1C29,57.552,28.552,58,28,58z M28,52
	c-0.552,0-1-0.448-1-1c0-0.552,0.448-1,1-1s1,0.448,1,1C29,51.552,28.552,52,28,52z M28,46c-0.552,0-1-0.448-1-1
	c0-0.552,0.448-1,1-1s1,0.448,1,1C29,45.552,28.552,46,28,46z M28,40c-0.552,0-1-0.448-1-1c0-0.552,0.448-1,1-1s1,0.448,1,1
	C29,39.552,28.552,40,28,40z M28,34c-0.552,0-1-0.448-1-1c0-0.552,0.448-1,1-1s1,0.448,1,1C29,33.552,28.552,34,28,34z
	 M28.826,27.531L28.826,27.531L28.826,27.531c-0.071,0.11-0.159,0.201-0.267,0.276c-0.036,0.027-0.072,0.054-0.111,0.075
	c-0.04,0.02-0.079,0.037-0.122,0.052C28.224,27.973,28.117,28,28,28c-0.552,0-1-0.448-1-1c0-0.552,0.448-1,1-1s1,0.448,1,1
	C29,27.2,28.927,27.375,28.826,27.531z M30,25.882L6.201,13.983L29.017,2.118L53.73,14.017L30,25.882z M55,45.382l-24,12V27.618
	l24-12V45.382z"/>
<g>
</g>
<g>
</g>
<g>
</g>
<g>
</g>
<g>
</g>
<g>
</g>
<g>
</g>
<g>
</g>
<g>
</g>
<g>
</g>
<g>
</g>
<g>
</g>
<g>
</g>
<g>
</g>
<g>
</g>
</svg>
