<?xml version="1.0" encoding="iso-8859-1"?>
<!-- Generator: Adobe Illustrator 18.0.0, SVG Export Plug-In . SVG Version: 6.00 Build 0)  -->
<!DOCTYPE svg PUBLIC "-//W3C//DTD SVG 1.1//EN" "http://www.w3.org/Graphics/SVG/1.1/DTD/svg11.dtd">
<svg version="1.1" id="Capa_1" xmlns="http://www.w3.org/2000/svg" xmlns:xlink="http://www.w3.org/1999/xlink" x="0px" y="0px"
	 viewBox="0 0 60 60" style="enable-background:new 0 0 60 60;" xml:space="preserve">
<g>
	<path d="M19.519,38.159c1.672-6.045,7.215-10.267,13.48-10.267c0.553,0,1-0.448,1-1v-3.11c0-0.174-0.045-0.345-0.132-0.496
		L22.054,2.611c-0.178-0.311-0.507-0.503-0.865-0.504c-0.001,0-0.002,0-0.003,0c-0.356,0-0.686,0.19-0.865,0.498L0.135,37.39
		c-0.179,0.31-0.18,0.691-0.001,1.001c0.178,0.31,0.509,0.501,0.866,0.501h2c-0.552,0-1-0.448-1-1c0-0.552,0.448-1,1-1s1,0.448,1,1
		c0,0.552-0.448,1-1,1h6c-0.552,0-1-0.448-1-1c0-0.552,0.448-1,1-1s1,0.448,1,1c0,0.552-0.448,1-1,1h6c-0.552,0-1-0.448-1-1
		c0-0.552,0.448-1,1-1s1,0.448,1,1c0,0.552-0.448,1-1,1h3.556C19.005,38.892,19.399,38.592,19.519,38.159z M30,21.892
		c0.552,0,1,0.448,1,1c0,0.552-0.448,1-1,1s-1-0.448-1-1C29,22.34,29.448,21.892,30,21.892z M27,12.892c0.552,0,1,0.448,1,1
		c0,0.552-0.448,1-1,1s-1-0.448-1-1C26,13.34,26.448,12.892,27,12.892z M27,18.892c0.552,0,1,0.448,1,1c0,0.552-0.448,1-1,1
		s-1-0.448-1-1C26,19.34,26.448,18.892,27,18.892z M27,24.892c0.552,0,1,0.448,1,1c0,0.552-0.448,1-1,1s-1-0.448-1-1
		C26,25.34,26.448,24.892,27,24.892z M24,9.892c0.552,0,1,0.448,1,1c0,0.552-0.448,1-1,1s-1-0.448-1-1
		C23,10.34,23.448,9.892,24,9.892z M24,15.892c0.552,0,1,0.448,1,1c0,0.552-0.448,1-1,1s-1-0.448-1-1
		C23,16.34,23.448,15.892,24,15.892z M24,21.892c0.552,0,1,0.448,1,1c0,0.552-0.448,1-1,1s-1-0.448-1-1
		C23,22.34,23.448,21.892,24,21.892z M24,27.892c0.552,0,1,0.448,1,1c0,0.552-0.448,1-1,1s-1-0.448-1-1
		C23,28.34,23.448,27.892,24,27.892z M21,6.892c0.552,0,1,0.448,1,1c0,0.552-0.448,1-1,1s-1-0.448-1-1
		C20,7.34,20.448,6.892,21,6.892z M21,12.892c0.552,0,1,0.448,1,1c0,0.552-0.448,1-1,1s-1-0.448-1-1
		C20,13.34,20.448,12.892,21,12.892z M21,18.892c0.552,0,1,0.448,1,1c0,0.552-0.448,1-1,1s-1-0.448-1-1
		C20,19.34,20.448,18.892,21,18.892z M21,24.892c0.552,0,1,0.448,1,1c0,0.552-0.448,1-1,1s-1-0.448-1-1
		C20,25.34,20.448,24.892,21,24.892z M21,30.892c0.552,0,1,0.448,1,1c0,0.552-0.448,1-1,1s-1-0.448-1-1
		C20,31.34,20.448,30.892,21,30.892z M6,35.892c-0.552,0-1-0.448-1-1c0-0.552,0.448-1,1-1s1,0.448,1,1
		C7,35.444,6.552,35.892,6,35.892z M9,32.892c-0.552,0-1-0.448-1-1c0-0.552,0.448-1,1-1s1,0.448,1,1
		C10,32.444,9.552,32.892,9,32.892z M9,26.892c-0.552,0-1-0.448-1-1c0-0.552,0.448-1,1-1s1,0.448,1,1
		C10,26.444,9.552,26.892,9,26.892z M12,35.892c-0.552,0-1-0.448-1-1c0-0.552,0.448-1,1-1s1,0.448,1,1
		C13,35.444,12.552,35.892,12,35.892z M12,29.892c-0.552,0-1-0.448-1-1c0-0.552,0.448-1,1-1s1,0.448,1,1
		C13,29.444,12.552,29.892,12,29.892z M12,23.892c-0.552,0-1-0.448-1-1c0-0.552,0.448-1,1-1s1,0.448,1,1
		C13,23.444,12.552,23.892,12,23.892z M18,9.892c0.552,0,1,0.448,1,1c0,0.552-0.448,1-1,1s-1-0.448-1-1
		C17,10.34,17.448,9.892,18,9.892z M18,15.892c0.552,0,1,0.448,1,1c0,0.552-0.448,1-1,1s-1-0.448-1-1
		C17,16.34,17.448,15.892,18,15.892z M18,21.892c0.552,0,1,0.448,1,1c0,0.552-0.448,1-1,1s-1-0.448-1-1
		C17,22.34,17.448,21.892,18,21.892z M18,27.892c0.552,0,1,0.448,1,1c0,0.552-0.448,1-1,1s-1-0.448-1-1
		C17,28.34,17.448,27.892,18,27.892z M15,32.892c-0.552,0-1-0.448-1-1c0-0.552,0.448-1,1-1s1,0.448,1,1
		C16,32.444,15.552,32.892,15,32.892z M15,26.892c-0.552,0-1-0.448-1-1c0-0.552,0.448-1,1-1s1,0.448,1,1
		C16,26.444,15.552,26.892,15,26.892z M15,20.892c-0.552,0-1-0.448-1-1c0-0.552,0.448-1,1-1s1,0.448,1,1
		C16,20.444,15.552,20.892,15,20.892z M15,14.892c-0.552,0-1-0.448-1-1c0-0.552,0.448-1,1-1s1,0.448,1,1
		C16,14.444,15.552,14.892,15,14.892z M17,34.892c0-0.552,0.448-1,1-1s1,0.448,1,1c0,0.552-0.448,1-1,1S17,35.444,17,34.892z"/>
	<path d="M47.444,40.892c-1.343,0-2.532-0.904-2.892-2.199C43.12,33.511,38.369,29.892,33,29.892s-10.12,3.619-11.553,8.8
		c-0.359,1.296-1.549,2.2-2.892,2.2H17.05c-0.021,0.332-0.051,0.662-0.051,1c0,8.822,7.178,16,16,16s16-7.178,16-16
		c0-0.338-0.03-0.668-0.051-1H47.444z"/>
	<path d="M59,10.892H33c-0.553,0-1,0.448-1,1v4.094l3.604,6.308C35.862,22.741,36,23.257,36,23.782v3.11
		c0,0.458-0.111,0.888-0.296,1.277c5.105,1.015,9.35,4.834,10.776,9.99c0.12,0.433,0.515,0.733,0.964,0.733H59c0.553,0,1-0.448,1-1
		v-26C60,11.34,59.552,10.892,59,10.892z"/>
</g>
<g>
</g>
<g>
</g>
<g>
</g>
<g>
</g>
<g>
</g>
<g>
</g>
<g>
</g>
<g>
</g>
<g>
</g>
<g>
</g>
<g>
</g>
<g>
</g>
<g>
</g>
<g>
</g>
<g>
</g>
</svg>
