<?xml version="1.0" encoding="iso-8859-1"?>
<!-- Generator: Adobe Illustrator 18.0.0, SVG Export Plug-In . SVG Version: 6.00 Build 0)  -->
<!DOCTYPE svg PUBLIC "-//W3C//DTD SVG 1.1//EN" "http://www.w3.org/Graphics/SVG/1.1/DTD/svg11.dtd">
<svg version="1.1" id="Capa_1" xmlns="http://www.w3.org/2000/svg" xmlns:xlink="http://www.w3.org/1999/xlink" x="0px" y="0px"
	 viewBox="0 0 60 60" style="enable-background:new 0 0 60 60;" xml:space="preserve">
<g>
	<path d="M14,14V0H0v14H14z"/>
	<path d="M46,0v7v7h7h7V0H46z M58,6.586L52.586,12h-3.172L58,3.414V6.586z M48,7.414L53.414,2h3.172L48,10.586V7.414z M50.586,2
		L48,4.586V2H50.586z M55.414,12L58,9.414V12H55.414z"/>
	<path d="M14,46H7H0v14h14v-7V46z"/>
	<path d="M46,46v14h14V46H46z"/>
	<circle cx="25" cy="7" r="1"/>
	<circle cx="19" cy="53" r="1"/>
	<circle cx="23" cy="53" r="1"/>
	<circle cx="21" cy="7" r="1"/>
	<circle cx="17" cy="7" r="1"/>
	<circle cx="15" cy="53" r="1"/>
	<circle cx="7" cy="45" r="1"/>
	<circle cx="7" cy="41" r="1"/>
	<circle cx="7" cy="33" r="1"/>
	<circle cx="7" cy="17" r="1"/>
	<circle cx="7" cy="37" r="1"/>
	<circle cx="7" cy="21" r="1"/>
	<circle cx="7" cy="25" r="1"/>
	<circle cx="7" cy="29" r="1"/>
	<circle cx="53" cy="31" r="1"/>
	<circle cx="27" cy="53" r="1"/>
	<circle cx="53" cy="27" r="1"/>
	<circle cx="53" cy="35" r="1"/>
	<circle cx="53" cy="19" r="1"/>
	<circle cx="53" cy="23" r="1"/>
	<circle cx="53" cy="43" r="1"/>
	<circle cx="45" cy="7" r="1"/>
	<circle cx="53" cy="15" r="1"/>
	<circle cx="53" cy="39" r="1"/>
	<circle cx="35" cy="53" r="1"/>
	<circle cx="33" cy="7" r="1"/>
	<circle cx="31" cy="53" r="1"/>
	<circle cx="29" cy="7" r="1"/>
	<path d="M39,52c-0.561,0-1,0.45-1,1c0,0.55,0.439,1,1,1c0.55,0,1-0.45,1-1C40,52.45,39.55,52,39,52z"/>
	<circle cx="41" cy="7" r="1"/>
	<circle cx="37" cy="7" r="1"/>
	<circle cx="43" cy="53" r="1"/>
</g>
<g>
</g>
<g>
</g>
<g>
</g>
<g>
</g>
<g>
</g>
<g>
</g>
<g>
</g>
<g>
</g>
<g>
</g>
<g>
</g>
<g>
</g>
<g>
</g>
<g>
</g>
<g>
</g>
<g>
</g>
</svg>
