<?xml version="1.0" encoding="iso-8859-1"?>
<!-- Generator: Adobe Illustrator 18.1.1, SVG Export Plug-In . SVG Version: 6.00 Build 0)  -->
<svg version="1.1" id="Capa_1" xmlns="http://www.w3.org/2000/svg" xmlns:xlink="http://www.w3.org/1999/xlink" x="0px" y="0px"
	 viewBox="0 0 90 90" style="enable-background:new 0 0 90 90;" xml:space="preserve">
<g>
	<g>
		<path style="fill:#030104;" d="M81.694,16.537c0-5.75-8.662-6.391-8.662-6.391l-20.35-1.279c0,0-0.432-5.539-4.547-7.459
			c-4.113-1.916-8.631-1.332-11.879-1.299c-3.246,0.035-4.01,4.182-4.01,8.088s0.073,8.412,0.073,11.252
			c0,5.082-2.239,7.246-7.834,7.246H12.953c-3.224-0.211-5.736,0.32-5.736,2.93s3.795,24.861,9.008,29.994
			c3.025,2.977,21.519,5.068,25.416,5.068c3.896,0,2.598-11.504,3.68-11.504c1.084,0,2.273,6.498,8.408,8.023
			c6.135,1.527,14.324,1.242,14.758,5.611c0.57,5.762,1.082,13.209-2.707,13.742l-8.577,0.342c-5.878-0.422-4.304-6.846-1.705-6.846
			c2.598,0,3.896-0.102,3.896-0.102l0.324-7.029c0,0-13.465-1.596-14.037,7.492c-0.521,8.303,0.902,12.217,1.949,13.068
			C48.677,88.338,50.483,90,66.971,90C90.21,90,81.694,22.285,81.694,16.537z M72.198,46.605C71.286,47.576,67.985,45,64.839,45
			c-3.156,0-6.557,1.67-7.357,0.572c-0.799-1.1,0.736-9.959,6.674-9.959S73.114,45.633,72.198,46.605z"/>
		<path style="fill:#030104;" d="M24.012,15.83c0-1.137,0.291-14.922,0.291-14.922L6.782,18.104c0,0,12.107,0,14.488,0
			C23.653,18.104,24.012,16.967,24.012,15.83z"/>
	</g>
</g>
<g>
</g>
<g>
</g>
<g>
</g>
<g>
</g>
<g>
</g>
<g>
</g>
<g>
</g>
<g>
</g>
<g>
</g>
<g>
</g>
<g>
</g>
<g>
</g>
<g>
</g>
<g>
</g>
<g>
</g>
</svg>
