<?xml version="1.0" encoding="iso-8859-1"?>
<!-- Generator: Adobe Illustrator 18.1.1, SVG Export Plug-In . SVG Version: 6.00 Build 0)  -->
<svg version="1.1" id="Capa_1" xmlns="http://www.w3.org/2000/svg" xmlns:xlink="http://www.w3.org/1999/xlink" x="0px" y="0px"
	 viewBox="0 0 91.302 91.302" style="enable-background:new 0 0 91.302 91.302;" xml:space="preserve">
<g>
	<path style="fill:#030104;" d="M52.303,2.651h-0.002c-24.536,0-39.987,8.457-38.949,15.25c0.295,1.938,1.123,7.221,2.167,13.87
		C3.495,36.439-0.487,44.011,0.046,50.18c0.632,7.307,7.204,15.129,21.64,16.479c8.242,0.77,18.158-3.748,24.582-11.471
		c-0.611-1.039-0.967-2.245-0.967-3.537c0-3.865,3.132-7,7-7c3.865,0,7,3.135,7,7c0,3.81-3.049,6.905-6.84,6.993
		c-7.652,9.864-19.295,15.814-30.326,15.123c0.256,1.627,0.353,2.242,0.48,3.065c0.454,2.891,11.737,11.803,29.686,11.819h0.002
		c17.951-0.016,29.234-8.928,29.685-11.819c0.447-2.877,8.211-52.033,9.264-58.931C92.291,11.108,76.838,2.651,52.303,2.651z
		 M7.02,49.578c-0.277-3.21,2.272-7.486,9.618-10.696c1.057,6.703,2.205,13.986,3.212,20.38C11.831,57.684,7.359,53.505,7.02,49.578
		z M52.301,28.274c-17.951-0.012-30.684-6.678-30.684-9.164c-0.01-2.475,12.736-9.148,30.684-9.137
		c17.949-0.011,30.695,6.662,30.687,9.137C82.988,21.596,70.254,28.262,52.301,28.274z"/>
</g>
<g>
</g>
<g>
</g>
<g>
</g>
<g>
</g>
<g>
</g>
<g>
</g>
<g>
</g>
<g>
</g>
<g>
</g>
<g>
</g>
<g>
</g>
<g>
</g>
<g>
</g>
<g>
</g>
<g>
</g>
</svg>
