<?xml version="1.0" encoding="iso-8859-1"?>
<!-- Generator: Adobe Illustrator 18.1.1, SVG Export Plug-In . SVG Version: 6.00 Build 0)  -->
<svg version="1.1" id="Capa_1" xmlns="http://www.w3.org/2000/svg" xmlns:xlink="http://www.w3.org/1999/xlink" x="0px" y="0px"
	 viewBox="0 0 100 100" style="enable-background:new 0 0 100 100;" xml:space="preserve">
<g>
	<path style="fill:#030104;" d="M77.041,50.001c0-13.828,6.385-21.601,11.385-21.601c1.822,0,6.574,0,6.574,0
		c-3.34-5.296-6.104-8.4-18.287-8.4h-50.04C8,20,0,37.208,0,50.001C0,62.793,8,80,26.673,80h50.04C88.899,80,91.66,76.896,95,71.601
		c0,0-1.574,0-6.574,0S77.041,63.829,77.041,50.001z M63.438,58.974c-0.815,1.259-3.377,0.077-3.377,0.077L45.277,52.37
		c0,0-1.318,3.342-2.34,5.699c-1.02,2.355-1.805,5.025-6.045,2.042c-4.24-2.984-17.901-16.253-17.901-16.253
		s-1.728-1.413-0.863-2.748c0.814-1.259,3.376-0.078,3.376-0.078l14.783,6.682c0,0,1.319-3.343,2.339-5.699
		c1.021-2.354,1.806-5.023,6.046-2.041c4.24,2.983,17.901,16.253,17.901,16.253S64.301,57.639,63.438,58.974z M94.371,39.638H90.63
		c-2.795,0-5.528,3.772-5.528,9.9c0,6.126,2.733,9.899,5.528,9.899h3.741c2.796,0,5.629-3.773,5.629-9.899
		C100,43.411,97.167,39.638,94.371,39.638z"/>
</g>
<g>
</g>
<g>
</g>
<g>
</g>
<g>
</g>
<g>
</g>
<g>
</g>
<g>
</g>
<g>
</g>
<g>
</g>
<g>
</g>
<g>
</g>
<g>
</g>
<g>
</g>
<g>
</g>
<g>
</g>
</svg>
