<?xml version="1.0" encoding="iso-8859-1"?>
<!-- Generator: Adobe Illustrator 18.1.1, SVG Export Plug-In . SVG Version: 6.00 Build 0)  -->
<svg version="1.1" id="Capa_1" xmlns="http://www.w3.org/2000/svg" xmlns:xlink="http://www.w3.org/1999/xlink" x="0px" y="0px"
	 viewBox="0 0 100 100" style="enable-background:new 0 0 100 100;" xml:space="preserve">
<g>
	<path style="fill:#030104;" d="M76.064,35.701c-1.379,0-2.729,0.119-4.043,0.34C68.74,25.316,58.578,17.5,46.543,17.5
		c-14.689,0-26.596,11.641-26.596,26.002c0,1.281,0.1,2.542,0.283,3.774c-0.705-0.081-1.418-0.135-2.145-0.135
		C8.098,47.141,0,55.057,0,64.82S8.098,82.5,18.086,82.5h57.979C89.285,82.5,100,72.023,100,59.1
		C100,46.178,89.285,35.701,76.064,35.701z M56.859,57.257c-2.476,3.52-13.074,14.441-13.523,14.905
		c-0.521,0.639-1.952,1.715-3.316,0.833c-0.393-0.253-0.857-0.766-0.857-1.773c0-0.966,0.439-1.95,0.49-2.06l5.166-11.433
		c-0.972-0.389-2.637-1.062-3.93-1.623l-0.342-0.146c-1.309-0.556-2.939-1.246-2.939-3.042c0-0.858,0.408-1.856,1.246-3.046
		c2.475-3.52,13.074-14.442,13.525-14.905c0.519-0.64,1.949-1.715,3.314-0.833c0.393,0.255,0.857,0.768,0.857,1.772
		c0,0.967-0.439,1.951-0.49,2.061l-5.167,11.431c0.972,0.39,2.638,1.064,3.931,1.624l0.342,0.146
		c1.309,0.555,2.939,1.247,2.939,3.044C58.105,55.07,57.697,56.066,56.859,57.257z"/>
</g>
<g>
</g>
<g>
</g>
<g>
</g>
<g>
</g>
<g>
</g>
<g>
</g>
<g>
</g>
<g>
</g>
<g>
</g>
<g>
</g>
<g>
</g>
<g>
</g>
<g>
</g>
<g>
</g>
<g>
</g>
</svg>
