<?xml version="1.0" encoding="iso-8859-1"?>
<!-- Generator: Adobe Illustrator 18.1.1, SVG Export Plug-In . SVG Version: 6.00 Build 0)  -->
<svg version="1.1" id="Capa_1" xmlns="http://www.w3.org/2000/svg" xmlns:xlink="http://www.w3.org/1999/xlink" x="0px" y="0px"
	 viewBox="0 0 98.001 98.001" style="enable-background:new 0 0 98.001 98.001;" xml:space="preserve">
<g>
	<g>
		<path style="fill:#030104;" d="M85.757,21.826C70.24,11.505,52.811,7.939,32.146,13.863C16.015,18.488,1.231,36.832,0.087,52.548
			C-1.265,71.119,13.201,87.027,38.68,87c27.47-0.027,37.753-13.219,37.979-17.228c0.226-4.008-10.716-11.421-3.677-19.039
			c8.824-9.547,16.68-1.414,21.438-2.559C99.186,47.033,101.596,32.366,85.757,21.826z M53.887,68.414
			c-4.154,0-7.521-3.357-7.521-7.5c0-4.144,3.366-7.5,7.521-7.5s7.521,3.356,7.521,7.5C61.408,65.057,58.041,68.414,53.887,68.414z"
			/>
	</g>
</g>
<g>
</g>
<g>
</g>
<g>
</g>
<g>
</g>
<g>
</g>
<g>
</g>
<g>
</g>
<g>
</g>
<g>
</g>
<g>
</g>
<g>
</g>
<g>
</g>
<g>
</g>
<g>
</g>
<g>
</g>
</svg>
