<?xml version="1.0" encoding="iso-8859-1"?>
<!-- Generator: Adobe Illustrator 18.1.1, SVG Export Plug-In . SVG Version: 6.00 Build 0)  -->
<svg version="1.1" id="Capa_1" xmlns="http://www.w3.org/2000/svg" xmlns:xlink="http://www.w3.org/1999/xlink" x="0px" y="0px"
	 viewBox="0 0 100 100" style="enable-background:new 0 0 100 100;" xml:space="preserve">
<g>
	<path style="fill:#030104;" d="M90,15H10C4.5,15,0,19.5,0,25v50c0,5.5,4.5,10,10,10h80c5.5,0,10-4.5,10-10V25
		C100,19.5,95.5,15,90,15z M90,75H10V45h80V75z M90,30H10v-5h80V30z M20,55.5v3h3v-3H20z M38,61.5v3h6v-3h3v-3h3v-3h-6v3h-3v3H38z
		 M50,64.5v-3h-3v3H50z M35,64.5v-3h-6v3H35z M38,58.5h3v-3h-6v6h3V58.5z M26,61.5h3v-3h3v-3h-6v3h-3v3h-3v3h6V61.5z"/>
</g>
<g>
</g>
<g>
</g>
<g>
</g>
<g>
</g>
<g>
</g>
<g>
</g>
<g>
</g>
<g>
</g>
<g>
</g>
<g>
</g>
<g>
</g>
<g>
</g>
<g>
</g>
<g>
</g>
<g>
</g>
</svg>
