<?xml version="1.0" encoding="iso-8859-1"?>
<!-- Generator: Adobe Illustrator 18.1.1, SVG Export Plug-In . SVG Version: 6.00 Build 0)  -->
<svg version="1.1" id="Capa_1" xmlns="http://www.w3.org/2000/svg" xmlns:xlink="http://www.w3.org/1999/xlink" x="0px" y="0px"
	 viewBox="0 0 100 100" style="enable-background:new 0 0 100 100;" xml:space="preserve">
<g>
	<g>
		<path style="fill:#030104;" d="M68.304,60.938c6.32-0.168,12.021-3.508,15.377-9.318c5.295-9.174,2.291-20.23-7.898-26.113
			l-6.391-3.691L80.087,3.287L74.392,0L53.718,35.801c-1.611-3.973-4.695-7.547-9.162-10.123l-12.088-6.98L13.747,51.119
			l12.088,6.98c4.469,2.578,9.115,3.445,13.373,2.836L18.552,96.711L24.249,100l10.697-18.527l6.391,3.689
			c10.191,5.885,21.324,2.863,26.619-6.309C71.311,73.041,71.331,66.471,68.304,60.938z M72.788,30.693
			c6.809,3.93,8.555,11.176,4.863,17.566c-3.689,6.395-10.783,8.412-17.592,4.48l-6.31-3.639c0.07-0.18,0.135-0.361,0.197-0.539
			l12.451-21.559L72.788,30.693z M28.831,52.91l-6.391-3.689l12.727-22.049l6.395,3.691c6.809,3.932,8.553,11.178,4.863,17.57
			C42.733,54.824,35.64,56.844,28.831,52.91z M44.333,79.977l-6.393-3.691l12.461-21.584c0.117-0.139,0.234-0.275,0.348-0.418
			l6.314,3.645c6.809,3.93,8.555,11.178,4.865,17.57C58.237,81.889,51.142,83.908,44.333,79.977z"/>
	</g>
</g>
<g>
</g>
<g>
</g>
<g>
</g>
<g>
</g>
<g>
</g>
<g>
</g>
<g>
</g>
<g>
</g>
<g>
</g>
<g>
</g>
<g>
</g>
<g>
</g>
<g>
</g>
<g>
</g>
<g>
</g>
</svg>
