<?xml version="1.0" encoding="iso-8859-1"?>
<!-- Generator: Adobe Illustrator 18.1.1, SVG Export Plug-In . SVG Version: 6.00 Build 0)  -->
<svg version="1.1" id="Capa_1" xmlns="http://www.w3.org/2000/svg" xmlns:xlink="http://www.w3.org/1999/xlink" x="0px" y="0px"
	 viewBox="0 0 100 100" style="enable-background:new 0 0 100 100;" xml:space="preserve">
<g>
	<g>
		<path style="fill:#030104;" d="M42.5,5H38c-1.1,0-2,0.9-2,2v19H18.32c-0.826,0-1.85,0.188-2.835,0.493
			c-0.986,0.302-1.934,0.721-2.604,1.182l-11.875,8.15C0.335,36.285,0,36.893,0,37.5s0.335,1.212,1.006,1.674l11.875,8.151
			c0.671,0.46,1.618,0.879,2.604,1.183C16.471,48.812,17.495,49,18.32,49H36v44c0,1.1,0.9,2,2,2h4.5c1.1,0,2-0.9,2-2V7
			C44.5,5.9,43.6,5,42.5,5z M98.993,25.827l-11.875-8.152c-0.671-0.461-1.618-0.879-2.604-1.184C83.528,16.188,82.504,16,81.679,16
			H47.5l4.003,23h30.176c0.825,0,1.85-0.188,2.835-0.492c0.986-0.303,1.934-0.722,2.604-1.182l11.875-8.152
			C99.664,28.713,100,28.108,100,27.5C100,26.893,99.664,26.287,98.993,25.827z"/>
	</g>
</g>
<g>
</g>
<g>
</g>
<g>
</g>
<g>
</g>
<g>
</g>
<g>
</g>
<g>
</g>
<g>
</g>
<g>
</g>
<g>
</g>
<g>
</g>
<g>
</g>
<g>
</g>
<g>
</g>
<g>
</g>
</svg>
