<?xml version="1.0" encoding="iso-8859-1"?>
<!-- Generator: Adobe Illustrator 18.1.1, SVG Export Plug-In . SVG Version: 6.00 Build 0)  -->
<svg version="1.1" id="Capa_1" xmlns="http://www.w3.org/2000/svg" xmlns:xlink="http://www.w3.org/1999/xlink" x="0px" y="0px"
	 viewBox="0 0 84 84" style="enable-background:new 0 0 84 84;" xml:space="preserve">
<g>
	<path style="fill:#030104;" d="M34,12c0-6.628-5.374-12-12-12c-6.627,0-12,5.372-12,12c0,4.938,2.986,9.178,7.25,11.019v37.963
		C12.986,62.821,10,67.061,10,72c0,6.626,5.373,12,12,12c6.626,0,12-5.374,12-12c0-4.939-2.986-9.179-7.25-11.019V23.019
		C31.014,21.178,34,16.938,34,12z M28.923,72c0,3.823-3.1,6.923-6.923,6.923c-3.822,0-6.923-3.1-6.923-6.923
		s3.101-6.923,6.923-6.923C25.823,65.077,28.923,68.177,28.923,72z M22,18.923c-3.822,0-6.923-3.1-6.923-6.923
		S18.178,5.077,22,5.077c3.823,0,6.923,3.1,6.923,6.923S25.823,18.923,22,18.923z M66.75,60.981V23.019
		C71.014,21.178,74,16.938,74,12c0-6.628-5.374-12-12-12c-6.627,0-12,5.372-12,12c0,4.938,2.986,9.178,7.25,11.019v37.963
		C52.987,62.821,50,67.061,50,72c0,6.626,5.373,12,12,12c6.626,0,12-5.374,12-12C74,67.061,71.014,62.821,66.75,60.981z M55.077,12
		c0-3.823,3.102-6.923,6.924-6.923s6.922,3.1,6.922,6.923s-3.1,6.923-6.922,6.923S55.077,15.823,55.077,12z M62,78.923
		c-3.822,0-6.924-3.1-6.924-6.923s3.102-6.923,6.924-6.923s6.922,3.1,6.922,6.923S65.823,78.923,62,78.923z"/>
</g>
<g>
</g>
<g>
</g>
<g>
</g>
<g>
</g>
<g>
</g>
<g>
</g>
<g>
</g>
<g>
</g>
<g>
</g>
<g>
</g>
<g>
</g>
<g>
</g>
<g>
</g>
<g>
</g>
<g>
</g>
</svg>
