<?xml version="1.0" encoding="iso-8859-1"?>
<!-- Generator: Adobe Illustrator 18.1.1, SVG Export Plug-In . SVG Version: 6.00 Build 0)  -->
<svg version="1.1" id="Capa_1" xmlns="http://www.w3.org/2000/svg" xmlns:xlink="http://www.w3.org/1999/xlink" x="0px" y="0px"
	 viewBox="0 0 100.001 100.001" style="enable-background:new 0 0 100.001 100.001;" xml:space="preserve">
<g>
	<g>
		<path style="fill:#030104;" d="M98.413,25.119L75.047,10.486c-1.035-0.648-2.33-0.648-3.365,0L50,24.066l-21.682-13.58
			c-1.035-0.648-2.33-0.648-3.366,0L1.588,25.119C0.604,25.736,0,26.848,0,28.047v58.537c0,1.23,0.635,2.365,1.66,2.972
			c1.025,0.605,2.283,0.59,3.295-0.043l21.682-13.579l21.68,13.579c1.037,0.648,2.33,0.648,3.367,0l21.682-13.579l21.682,13.579
			C95.566,89.837,96.148,90,96.73,90c0.557,0,1.111-0.148,1.613-0.444c1.025-0.606,1.658-1.741,1.658-2.972V28.047
			C100,26.848,99.397,25.736,98.413,25.119z M23.365,70.017L6.543,80.554V29.98l16.822-10.536V70.017z M46.729,80.554L29.907,70.017
			V19.444l16.822,10.537V80.554z M70.094,70.017L53.272,80.554V29.981l16.822-10.537V70.017z M93.459,80.554L76.637,70.017V19.444
			L93.459,29.98V80.554z"/>
	</g>
</g>
<g>
</g>
<g>
</g>
<g>
</g>
<g>
</g>
<g>
</g>
<g>
</g>
<g>
</g>
<g>
</g>
<g>
</g>
<g>
</g>
<g>
</g>
<g>
</g>
<g>
</g>
<g>
</g>
<g>
</g>
</svg>
