<?xml version="1.0" encoding="iso-8859-1"?>
<!-- Generator: Adobe Illustrator 18.1.1, SVG Export Plug-In . SVG Version: 6.00 Build 0)  -->
<svg version="1.1" id="Capa_1" xmlns="http://www.w3.org/2000/svg" xmlns:xlink="http://www.w3.org/1999/xlink" x="0px" y="0px"
	 viewBox="0 0 100.001 100.001" style="enable-background:new 0 0 100.001 100.001;" xml:space="preserve">
<g>
	<path style="fill:#030104;" d="M16.511,61.197c2.319,9.396,5.267,13.501,15.11,17.805S46.14,88,50.001,88s8.239-4.112,18.083-8.416
		s7.218-5.613,9.537-15.009L50.001,78L16.511,61.197z M97.556,36.68L55.931,13.37c-3.262-1.826-8.598-1.826-11.859,0L2.446,36.68
		c-3.261,1.826-3.261,4.814,0,6.641l41.625,23.308c3.262,1.827,8.598,1.827,11.859,0l26.908-15.067l-29.179-6.835
		c-1.126,0.279-2.362,0.435-3.659,0.435c-5.256,0-9.518-2.535-9.518-5.662c0-3.127,4.262-5.663,9.518-5.663
		c4.081,0,7.552,1.532,8.904,3.678L89.81,47.658l7.744-4.337C100.816,41.495,100.816,38.506,97.556,36.68z M84.834,80.856
		c-0.318,1.923,6.417,5.083,7.059-0.542c2.893-25.357-2.081-32.656-2.081-32.656l-6.973,3.904
		C82.839,51.562,88.751,57.189,84.834,80.856z"/>
</g>
<g>
</g>
<g>
</g>
<g>
</g>
<g>
</g>
<g>
</g>
<g>
</g>
<g>
</g>
<g>
</g>
<g>
</g>
<g>
</g>
<g>
</g>
<g>
</g>
<g>
</g>
<g>
</g>
<g>
</g>
</svg>
