<?xml version="1.0" encoding="iso-8859-1"?>
<!-- Generator: Adobe Illustrator 18.1.1, SVG Export Plug-In . SVG Version: 6.00 Build 0)  -->
<svg version="1.1" id="Capa_1" xmlns="http://www.w3.org/2000/svg" xmlns:xlink="http://www.w3.org/1999/xlink" x="0px" y="0px"
	 viewBox="0 0 86.001 86.001" style="enable-background:new 0 0 86.001 86.001;" xml:space="preserve">
<g>
	<path style="fill:#030104;" d="M78.948,13.755c-8.359-7.672-21.911-7.672-30.271,0l-5.676,5.209l-5.678-5.209
		c-8.358-7.672-21.91-7.672-30.27,0c-9.404,8.63-9.404,22.624,0,31.254l35.948,32.992l35.947-32.992
		C88.352,36.378,88.352,22.385,78.948,13.755z M73.624,39.879L43.001,68.447L12.38,39.879c-3.089-2.835-4.284-6.562-4.284-10.498
		c0-3.934,0.689-7.162,3.778-9.996c2.729-2.505,6.393-3.884,10.315-3.884c3.925,0,7.588,2.379,10.317,4.884l10.497,9.133
		l10.493-9.133c2.729-2.505,6.393-4.884,10.317-4.884s7.588,1.379,10.316,3.885c3.089,2.833,3.776,6.062,3.778,9.996
		C77.908,33.317,76.713,37.043,73.624,39.879z"/>
</g>
<g>
</g>
<g>
</g>
<g>
</g>
<g>
</g>
<g>
</g>
<g>
</g>
<g>
</g>
<g>
</g>
<g>
</g>
<g>
</g>
<g>
</g>
<g>
</g>
<g>
</g>
<g>
</g>
<g>
</g>
</svg>
