<?xml version="1.0" encoding="iso-8859-1"?>
<!-- Generator: Adobe Illustrator 18.1.1, SVG Export Plug-In . SVG Version: 6.00 Build 0)  -->
<svg version="1.1" id="Capa_1" xmlns="http://www.w3.org/2000/svg" xmlns:xlink="http://www.w3.org/1999/xlink" x="0px" y="0px"
	 viewBox="0 0 100 100" style="enable-background:new 0 0 100 100;" xml:space="preserve">
<g>
	<path style="fill:#030104;" d="M96.692,45.211c-1.961-2.083-11.422-11.358-15.748-15.592c-1.325-1.294-3.224-2.119-5.211-2.119
		s-25.734,0-25.734,0s-23.749,0-25.734,0s-3.886,0.825-5.211,2.119C14.728,33.854,5.266,43.128,3.306,45.211
		c-2.445,2.6-3.787,4.675-3.148,7.246l2.805,15.369C3.599,70.396,6.415,72.5,9.22,72.5h81.558c2.806,0,5.621-2.104,6.259-4.673
		l2.805-15.369C100.479,49.887,99.138,47.812,96.692,45.211z M70.237,48.543c-0.508,0-0.969,0.257-1.196,0.664l-4.085,10.175H35.042
		l-4.085-10.175c-0.229-0.407-0.689-0.664-1.197-0.664H12.038L22.24,37h55.518L87.96,48.543H70.237z"/>
</g>
<g>
</g>
<g>
</g>
<g>
</g>
<g>
</g>
<g>
</g>
<g>
</g>
<g>
</g>
<g>
</g>
<g>
</g>
<g>
</g>
<g>
</g>
<g>
</g>
<g>
</g>
<g>
</g>
<g>
</g>
</svg>
