<?xml version="1.0" encoding="iso-8859-1"?>
<!-- Generator: Adobe Illustrator 18.1.1, SVG Export Plug-In . SVG Version: 6.00 Build 0)  -->
<svg version="1.1" id="Capa_1" xmlns="http://www.w3.org/2000/svg" xmlns:xlink="http://www.w3.org/1999/xlink" x="0px" y="0px"
	 viewBox="0 0 98.001 98.001" style="enable-background:new 0 0 98.001 98.001;" xml:space="preserve">
<g>
	<path style="fill:#030104;" d="M87.454,22.629C84.943,7.739,71.355-2.205,57.105,0.421C42.857,3.045,30.834,14.502,33.347,29.393
		c0.541,3.207,2.041,8.227,3.814,11.828L11.288,79.837c-0.954,1.426-1.498,3.991-1.21,5.702l1.664,9.852
		c0.289,1.711,1.863,2.864,3.501,2.563l7.581-1.399c1.639-0.3,3.717-1.742,4.619-3.201l10.233-16.551l0.088-0.108l6.928-1.277
		l11.946-19.393c3.929,0.694,9.562,0.459,12.893-0.154C83.78,53.246,89.968,37.52,87.454,22.629z M74.834,30.262
		c-3.921,5.848-7.919,1.725-13.519-2.371c-5.596-4.096-10.671-6.615-6.754-12.461c3.92-5.85,11.633-7.273,17.231-3.176
		C77.39,16.348,78.751,24.412,74.834,30.262z"/>
</g>
<g>
</g>
<g>
</g>
<g>
</g>
<g>
</g>
<g>
</g>
<g>
</g>
<g>
</g>
<g>
</g>
<g>
</g>
<g>
</g>
<g>
</g>
<g>
</g>
<g>
</g>
<g>
</g>
<g>
</g>
</svg>
