<?xml version="1.0" encoding="iso-8859-1"?>
<!-- Generator: Adobe Illustrator 18.1.1, SVG Export Plug-In . SVG Version: 6.00 Build 0)  -->
<svg version="1.1" id="Capa_1" xmlns="http://www.w3.org/2000/svg" xmlns:xlink="http://www.w3.org/1999/xlink" x="0px" y="0px"
	 viewBox="0 0 62.057 62.057" style="enable-background:new 0 0 62.057 62.057;" xml:space="preserve">
<g>
	<g>
		<path style="fill:#030104;" d="M31.028,13.456c4.458,0,6.688-2.227,6.688-6.684c0-4.513-2.23-6.772-6.688-6.772
			c-4.457,0-6.684,2.259-6.684,6.772C24.344,11.229,26.571,13.456,31.028,13.456z"/>
		<path style="fill:#030104;" d="M40.886,16.03H21.172c-0.857,0-1.585,0.299-2.186,0.9c-0.6,0.6-0.9,1.327-0.9,2.183v19.63h5.486
			v23.314h14.914V38.743h5.485v-19.63c0-0.856-0.315-1.583-0.943-2.183C42.4,16.329,41.686,16.03,40.886,16.03z"/>
	</g>
</g>
<g>
</g>
<g>
</g>
<g>
</g>
<g>
</g>
<g>
</g>
<g>
</g>
<g>
</g>
<g>
</g>
<g>
</g>
<g>
</g>
<g>
</g>
<g>
</g>
<g>
</g>
<g>
</g>
<g>
</g>
</svg>
