<?xml version="1.0" encoding="iso-8859-1"?>
<!-- Generator: Adobe Illustrator 18.1.1, SVG Export Plug-In . SVG Version: 6.00 Build 0)  -->
<svg version="1.1" id="Capa_1" xmlns="http://www.w3.org/2000/svg" xmlns:xlink="http://www.w3.org/1999/xlink" x="0px" y="0px"
	 viewBox="0 0 100 100" style="enable-background:new 0 0 100 100;" xml:space="preserve">
<g>
	<path style="fill:#030104;" d="M63,49.334V5c0-2.762-2.238-5-5-5H41c-2.762,0-4,2.238-4,5v44.334C28.656,53.928,23,62.803,23,73
		c0,14.912,12.089,27,27,27c14.912,0,27-12.088,27-27C77,62.803,71.343,53.928,63,49.334z M50,90c-9.388,0-17-7.611-17-17
		c0-7.769,5.217-14.306,12.334-16.336V20h10v36.866C62.107,59.105,67,65.477,67,73C67,82.389,59.388,90,50,90z"/>
</g>
<g>
</g>
<g>
</g>
<g>
</g>
<g>
</g>
<g>
</g>
<g>
</g>
<g>
</g>
<g>
</g>
<g>
</g>
<g>
</g>
<g>
</g>
<g>
</g>
<g>
</g>
<g>
</g>
<g>
</g>
</svg>
