<?xml version="1.0" encoding="iso-8859-1"?>
<!-- Generator: Adobe Illustrator 18.1.1, SVG Export Plug-In . SVG Version: 6.00 Build 0)  -->
<svg version="1.1" id="Capa_1" xmlns="http://www.w3.org/2000/svg" xmlns:xlink="http://www.w3.org/1999/xlink" x="0px" y="0px"
	 viewBox="0 0 98 98" style="enable-background:new 0 0 98 98;" xml:space="preserve">
<g>
	<g>
		<path style="fill:#030104;" d="M98,24v-6c0-2.209-1.792-4-4-4H4c-2.209,0-4,1.791-4,4v6h10v10H0v10h10v10H0v10h10v10H0v6
			c0,2.209,1.791,4,4,4h90c2.208,0,4-1.791,4-4v-6H88V64h10V54H88V44h10V34H88V24H98z M38,64V34l25,15L38,64z"/>
	</g>
</g>
<g>
</g>
<g>
</g>
<g>
</g>
<g>
</g>
<g>
</g>
<g>
</g>
<g>
</g>
<g>
</g>
<g>
</g>
<g>
</g>
<g>
</g>
<g>
</g>
<g>
</g>
<g>
</g>
<g>
</g>
</svg>
