<?xml version="1.0" encoding="iso-8859-1"?>
<!-- Generator: Adobe Illustrator 18.1.1, SVG Export Plug-In . SVG Version: 6.00 Build 0)  -->
<svg version="1.1" id="Capa_1" xmlns="http://www.w3.org/2000/svg" xmlns:xlink="http://www.w3.org/1999/xlink" x="0px" y="0px"
	 viewBox="0 0 98 98" style="enable-background:new 0 0 98 98;" xml:space="preserve">
<g>
	<g>
		<path style="fill:#030104;" d="M6.5,31.5h85c2.854,0,2.385-3.04,0.965-3.535C91.045,27.469,75.25,21.5,72.5,21.5H68v-15H30v15
			h-4.5c-2.75,0-18.545,5.969-19.965,6.465C4.115,28.46,3.646,31.5,6.5,31.5z M92.5,37h-87C2.75,37,0,40.25,0,43v17.5
			c0,2.75,2.75,6,5.5,6h9.912L11,91.5h76l-4.412-25H92.5c2.75,0,5.5-3.25,5.5-6V43C98,40.25,95.25,37,92.5,37z M21,81.5L28,49h42
			l7,32.5H21z"/>
	</g>
</g>
<g>
</g>
<g>
</g>
<g>
</g>
<g>
</g>
<g>
</g>
<g>
</g>
<g>
</g>
<g>
</g>
<g>
</g>
<g>
</g>
<g>
</g>
<g>
</g>
<g>
</g>
<g>
</g>
<g>
</g>
</svg>
