<?xml version="1.0" encoding="iso-8859-1"?>
<!-- Generator: Adobe Illustrator 18.1.1, SVG Export Plug-In . SVG Version: 6.00 Build 0)  -->
<svg version="1.1" id="Capa_1" xmlns="http://www.w3.org/2000/svg" xmlns:xlink="http://www.w3.org/1999/xlink" x="0px" y="0px"
	 viewBox="0 0 100 100" style="enable-background:new 0 0 100 100;" xml:space="preserve">
<g>
	<g>
		<g>
			<path style="fill:#030104;" d="M80,36.215h-3c-1.1,0-2,0.9-2,2V52c0,6.686-5.266,18-25,18S25,58.686,25,52V38.215
				c0-1.1-0.9-2-2-2h-3c-1.1,0-2,0.9-2,2V52c0,11.184,8.215,23.152,27,24.801V90H32c-1.1,0-2,0.898-2,2v6c0,1.1,0.9,2,2,2h36
				c1.1,0,2-0.9,2-2v-6c0-1.102-0.9-2-2-2H55V76.801C73.785,75.152,82,63.184,82,52V38.215C82,37.115,81.1,36.215,80,36.215z"/>
			<path style="fill:#030104;" d="M50,60c11.732,0,15-4.818,15-8V36.215H35V52C35,55.182,38.266,60,50,60z"/>
			<path style="fill:#030104;" d="M65,8c0-3.184-3.268-8-15-8C38.266,0,35,4.816,35,8v21.215h30V8z"/>
		</g>
	</g>
</g>
<g>
</g>
<g>
</g>
<g>
</g>
<g>
</g>
<g>
</g>
<g>
</g>
<g>
</g>
<g>
</g>
<g>
</g>
<g>
</g>
<g>
</g>
<g>
</g>
<g>
</g>
<g>
</g>
<g>
</g>
</svg>
