<?xml version="1.0" encoding="iso-8859-1"?>
<!-- Generator: Adobe Illustrator 18.1.1, SVG Export Plug-In . SVG Version: 6.00 Build 0)  -->
<svg version="1.1" id="Capa_1" xmlns="http://www.w3.org/2000/svg" xmlns:xlink="http://www.w3.org/1999/xlink" x="0px" y="0px"
	 viewBox="0 0 92 92" style="enable-background:new 0 0 92 92;" xml:space="preserve">
<g>
	<path style="fill:#030104;" d="M76.684,40.881c11.752-3.477,18.643-15.93,13.695-16.18c-12.703-0.646-23.57-6.801-30.889-11.4
		c-0.773-0.511-1.564-0.996-2.375-1.449v28.625c0,9.463-5.723,17.008-12.219,20.144c-9.424,4.549-19.928,1.692-23.457-6.382
		s1.25-18.309,10.676-22.858c5.215-2.516,10.752-2.76,15.262-1.114V8.061C44.527,7.379,41.562,7,38.506,7C17.24,7,0,24.46,0,46
		s17.24,39,38.506,39c21.268,0,38.506-17.46,38.506-39C77.012,44.266,76.898,42.555,76.684,40.881z"/>
</g>
<g>
</g>
<g>
</g>
<g>
</g>
<g>
</g>
<g>
</g>
<g>
</g>
<g>
</g>
<g>
</g>
<g>
</g>
<g>
</g>
<g>
</g>
<g>
</g>
<g>
</g>
<g>
</g>
<g>
</g>
</svg>
