<?xml version="1.0" encoding="iso-8859-1"?>
<!-- Generator: Adobe Illustrator 18.1.1, SVG Export Plug-In . SVG Version: 6.00 Build 0)  -->
<svg version="1.1" id="Capa_1" xmlns="http://www.w3.org/2000/svg" xmlns:xlink="http://www.w3.org/1999/xlink" x="0px" y="0px"
	 viewBox="0 0 90 90" style="enable-background:new 0 0 90 90;" xml:space="preserve">
<g>
	<g>
		<path style="fill:#030104;" d="M88.419,49.503l-15.74-37.46C71.431,9.544,68.13,7.5,65.343,7.5H24.658
			c-2.789,0-6.09,2.044-7.338,4.543L1.582,49.503c-1.248,2.5-1.893,6.801-1.434,9.558l3.4,18.427
			C4.007,80.245,6.664,82.5,9.451,82.5h71.098c2.787,0,5.443-2.255,5.902-5.012l3.402-18.427
			C90.31,56.305,89.666,52.003,88.419,49.503z M81.605,62.629l-1.295,7.514c-0.389,2.884-2.984,5.243-5.773,5.243H15.462
			c-2.787,0-5.385-2.359-5.773-5.243l-1.295-7.514c-0.387-2.883,1.576-5.243,4.365-5.243h64.48
			C80.029,57.387,81.992,59.746,81.605,62.629z"/>
	</g>
</g>
<g>
</g>
<g>
</g>
<g>
</g>
<g>
</g>
<g>
</g>
<g>
</g>
<g>
</g>
<g>
</g>
<g>
</g>
<g>
</g>
<g>
</g>
<g>
</g>
<g>
</g>
<g>
</g>
<g>
</g>
</svg>
