<?xml version="1.0" encoding="iso-8859-1"?>
<!-- Generator: Adobe Illustrator 18.1.1, SVG Export Plug-In . SVG Version: 6.00 Build 0)  -->
<svg version="1.1" id="Capa_1" xmlns="http://www.w3.org/2000/svg" xmlns:xlink="http://www.w3.org/1999/xlink" x="0px" y="0px"
	 viewBox="0 0 100 100" style="enable-background:new 0 0 100 100;" xml:space="preserve">
<g>
	<path style="fill:#030104;" d="M38.061,21.296c-1.836-1.728-4.316-1.728-6.154,0L0,50.001l31.906,28.703
		c1.838,1.729,4.318,1.729,6.154,0c1.838-1.73,1.838-4.534,0-6.263l-24.771-22.44L38.061,27.56
		C39.898,25.832,39.898,23.028,38.061,21.296z M68.094,21.296c-1.838-1.728-4.316-1.728-6.154,0c-1.838,1.731-1.738,4.535,0.1,6.264
		l24.671,22.441l-24.672,22.44c-1.838,1.729-1.938,4.532-0.1,6.263c1.838,1.729,4.316,1.729,6.154,0L100,50.001L68.094,21.296z"/>
</g>
<g>
</g>
<g>
</g>
<g>
</g>
<g>
</g>
<g>
</g>
<g>
</g>
<g>
</g>
<g>
</g>
<g>
</g>
<g>
</g>
<g>
</g>
<g>
</g>
<g>
</g>
<g>
</g>
<g>
</g>
</svg>
