<?xml version="1.0" encoding="iso-8859-1"?>
<!-- Generator: Adobe Illustrator 18.1.1, SVG Export Plug-In . SVG Version: 6.00 Build 0)  -->
<svg version="1.1" id="Capa_1" xmlns="http://www.w3.org/2000/svg" xmlns:xlink="http://www.w3.org/1999/xlink" x="0px" y="0px"
	 viewBox="0 0 96 96" style="enable-background:new 0 0 96 96;" xml:space="preserve">
<g>
	<path style="fill:#030104;" d="M47.749,22.715c-5.487,0-10.145,1.613-13.973,4.842c-3.828,3.228-6.2,7.786-7.114,13.672h-3.771
		l9.513,9.514l9.517-9.514h-3.515c0.799-5.657,4.398-8.485,10.8-8.485c3.541,0,6.258,1.327,8.141,3.985
		c1.887,2.657,2.829,6.527,2.829,11.614c0,4.855-1.027,8.742-3.085,11.656s-4.773,4.371-8.141,4.371
		c-6.746,0-10.261-2.914-10.544-8.742H26.319c0.8,5.998,3.171,10.629,7.114,13.884c3.942,3.259,8.627,4.887,14.056,4.887
		c7.374,0,13.372-2.443,18.002-7.326c4.627-4.887,6.944-11.015,6.944-18.388c0-7.6-2.231-13.83-6.688-18.686
		C61.291,25.144,55.289,22.715,47.749,22.715z M48,0C21.49,0,0,21.49,0,48s21.49,48,48,48s48-21.49,48-48S74.51,0,48,0z
		 M47.999,87.2C26.35,87.2,8.8,69.649,8.8,48S26.35,8.8,47.999,8.8c21.65,0,39.2,17.551,39.2,39.2S69.649,87.2,47.999,87.2z"/>
</g>
<g>
</g>
<g>
</g>
<g>
</g>
<g>
</g>
<g>
</g>
<g>
</g>
<g>
</g>
<g>
</g>
<g>
</g>
<g>
</g>
<g>
</g>
<g>
</g>
<g>
</g>
<g>
</g>
<g>
</g>
</svg>
