<?xml version="1.0" encoding="iso-8859-1"?>
<!-- Generator: Adobe Illustrator 18.1.1, SVG Export Plug-In . SVG Version: 6.00 Build 0)  -->
<svg version="1.1" id="Capa_1" xmlns="http://www.w3.org/2000/svg" xmlns:xlink="http://www.w3.org/1999/xlink" x="0px" y="0px"
	 viewBox="0 0 90.001 90.001" style="enable-background:new 0 0 90.001 90.001;" xml:space="preserve">
<g>
	<g>
		<path style="fill:#030104;" d="M80.578,9.423c-8.377-8.376-18.895-11.44-22.244-8.09L44.852,14.815
			c-2.045,2.045-3.828,8.89-3.01,15.818L1.037,71.439c-2.42,2.42-0.459,8.305,4.381,13.144c4.84,4.841,10.725,6.801,13.145,4.383
			l40.805-40.805c6.93,0.818,13.773-0.967,15.818-3.011l13.482-13.482C92.018,28.317,88.955,17.8,80.578,9.423z M35.705,50.202
			c-1.863-1.863-1.256-5.484,1.348-8.09c2.605-2.604,6.229-3.211,8.09-1.348c1.859,1.86,1.256,5.484-1.348,8.089
			C41.189,51.458,37.564,52.062,35.705,50.202z M69.457,20.545c-6.49-6.489-8.119-15.051-7.543-15.63
			c0.578-0.578,8.803,1.389,15.295,7.878c6.488,6.491,8.436,14.734,7.877,15.294C84.527,28.646,75.945,27.036,69.457,20.545z"/>
	</g>
</g>
<g>
</g>
<g>
</g>
<g>
</g>
<g>
</g>
<g>
</g>
<g>
</g>
<g>
</g>
<g>
</g>
<g>
</g>
<g>
</g>
<g>
</g>
<g>
</g>
<g>
</g>
<g>
</g>
<g>
</g>
</svg>
