<?xml version="1.0" encoding="iso-8859-1"?>
<!-- Generator: Adobe Illustrator 18.1.1, SVG Export Plug-In . SVG Version: 6.00 Build 0)  -->
<svg version="1.1" id="Capa_1" xmlns="http://www.w3.org/2000/svg" xmlns:xlink="http://www.w3.org/1999/xlink" x="0px" y="0px"
	 viewBox="0 0 88 88" style="enable-background:new 0 0 88 88;" xml:space="preserve">
<g>
	<path style="fill:#030104;" d="M77.631,58.199C73.414,65.02,59.955,70.007,44,70.007c-15.953,0-29.414-4.987-33.629-11.808
		C9.477,56.756,9,57.528,9,58.245c0,0.715,0,10.01,0,10.01C9,77.948,24.67,88,44,88c19.332,0,35-10.052,35-19.745
		c0,0,0-9.295,0-10.01C79,57.528,78.523,56.756,77.631,58.199z M77.688,32.624c-4.148,6.03-17.66,10.45-33.688,10.45
		c-16.025,0-29.539-4.42-33.688-10.45C9.457,31.381,9,32.056,9,32.619c0,0.564,0,11.779,0,11.779c0,8.813,15.67,15.955,35,15.955
		c19.332,0,35-7.142,35-15.955c0,0,0-11.215,0-11.779C79,32.056,78.543,31.381,77.688,32.624z M44,0C24.67,0,9,5.893,9,13.162v6.298
		c0,7.71,15.67,13.96,35,13.96c19.332,0,35-6.25,35-13.96v-6.298C79,5.893,63.332,0,44,0z"/>
</g>
<g>
</g>
<g>
</g>
<g>
</g>
<g>
</g>
<g>
</g>
<g>
</g>
<g>
</g>
<g>
</g>
<g>
</g>
<g>
</g>
<g>
</g>
<g>
</g>
<g>
</g>
<g>
</g>
<g>
</g>
</svg>
