<?xml version="1.0" encoding="iso-8859-1"?>
<!-- Generator: Adobe Illustrator 18.1.1, SVG Export Plug-In . SVG Version: 6.00 Build 0)  -->
<svg version="1.1" id="Capa_1" xmlns="http://www.w3.org/2000/svg" xmlns:xlink="http://www.w3.org/1999/xlink" x="0px" y="0px"
	 viewBox="0 0 100 100" style="enable-background:new 0 0 100 100;" xml:space="preserve">
<g>
	<path style="fill:#030104;" d="M90,20h-5v75h5c5.5,0,10-4.5,10-10V30C100,24.5,95.5,20,90,20z M0,30v55c0,5.5,4.5,10,10,10h5V20h-5
		C4.5,20,0,24.5,0,30z M67,9.533C63.596,7.951,58.158,5,50,5S36.404,7.951,33,9.533V20H22v75h56V20H67V9.533z M61,20H39v-6.678
		C41.668,12.174,45.488,11,50,11s8.332,1.174,11,2.322V20z"/>
</g>
<g>
</g>
<g>
</g>
<g>
</g>
<g>
</g>
<g>
</g>
<g>
</g>
<g>
</g>
<g>
</g>
<g>
</g>
<g>
</g>
<g>
</g>
<g>
</g>
<g>
</g>
<g>
</g>
<g>
</g>
</svg>
