<?xml version="1.0" encoding="iso-8859-1"?>
<!-- Generator: Adobe Illustrator 18.1.1, SVG Export Plug-In . SVG Version: 6.00 Build 0)  -->
<svg version="1.1" id="Capa_1" xmlns="http://www.w3.org/2000/svg" xmlns:xlink="http://www.w3.org/1999/xlink" x="0px" y="0px"
	 viewBox="0 0 90 90" style="enable-background:new 0 0 90 90;" xml:space="preserve">
<g>
	<g>
		<path style="fill:#030104;" d="M31.113,49.348h28v-9h-28C31.113,40.348,31.113,49.348,31.113,49.348z M70,0H20
			c-5.5,0-10,4.5-10,10v70c0,5.5,4.5,10,10,10h50c5.5,0,10-4.5,10-10V10C80,4.5,75.5,0,70,0z M70,80H20V10h50V80z M59,20.848H31
			v8.75h28V20.848z M59,60.098H31v8.75h28V60.098z"/>
	</g>
</g>
<g>
</g>
<g>
</g>
<g>
</g>
<g>
</g>
<g>
</g>
<g>
</g>
<g>
</g>
<g>
</g>
<g>
</g>
<g>
</g>
<g>
</g>
<g>
</g>
<g>
</g>
<g>
</g>
<g>
</g>
</svg>
