<?xml version="1.0" encoding="iso-8859-1"?>
<!-- Generator: Adobe Illustrator 18.1.1, SVG Export Plug-In . SVG Version: 6.00 Build 0)  -->
<svg version="1.1" id="Capa_1" xmlns="http://www.w3.org/2000/svg" xmlns:xlink="http://www.w3.org/1999/xlink" x="0px" y="0px"
	 viewBox="0 0 90 90" style="enable-background:new 0 0 90 90;" xml:space="preserve">
<g>
	<path style="fill:#030104;" d="M75,0H15C9.5,0,5,4.5,5,10v70c0,5.5,4.5,10,10,10h60c5.5,0,10-4.5,10-10V10C85,4.5,80.5,0,75,0z
		 M75,80H15V10h60V80z M50,55H25v5h25V55z M65,35H45v5h20V35z M45,30h20V20H45V30z M40,20H25v20h15V20z M35,45H25v5h10V45z M40,50
		h25v-5H40V50z M65,65H25v5h40V65z M55,60h10v-5H55V60z"/>
</g>
<g>
</g>
<g>
</g>
<g>
</g>
<g>
</g>
<g>
</g>
<g>
</g>
<g>
</g>
<g>
</g>
<g>
</g>
<g>
</g>
<g>
</g>
<g>
</g>
<g>
</g>
<g>
</g>
<g>
</g>
</svg>
