<?xml version="1.0" encoding="iso-8859-1"?>
<!-- Generator: Adobe Illustrator 18.1.1, SVG Export Plug-In . SVG Version: 6.00 Build 0)  -->
<svg version="1.1" id="Capa_1" xmlns="http://www.w3.org/2000/svg" xmlns:xlink="http://www.w3.org/1999/xlink" x="0px" y="0px"
	 viewBox="0 0 90 90" style="enable-background:new 0 0 90 90;" xml:space="preserve">
<g>
	<path style="fill:#030104;" d="M63.241,31.814c-0.659-1.777,17.699-18.172,6.99-31.457c-2.507-3.109-11.006,14.875-23.077,23.018
		C40.495,27.867,25,37.429,25,42.711v34.202C25,83.272,49.568,90,68.246,90C75.083,90,85,47.124,85,40.312
		C85,33.476,63.9,33.592,63.241,31.814z M20,32.29c-3.288,0-15,2-15,15.608v24.24c0,13.609,11.712,15.109,15,15.109
		c3.287,0-5-2.863-5-11.297V44.086C15,35.244,23.287,32.29,20,32.29z"/>
</g>
<g>
</g>
<g>
</g>
<g>
</g>
<g>
</g>
<g>
</g>
<g>
</g>
<g>
</g>
<g>
</g>
<g>
</g>
<g>
</g>
<g>
</g>
<g>
</g>
<g>
</g>
<g>
</g>
<g>
</g>
</svg>
