<?xml version="1.0" encoding="iso-8859-1"?>
<!-- Generator: Adobe Illustrator 18.1.1, SVG Export Plug-In . SVG Version: 6.00 Build 0)  -->
<svg version="1.1" id="Capa_1" xmlns="http://www.w3.org/2000/svg" xmlns:xlink="http://www.w3.org/1999/xlink" x="0px" y="0px"
	 viewBox="0 0 90 90" style="enable-background:new 0 0 90 90;" xml:space="preserve">
<g>
	<path style="fill:#030104;" d="M26.759,58.186c0.659,1.777-17.699,18.172-6.99,31.457c2.507,3.109,11.006-14.875,23.077-23.018
		C49.505,62.133,65,52.572,65,47.29V13.088C65,6.728,40.432,0,21.754,0C14.917,0,5,42.876,5,49.688
		C5,56.525,26.1,56.408,26.759,58.186z M70,57.71c3.288,0,15-2,15-15.608v-24.24C85,4.253,73.288,2.753,70,2.753
		c-3.287,0,5,2.863,5,11.297v31.865C75,54.756,66.713,57.71,70,57.71z"/>
</g>
<g>
</g>
<g>
</g>
<g>
</g>
<g>
</g>
<g>
</g>
<g>
</g>
<g>
</g>
<g>
</g>
<g>
</g>
<g>
</g>
<g>
</g>
<g>
</g>
<g>
</g>
<g>
</g>
<g>
</g>
</svg>
