<?xml version="1.0" encoding="iso-8859-1"?>
<!-- Generator: Adobe Illustrator 18.1.1, SVG Export Plug-In . SVG Version: 6.00 Build 0)  -->
<svg version="1.1" id="Capa_1" xmlns="http://www.w3.org/2000/svg" xmlns:xlink="http://www.w3.org/1999/xlink" x="0px" y="0px"
	 viewBox="0 0 85.998 85.998" style="enable-background:new 0 0 85.998 85.998;" xml:space="preserve">
<g>
	<g>
		<path style="fill:#030104;" d="M83.609,11.334c-1.479-1.278-9.531-7.373-11.034-8.671c-1.503-1.299-3.856-1.664-5.511-1.664
			H18.937c-1.655,0-4.008,0.365-5.511,1.664c-1.503,1.298-9.555,7.394-11.034,8.671c-1.48,1.278-2.712,3.206-2.317,5.956
			c0.396,2.75,9.683,64.863,9.683,64.863c0.522,1.565,2.303,2.846,3.958,2.846h58.568c1.655,0,3.437-1.281,3.958-2.846
			c0,0,9.287-62.113,9.682-64.863S85.088,12.612,83.609,11.334z M43,54.842c-16.238,0-19.717-22.985-20.436-27.722h9.182
			C33.131,34.028,36.275,45.842,43,45.842s9.869-11.813,11.254-18.722h9.182C62.717,31.857,59.239,54.842,43,54.842z M7.816,17.999
			l11.028-11.5h48.312l11.029,11.5H7.816z"/>
	</g>
</g>
<g>
</g>
<g>
</g>
<g>
</g>
<g>
</g>
<g>
</g>
<g>
</g>
<g>
</g>
<g>
</g>
<g>
</g>
<g>
</g>
<g>
</g>
<g>
</g>
<g>
</g>
<g>
</g>
<g>
</g>
</svg>
