<?xml version="1.0" encoding="iso-8859-1"?>
<!-- Generator: Adobe Illustrator 18.1.1, SVG Export Plug-In . SVG Version: 6.00 Build 0)  -->
<svg version="1.1" id="Capa_1" xmlns="http://www.w3.org/2000/svg" xmlns:xlink="http://www.w3.org/1999/xlink" x="0px" y="0px"
	 viewBox="0 0 92 92" style="enable-background:new 0 0 92 92;" xml:space="preserve">
<g>
	<g>
		<path style="fill:#030104;" d="M46.002,92C71.406,92,92,71.404,92,46C92,20.594,71.406,0,46.002,0C20.596,0,0,20.594,0,46
			C0,71.404,20.596,92,46.002,92z M46.002,10C65.883,10,82,26.117,82,46S65.883,82,46.002,82C26.117,82,10,65.883,10,46
			S26.117,10,46.002,10z M37,65.25h18V44.799h11.25L46,25.75L25.75,44.799H37V65.25z"/>
	</g>
</g>
<g>
</g>
<g>
</g>
<g>
</g>
<g>
</g>
<g>
</g>
<g>
</g>
<g>
</g>
<g>
</g>
<g>
</g>
<g>
</g>
<g>
</g>
<g>
</g>
<g>
</g>
<g>
</g>
<g>
</g>
</svg>
