<?xml version="1.0" encoding="iso-8859-1"?>
<!-- Generator: Adobe Illustrator 18.1.1, SVG Export Plug-In . SVG Version: 6.00 Build 0)  -->
<svg version="1.1" id="Capa_1" xmlns="http://www.w3.org/2000/svg" xmlns:xlink="http://www.w3.org/1999/xlink" x="0px" y="0px"
	 viewBox="0 0 99.999 99.999" style="enable-background:new 0 0 99.999 99.999;" xml:space="preserve">
<g>
	<g>
		<path style="fill:#030104;" d="M77.01,72.015L63.881,34.332c-3.612-10.367-14.831-16.097-25.46-13.267l-9.882-19.17
			c-0.896-1.735-2.991-2.4-4.688-1.484c-1.696,0.917-2.345,3.07-1.449,4.805l9.646,18.712c-7.687,5.097-11.68,14.765-9.149,23.87
			l10.698,38.481c3.007,10.814,15.398,16.324,27.854,12.516C73.746,94.473,80.702,82.604,77.01,72.015z M44.499,44.611
			c-3.65,1.2-7.558-0.859-8.728-4.601c-1.171-3.74,0.839-7.746,4.489-8.943c3.65-1.201,7.559,0.859,8.729,4.6
			C50.161,39.408,48.15,43.413,44.499,44.611z"/>
	</g>
</g>
<g>
</g>
<g>
</g>
<g>
</g>
<g>
</g>
<g>
</g>
<g>
</g>
<g>
</g>
<g>
</g>
<g>
</g>
<g>
</g>
<g>
</g>
<g>
</g>
<g>
</g>
<g>
</g>
<g>
</g>
</svg>
