<?xml version="1.0" encoding="iso-8859-1"?>
<!-- Generator: Adobe Illustrator 18.1.1, SVG Export Plug-In . SVG Version: 6.00 Build 0)  -->
<svg version="1.1" id="Capa_1" xmlns="http://www.w3.org/2000/svg" xmlns:xlink="http://www.w3.org/1999/xlink" x="0px" y="0px"
	 viewBox="0 0 98 98" style="enable-background:new 0 0 98 98;" xml:space="preserve">
<g>
	<g>
		<path style="fill:#030104;" d="M49.001,69c-5.466,0-9.899,4.478-9.899,10s4.434,10,9.899,10c5.468,0,9.899-4.478,9.899-10
			S54.469,69,49.001,69z M28.001,57.787l7,7.07c7.731-7.811,20.269-7.81,28.001,0l6.999-7.07
			C58.403,46.071,39.599,46.071,28.001,57.787z M14.001,43.645L21,50.716c15.464-15.621,40.536-15.621,56,0l7.001-7.071
			C64.672,24.119,33.33,24.119,14.001,43.645z M0,29.502l6.999,7.071c23.196-23.431,60.806-23.431,84.002,0L98,29.503
			C70.938,2.166,27.063,2.166,0,29.502z"/>
	</g>
</g>
<g>
</g>
<g>
</g>
<g>
</g>
<g>
</g>
<g>
</g>
<g>
</g>
<g>
</g>
<g>
</g>
<g>
</g>
<g>
</g>
<g>
</g>
<g>
</g>
<g>
</g>
<g>
</g>
<g>
</g>
</svg>
